RobotoFlexCondensed-Bold.ufo
<glyph name="exclam" format="2">
  <advance width="677"/>
  <unicode hex="0021"/>
  <outline>
    <contour>
      <point x="161.1194871794883" y="138.59820512820662" type="curve" smooth="yes"/>
      <point x="161" y="50"/>
      <point x="223" y="-22"/>
      <point x="338.47367757221565" y="-22.0" type="curve" smooth="yes"/>
      <point x="453" y="-22"/>
      <point x="516" y="50"/>
      <point x="515.8278679649478" y="138.59820512820662" type="curve" smooth="yes"/>
      <point x="516" y="226"/>
      <point x="453" y="299"/>
      <point x="338.2357288542673" y="298.71307692307505" type="curve" smooth="yes"/>
      <point x="223" y="299"/>
      <point x="161" y="226"/>
    </contour>
    <contour>
      <point x="212.84914384939893" y="459.17538461538504" type="line"/>
      <point x="462.3553907822155" y="459.17538461538504" type="line"/>
      <point x="484.1050522557625" y="1456.0" type="line"/>
      <point x="191.6423028886736" y="1456.0" type="line"/>
    </contour>
  </outline>
</glyph>
<glyph name="quotedbl" format="2">
  <advance width="847"/>
  <unicode hex="0022"/>
  <outline>
    <contour>
      <point x="100.5526173969498" y="848.21846153846" type="line"/>
      <point x="313.4800734177199" y="848.21846153846" type="line"/>
      <point x="333.13833184031296" y="1284.38769230769" type="line"/>
      <point x="333.13833184031296" y="1456.0" type="line"/>
      <point x="81.6705128205117" y="1456.0" type="line"/>
      <point x="81.6705128205117" y="1284.38769230769" type="line"/>
    </contour>
    <contour>
      <point x="534.3973594936712" y="848.21846153846" type="line"/>
      <point x="746.0653283349577" y="848.21846153846" type="line"/>
      <point x="765.723586757546" y="1284.38769230769" type="line"/>
      <point x="765.723586757546" y="1456.0" type="line"/>
      <point x="515.515254917233" y="1456.0" type="line"/>
      <point x="515.515254917233" y="1284.38769230769" type="line"/>
    </contour>
  </outline>
</glyph>
<glyph name="numbersign" format="2">
  <advance width="1482"/>
  <unicode hex="0023"/>
  <outline>
    <contour>
      <point x="241.3935897435916" y="-20.0" type="line"/>
      <point x="470.50370204478895" y="-19.516666666666666" type="line"/>
      <point x="851.7863002271982" y="1458.3293248945156" type="line"/>
      <point x="623.9356751054844" y="1458.3293248945156" type="line"/>
    </contour>
    <contour>
      <point x="646.8673158065574" y="-20.0" type="line"/>
      <point x="875.9774281077596" y="-20.0" type="line"/>
      <point x="1257.0481032132438" y="1458.3293248945156" type="line"/>
      <point x="1027.9379909120419" y="1458.3293248945156" type="line"/>
    </contour>
    <contour>
      <point x="138.85128205128166" y="357.5833333333333" type="line"/>
      <point x="1283.2483255436562" y="357.5833333333333" type="line"/>
      <point x="1283.2483255436562" y="584.1782051282066" type="line"/>
      <point x="138.85128205128166" y="584.1782051282066" type="line"/>
    </contour>
    <contour>
      <point x="214.933880233691" y="855.601119766309" type="line"/>
      <point x="1359.590410905549" y="855.601119766309" type="line"/>
      <point x="1359.590410905549" y="1080.7459915611823" type="line"/>
      <point x="214.933880233691" y="1080.7459915611823" type="line"/>
    </contour>
  </outline>
</glyph>
<glyph name="dollar" format="2">
  <advance width="1149"/>
  <unicode hex="0024"/>
  <outline>
    <contour>
      <point x="119.89" y="435.81" type="line" smooth="yes"/>
      <point x="120" y="143"/>
      <point x="307" y="2"/>
      <point x="591.495" y="2.0233333333333334" type="curve" smooth="yes"/>
      <point x="872" y="2"/>
      <point x="1066" y="158"/>
      <point x="1065.65" y="428.81666666666666" type="curve" smooth="yes"/>
      <point x="1066" y="658"/>
      <point x="939" y="790"/>
      <point x="669.5833333333334" y="867.5916666666667" type="curve" smooth="yes"/>
      <point x="455" y="930"/>
      <point x="414" y="952"/>
      <point x="414.125" y="1074.0716666666667" type="curve" smooth="yes"/>
      <point x="414" y="1186"/>
      <point x="467" y="1245"/>
      <point x="584.3783333333333" y="1245.0766666666666" type="curve" smooth="yes"/>
      <point x="707" y="1245"/>
      <point x="754" y="1148"/>
      <point x="753.7116666666667" y="1025.7333333333333" type="curve" smooth="yes"/>
      <point x="753.7116666666667" y="1012.7516666666667" type="line"/>
      <point x="1041.7516666666668" y="1012.7516666666667" type="line"/>
      <point x="1041.7516666666668" y="1029.1166666666666" type="line" smooth="yes"/>
      <point x="1042" y="1291"/>
      <point x="859" y="1456"/>
      <point x="582.695" y="1455.97" type="curve" smooth="yes"/>
      <point x="322" y="1456"/>
      <point x="125" y="1300"/>
      <point x="124.855" y="1044.6566666666668" type="curve" smooth="yes"/>
      <point x="125" y="810"/>
      <point x="280" y="696"/>
      <point x="525.6833333333334" y="628.7716666666666" type="curve" smooth="yes"/>
      <point x="735" y="571"/>
      <point x="778" y="521"/>
      <point x="777.6283333333333" y="409.1933333333333" type="curve" smooth="yes"/>
      <point x="778" y="279"/>
      <point x="717" y="218"/>
      <point x="591.0116666666667" y="217.71666666666667" type="curve" smooth="yes"/>
      <point x="471" y="218"/>
      <point x="397" y="280"/>
      <point x="396.66833333333335" y="439.2416666666667" type="curve" smooth="yes"/>
      <point x="396.66833333333335" y="453.625" type="line"/>
      <point x="119.89" y="453.625" type="line"/>
    </contour>
    <contour>
      <point x="484.9483333333333" y="-139.16333333333333" type="line"/>
      <point x="705.0816666666667" y="-139.16333333333333" type="line"/>
      <point x="705.0816666666667" y="100.83666666666667" type="line"/>
      <point x="693.4983333333333" y="110.35333333333334" type="line"/>
      <point x="693.4983333333333" y="160.675" type="line"/>
      <point x="484.9483333333333" y="160.675" type="line"/>
    </contour>
    <contour>
      <point x="488.9433333333333" y="1285.5566666666666" type="line"/>
      <point x="488.9433333333333" y="1339.745" type="line"/>
      <point x="477.31166666666667" y="1349.745" type="line"/>
      <point x="477.31166666666667" y="1616.8366666666666" type="line"/>
      <point x="697.01" y="1616.8366666666666" type="line"/>
      <point x="697.01" y="1285.5566666666666" type="line"/>
    </contour>
  </outline>
</glyph>
<glyph name="ampersand" format="2">
  <advance width="1167"/>
  <unicode hex="0026"/>
  <outline>
    <contour>
      <point x="75.65" y="380.0" type="curve" smooth="yes"/>
      <point x="77" y="153"/>
      <point x="226" y="-20"/>
      <point x="499.8" y="-20.0" type="curve" smooth="yes"/>
      <point x="825" y="-20"/>
      <point x="1079" y="285"/>
      <point x="1079.15" y="679.3166666666667" type="curve"/>
      <point x="803.9" y="679.3166666666667" type="line"/>
      <point x="801" y="363"/>
      <point x="671" y="192"/>
      <point x="523.58" y="191.96666666666667" type="curve" smooth="yes"/>
      <point x="424" y="192"/>
      <point x="367" y="273"/>
      <point x="366.53333333333336" y="393.05" type="curve" smooth="yes"/>
      <point x="367" y="511"/>
      <point x="424" y="599"/>
      <point x="529.2666666666667" y="679.6" type="curve" smooth="yes"/>
      <point x="694.5666666666666" y="794.8" type="line" smooth="yes"/>
      <point x="827" y="890"/>
      <point x="895" y="984"/>
      <point x="894.9666666666667" y="1148.5833333333333" type="curve" smooth="yes"/>
      <point x="895" y="1365"/>
      <point x="763" y="1486"/>
      <point x="542.2333333333333" y="1486.0" type="curve" smooth="yes"/>
      <point x="322" y="1486"/>
      <point x="178" y="1358"/>
      <point x="177.75" y="1129.55" type="curve" smooth="yes"/>
      <point x="178" y="995"/>
      <point x="233" y="905"/>
      <point x="365.65" y="709.3" type="curve" smooth="yes"/>
      <point x="836.55" y="0.0" type="line"/>
      <point x="1145.7166666666667" y="0.0" type="line"/>
      <point x="569.2833333333333" y="858.8166666666667" type="line" smooth="yes"/>
      <point x="479" y="995"/>
      <point x="464" y="1048"/>
      <point x="464.45" y="1130.5166666666667" type="curve" smooth="yes"/>
      <point x="464" y="1229"/>
      <point x="487" y="1280"/>
      <point x="542.185" y="1280.3166666666666" type="curve" smooth="yes"/>
      <point x="600" y="1280"/>
      <point x="620" y="1233"/>
      <point x="619.7166666666667" y="1140.0333333333333" type="curve" smooth="yes"/>
      <point x="620" y="1065"/>
      <point x="604" y="1016"/>
      <point x="541.0833333333334" y="966.9833333333333" type="curve" smooth="yes"/>
      <point x="375.5333333333333" y="849.1333333333333" type="line" smooth="yes"/>
      <point x="211" y="727"/>
      <point x="75" y="600"/>
    </contour>
  </outline>
</glyph>
<glyph name="quotesingle" format="2">
  <advance width="448"/>
  <unicode hex="0027"/>
  <outline>
    <contour>
      <point x="117.8965845504719" y="848.21846153846" type="line"/>
      <point x="329.14070723790866" y="848.21846153846" type="line"/>
      <point x="361.7929328140238" y="1284.38769230769" type="line"/>
      <point x="361.7929328140238" y="1456.0" type="line"/>
      <point x="86.50384615384505" y="1456.0" type="line"/>
      <point x="86.50384615384505" y="1284.38769230769" type="line"/>
    </contour>
  </outline>
</glyph>
<glyph name="parenleft" format="2">
  <advance width="746"/>
  <unicode hex="0028"/>
  <outline>
    <contour>
      <point x="600.5784797143766" y="-436.96666666666664" type="curve"/>
      <point x="600.5784797143766" y="-237.48218111002979" type="line"/>
      <point x="472" y="-136"/>
      <point x="395" y="37"/>
      <point x="395.30578740668653" y="508.0" type="curve" smooth="yes"/>
      <point x="395.30578740668653" y="532.0" type="line" smooth="yes"/>
      <point x="395" y="981"/>
      <point x="483" y="1178"/>
      <point x="600.0951463810433" y="1277.4821811100298" type="curve"/>
      <point x="600.0951463810433" y="1476.0" type="line"/>
      <point x="282" y="1331"/>
      <point x="108" y="1038"/>
      <point x="108.49615384615495" y="525.0" type="curve" smooth="yes"/>
      <point x="108.49615384615495" y="514.9405128205117" type="line" smooth="yes"/>
      <point x="108" y="-37"/>
      <point x="304" y="-302"/>
    </contour>
  </outline>
</glyph>
<glyph name="parenright" format="2">
  <advance width="746"/>
  <unicode hex="0029"/>
  <outline>
    <contour>
      <point x="145.49576923076995" y="-436.0" type="line"/>
      <point x="444" y="-299"/>
      <point x="638" y="-37"/>
      <point x="637.5780950989916" y="515.0" type="curve" smooth="yes"/>
      <point x="637.5780950989916" y="525.0594871794883" type="line" smooth="yes"/>
      <point x="638" y="1050"/>
      <point x="434" y="1337"/>
      <point x="145.49576923076995" y="1476.0" type="curve"/>
      <point x="145.49576923076995" y="1276.9988477766965" type="line"/>
      <point x="263" y="1178"/>
      <point x="350" y="981"/>
      <point x="349.56846153846004" y="532.0" type="curve" smooth="yes"/>
      <point x="349.56846153846004" y="508.0" type="line" smooth="yes"/>
      <point x="350" y="37"/>
      <point x="267" y="-147"/>
      <point x="145.49576923076995" y="-237.48218111002979" type="curve"/>
    </contour>
  </outline>
</glyph>
<glyph name="asterisk" format="2">
  <advance width="1005"/>
  <unicode hex="002A"/>
  <outline>
    <contour>
      <point x="44.169230769230026" y="1049.2223076923099" type="line"/>
      <point x="328.97206329113766" y="991.1689743589766" type="line"/>
      <point x="134.29480889321417" y="775.2569230769249" type="line"/>
      <point x="356.7498558909439" y="617.7530769230751" type="line"/>
      <point x="502.35780701071036" y="870.0057692307699" type="line"/>
      <point x="647.965758130477" y="617.7530769230751" type="line"/>
      <point x="871.6802923076901" y="775.2569230769249" type="line"/>
      <point x="675.6245763713065" y="991.1689743589766" type="line"/>
      <point x="960.4274088932141" y="1049.2817948717934" type="line"/>
      <point x="875.7655410580974" y="1306.731153846155" type="line"/>
      <point x="610.8195711132737" y="1186.2634615384602" type="line"/>
      <point x="640.0320118143468" y="1476.0" type="line"/>
      <point x="364.505140668614" y="1476.0" type="line"/>
      <point x="395.03655572865875" y="1186.2634615384602" type="line"/>
      <point x="128.8905857838351" y="1306.6716666666666" type="line"/>
    </contour>
  </outline>
</glyph>
<glyph name="plus" format="2">
  <advance width="1205"/>
  <unicode hex="002B"/>
  <outline>
    <contour>
      <point x="175.76897254138115" y="557.8471544952923" type="line"/>
      <point x="1029.1647632586805" y="557.8471544952923" type="line"/>
      <point x="1029.1647632586805" y="792.9297442388813" type="line"/>
      <point x="175.76897254138115" y="792.9297442388813" type="line"/>
    </contour>
    <contour>
      <point x="463.62864673807184" y="149.96892275235382" type="line"/>
      <point x="740.344371113273" y="149.96892275235382" type="line"/>
      <point x="740.344371113273" y="1198.0310772476462" type="line"/>
      <point x="463.62864673807184" y="1198.0310772476462" type="line"/>
    </contour>
  </outline>
</glyph>
<glyph name="comma" format="2">
  <advance width="624"/>
  <unicode hex="002C"/>
  <outline>
    <contour>
      <point x="86.6291966893889" y="-224.3389743589766" type="curve"/>
      <point x="249.2351334631595" y="-320.4032051282066" type="line"/>
      <point x="374" y="-219"/>
      <point x="455" y="-78"/>
      <point x="454.5815153521561" y="90.12333333333333" type="curve" smooth="yes"/>
      <point x="454.479792275236" y="299.59743589743664" type="line"/>
      <point x="193.73025641025828" y="299.59743589743664" type="line"/>
      <point x="193.73025641025828" y="89.885384615385" type="line" smooth="yes"/>
      <point x="194" y="-40"/>
      <point x="158" y="-133"/>
    </contour>
  </outline>
</glyph>
<glyph name="hyphen" format="2">
  <advance width="539"/>
  <unicode hex="002D"/>
  <outline>
    <contour>
      <point x="27.166153846154963" y="507.8997435897417" type="line"/>
      <point x="511.27362187601585" y="507.8997435897417" type="line"/>
      <point x="511.27362187601585" y="752.705384615385" type="line"/>
      <point x="27.166153846154963" y="752.705384615385" type="line"/>
    </contour>
  </outline>
</glyph>
<glyph name="period" format="2">
  <advance width="639"/>
  <unicode hex="002E"/>
  <outline>
    <contour>
      <point x="134.74769230769007" y="150.524615384615" type="curve" smooth="yes"/>
      <point x="135" y="55"/>
      <point x="199" y="-22"/>
      <point x="314.4954625121709" y="-21.821538461539948" type="curve" smooth="yes"/>
      <point x="432" y="-22"/>
      <point x="495" y="55"/>
      <point x="494.66707887049677" y="149.32461538461502" type="curve" smooth="yes"/>
      <point x="495" y="247"/>
      <point x="432" y="323"/>
      <point x="315.69546251217093" y="322.81128205128164" type="curve" smooth="yes"/>
      <point x="199" y="323"/>
      <point x="135" y="246"/>
    </contour>
  </outline>
</glyph>
<glyph name="slash" format="2">
  <advance width="474"/>
  <unicode hex="002F"/>
  <outline>
    <contour>
      <point x="-104.59" y="-125.0" type="line"/>
      <point x="140.5802645245057" y="-125.0" type="line"/>
      <point x="575.4825722168108" y="1456.0" type="line"/>
      <point x="330.4647435897417" y="1456.0" type="line"/>
    </contour>
  </outline>
</glyph>
<glyph name="zero" format="2">
  <advance width="1014"/>
  <unicode hex="0030"/>
  <outline>
    <contour>
      <point x="81.9" y="437.01666666666665" type="line" smooth="yes"/>
      <point x="82" y="163"/>
      <point x="227" y="-30"/>
      <point x="506.7166666666667" y="-29.516666666666666" type="curve" smooth="yes"/>
      <point x="783" y="-30"/>
      <point x="932" y="163"/>
      <point x="932.5" y="437.01666666666665" type="curve" smooth="yes"/>
      <point x="932.5" y="1018.9833333333333" type="line" smooth="yes"/>
      <point x="932" y="1297"/>
      <point x="785" y="1486"/>
      <point x="506.7166666666667" y="1485.5166666666667" type="curve" smooth="yes"/>
      <point x="227" y="1486"/>
      <point x="82" y="1296"/>
      <point x="81.9" y="1018.9833333333333" type="curve" smooth="yes"/>
    </contour>
    <contour>
      <point x="385.2" y="409.6166666666667" type="curve" smooth="yes"/>
      <point x="385.2" y="1045.4166666666667" type="line" smooth="yes"/>
      <point x="385" y="1170"/>
      <point x="418" y="1261"/>
      <point x="507.68333333333334" y="1260.5333333333333" type="curve" smooth="yes"/>
      <point x="598" y="1261"/>
      <point x="630" y="1170"/>
      <point x="630.1666666666667" y="1045.4166666666667" type="curve" smooth="yes"/>
      <point x="630.1666666666667" y="409.6166666666667" type="line" smooth="yes"/>
      <point x="630" y="289"/>
      <point x="598" y="195"/>
      <point x="507.68333333333334" y="194.98333333333335" type="curve" smooth="yes"/>
      <point x="417" y="195"/>
      <point x="385" y="289"/>
    </contour>
  </outline>
</glyph>
<glyph name="one" format="2">
  <advance width="1014"/>
  <unicode hex="0031"/>
  <outline>
    <contour>
      <point x="432.68333333333334" y="0.0" type="line"/>
      <point x="727.2166666666667" y="0.0" type="line"/>
      <point x="727.2166666666667" y="1472.6166666666666" type="line"/>
      <point x="583.1166666666667" y="1472.6166666666666" type="line"/>
      <point x="172.36666666666667" y="1302.2" type="line"/>
      <point x="172.36666666666667" y="1058.15" type="line"/>
      <point x="432.68333333333334" y="1157.0833333333333" type="line"/>
    </contour>
  </outline>
</glyph>
<glyph name="two" format="2">
  <advance width="1014"/>
  <unicode hex="0032"/>
  <outline>
    <contour>
      <point x="85.28333333333333" y="0.0" type="line"/>
      <point x="939.85" y="0.0" type="line"/>
      <point x="939.85" y="220.01666666666665" type="line"/>
      <point x="434.2833333333333" y="220.01666666666665" type="line"/>
      <point x="724.85" y="673.5" type="line" smooth="yes"/>
      <point x="851" y="865"/>
      <point x="917" y="957"/>
      <point x="916.7166666666667" y="1116.6166666666666" type="curve" smooth="yes"/>
      <point x="916" y="1350"/>
      <point x="781" y="1486"/>
      <point x="501.6333333333333" y="1485.5166666666667" type="curve" smooth="yes"/>
      <point x="242" y="1486"/>
      <point x="79" y="1320"/>
      <point x="79.0" y="1019.3666666666667" type="curve" smooth="yes"/>
      <point x="79.0" y="986.1666666666666" type="line"/>
      <point x="376.3666666666667" y="986.1666666666666" type="line"/>
      <point x="376.3666666666667" y="1014.05" type="line" smooth="yes"/>
      <point x="376" y="1202"/>
      <point x="423" y="1261"/>
      <point x="503.08333333333337" y="1260.5333333333333" type="curve" smooth="yes"/>
      <point x="581" y="1261"/>
      <point x="615" y="1211"/>
      <point x="615.4833333333333" y="1105.1666666666667" type="curve" smooth="yes"/>
      <point x="615" y="1006"/>
      <point x="569" y="927"/>
      <point x="493.2833333333333" y="807.6" type="curve" smooth="yes"/>
      <point x="85.28333333333333" y="179.66666666666669" type="line"/>
    </contour>
  </outline>
</glyph>
<glyph name="three" format="2">
  <advance width="1014"/>
  <unicode hex="0033"/>
  <outline>
    <contour>
      <point x="58.18333333333333" y="400.78333333333336" type="line" smooth="yes"/>
      <point x="58" y="144"/>
      <point x="212" y="-30"/>
      <point x="483.5833333333333" y="-29.516666666666666" type="curve" smooth="yes"/>
      <point x="770" y="-30"/>
      <point x="929" y="138"/>
      <point x="928.5166666666667" y="412.1166666666667" type="curve" smooth="yes"/>
      <point x="929" y="594"/>
      <point x="841" y="722"/>
      <point x="696.6166666666667" y="762.0" type="curve"/>
      <point x="696.6166666666667" y="766.0" type="line"/>
      <point x="830" y="825"/>
      <point x="889" y="951"/>
      <point x="888.55" y="1109.1833333333334" type="curve" smooth="yes"/>
      <point x="889" y="1316"/>
      <point x="762" y="1486"/>
      <point x="488.4166666666667" y="1486.0" type="curve" smooth="yes"/>
      <point x="232" y="1486"/>
      <point x="79" y="1303"/>
      <point x="79.13333333333333" y="1071.9666666666667" type="curve" smooth="yes"/>
      <point x="79.13333333333333" y="1057.6166666666666" type="line"/>
      <point x="371.05" y="1057.6166666666666" type="line"/>
      <point x="371.05" y="1072.9333333333334" type="line" smooth="yes"/>
      <point x="371" y="1197"/>
      <point x="411" y="1264"/>
      <point x="481.65" y="1263.9166666666667" type="curve" smooth="yes"/>
      <point x="557" y="1264"/>
      <point x="590" y="1197"/>
      <point x="589.6666666666667" y="1071.3833333333334" type="curve" smooth="yes"/>
      <point x="590" y="938"/>
      <point x="545" y="863"/>
      <point x="451.48333333333335" y="863.0833333333334" type="curve" smooth="yes"/>
      <point x="346.1333333333333" y="863.0833333333334" type="line"/>
      <point x="346.1333333333333" y="649.1166666666667" type="line"/>
      <point x="459.31666666666666" y="649.1166666666667" type="line" smooth="yes"/>
      <point x="573" y="649"/>
      <point x="626" y="575"/>
      <point x="626.1833333333334" y="424.1666666666667" type="curve" smooth="yes"/>
      <point x="626" y="266"/>
      <point x="582" y="192"/>
      <point x="487.93333333333334" y="192.08333333333331" type="curve" smooth="yes"/>
      <point x="394" y="192"/>
      <point x="351" y="270"/>
      <point x="351.06666666666666" y="402.7166666666667" type="curve" smooth="yes"/>
      <point x="351.06666666666666" y="422.8666666666667" type="line"/>
      <point x="58.18333333333333" y="422.8666666666667" type="line"/>
    </contour>
  </outline>
</glyph>
<glyph name="four" format="2">
  <advance width="1014"/>
  <unicode hex="0034"/>
  <outline>
    <contour>
      <point x="552.8" y="0.0" type="line"/>
      <point x="840.1666666666666" y="0.0" type="line"/>
      <point x="840.1666666666666" y="1456.0" type="line"/>
      <point x="584.55" y="1456.0" type="line"/>
      <point x="34.483333333333334" y="511.51666666666665" type="line"/>
      <point x="34.483333333333334" y="321.2" type="line"/>
      <point x="966.8" y="321.2" type="line"/>
      <point x="966.8" y="543.5333333333333" type="line"/>
      <point x="698.9166666666667" y="543.5333333333333" type="line"/>
      <point x="643.8" y="542.5666666666667" type="line"/>
      <point x="310.45" y="542.5666666666667" type="line"/>
      <point x="542.7333333333333" y="975.2666666666667" type="line"/>
      <point x="554.25" y="975.2666666666667" type="line"/>
      <point x="554.25" y="441.8" type="line"/>
      <point x="552.8" y="394.6166666666667" type="line"/>
    </contour>
  </outline>
</glyph>
<glyph name="five" format="2">
  <advance width="1014"/>
  <unicode hex="0035"/>
  <outline>
    <contour>
      <point x="68.03333333333333" y="390.1333333333333" type="line" smooth="yes"/>
      <point x="68" y="146"/>
      <point x="230" y="-30"/>
      <point x="503.06666666666666" y="-29.516666666666666" type="curve" smooth="yes"/>
      <point x="786" y="-30"/>
      <point x="936" y="169"/>
      <point x="936.2333333333333" y="481.43333333333334" type="curve" smooth="yes"/>
      <point x="936" y="785"/>
      <point x="783" y="962"/>
      <point x="556.55" y="961.6833333333333" type="curve" smooth="yes"/>
      <point x="482" y="962"/>
      <point x="434" y="945"/>
      <point x="391.3833333333333" y="910.2166666666667" type="curve"/>
      <point x="423.06666666666666" y="1223.1166666666668" type="line"/>
      <point x="871.0166666666667" y="1222.15" type="line"/>
      <point x="871.0166666666667" y="1456.0" type="line"/>
      <point x="187.26666666666665" y="1456.0" type="line"/>
      <point x="115.18333333333334" y="730.0" type="line"/>
      <point x="335.5333333333333" y="627.3333333333334" type="line"/>
      <point x="370" y="686"/>
      <point x="424" y="734"/>
      <point x="503.78333333333336" y="733.7666666666667" type="curve" smooth="yes"/>
      <point x="595" y="734"/>
      <point x="639" y="643"/>
      <point x="639.35" y="467.4166666666667" type="curve" smooth="yes"/>
      <point x="639" y="289"/>
      <point x="599" y="192"/>
      <point x="502.58333333333337" y="192.08333333333331" type="curve" smooth="yes"/>
      <point x="413" y="192"/>
      <point x="362" y="266"/>
      <point x="362.3" y="391.5833333333333" type="curve" smooth="yes"/>
      <point x="362.3" y="410.76666666666665" type="line"/>
      <point x="68.03333333333333" y="410.76666666666665" type="line"/>
    </contour>
  </outline>
</glyph>
<glyph name="six" format="2">
  <advance width="1014"/>
  <unicode hex="0036"/>
  <outline>
    <contour>
      <point x="67.15" y="607.7166666666667" type="line" smooth="yes"/>
      <point x="67" y="153"/>
      <point x="261" y="-30"/>
      <point x="521.75" y="-29.516666666666666" type="curve" smooth="yes"/>
      <point x="800" y="-30"/>
      <point x="956" y="176"/>
      <point x="955.5666666666666" y="477.05" type="curve" smooth="yes"/>
      <point x="956" y="772"/>
      <point x="817" y="967"/>
      <point x="579.9333333333333" y="966.65" type="curve" smooth="yes"/>
      <point x="364" y="967"/>
      <point x="257" y="774"/>
      <point x="256.76666666666665" y="480.43333333333334" type="curve"/>
      <point x="355.06666666666666" y="480.43333333333334" type="line"/>
      <point x="355" y="653"/>
      <point x="418" y="753"/>
      <point x="519.8166666666666" y="752.7833333333333" type="curve" smooth="yes"/>
      <point x="621" y="753"/>
      <point x="659" y="650"/>
      <point x="658.6833333333334" y="472.7" type="curve" smooth="yes"/>
      <point x="659" y="288"/>
      <point x="625" y="190"/>
      <point x="522.2333333333333" y="189.66666666666669" type="curve" smooth="yes"/>
      <point x="411" y="190"/>
      <point x="359" y="296"/>
      <point x="359.1333333333333" y="599.65" type="curve" smooth="yes"/>
      <point x="359.1333333333333" y="647.7166666666667" type="line" smooth="yes"/>
      <point x="359" y="1072"/>
      <point x="511" y="1242"/>
      <point x="798.95" y="1241.6833333333334" type="curve" smooth="yes"/>
      <point x="820.6666666666666" y="1241.6833333333334" type="line"/>
      <point x="820.6666666666666" y="1471.5" type="line"/>
      <point x="797.5" y="1471.5" type="line" smooth="yes"/>
      <point x="313" y="1472"/>
      <point x="67" y="1151"/>
      <point x="67.15" y="643.5166666666667" type="curve" smooth="yes"/>
    </contour>
  </outline>
</glyph>
<glyph name="seven" format="2">
  <advance width="1014"/>
  <unicode hex="0037"/>
  <outline>
    <contour>
      <point x="167.3" y="0.0" type="line"/>
      <point x="477.43333333333334" y="0.0" type="line"/>
      <point x="926.4166666666667" y="1259.6666666666667" type="line"/>
      <point x="926.4166666666667" y="1456.0" type="line"/>
      <point x="56.68333333333334" y="1456.0" type="line"/>
      <point x="56.68333333333334" y="1216.8666666666666" type="line"/>
      <point x="626.75" y="1216.8666666666666" type="line"/>
    </contour>
  </outline>
</glyph>
<glyph name="eight" format="2">
  <advance width="999"/>
  <unicode hex="0038"/>
  <outline>
    <contour>
      <point x="58.96666666666667" y="387.93333333333334" type="curve" smooth="yes"/>
      <point x="59" y="123"/>
      <point x="220" y="-30"/>
      <point x="498.0333333333333" y="-29.516666666666666" type="curve" smooth="yes"/>
      <point x="776" y="-30"/>
      <point x="940" y="123"/>
      <point x="939.6833333333334" y="387.93333333333334" type="curve" smooth="yes"/>
      <point x="940" y="581"/>
      <point x="841" y="701"/>
      <point x="712.4666666666667" y="746.0" type="curve"/>
      <point x="712.4666666666667" y="750.0" type="line"/>
      <point x="830" y="811"/>
      <point x="900" y="926"/>
      <point x="900.4" y="1092.8" type="curve" smooth="yes"/>
      <point x="900" y="1322"/>
      <point x="754" y="1486"/>
      <point x="498.0333333333333" y="1485.5166666666667" type="curve" smooth="yes"/>
      <point x="242" y="1486"/>
      <point x="99" y="1325"/>
      <point x="98.73333333333333" y="1093.2833333333333" type="curve" smooth="yes"/>
      <point x="99" y="926"/>
      <point x="178" y="809"/>
      <point x="295.4" y="750.0" type="curve"/>
      <point x="295.4" y="746.0" type="line"/>
      <point x="168" y="697"/>
      <point x="59" y="579"/>
    </contour>
    <contour>
      <point x="356.26666666666665" y="409.3" type="curve" smooth="yes"/>
      <point x="356" y="551"/>
      <point x="388" y="640"/>
      <point x="498.0333333333333" y="640.3666666666667" type="curve" smooth="yes"/>
      <point x="606" y="640"/>
      <point x="641" y="551"/>
      <point x="641.1833333333334" y="409.3" type="curve" smooth="yes"/>
      <point x="641" y="273"/>
      <point x="599" y="184"/>
      <point x="498.0333333333333" y="184.35" type="curve" smooth="yes"/>
      <point x="395" y="184"/>
      <point x="356" y="273"/>
    </contour>
    <contour>
      <point x="385.75" y="1063.2166666666667" type="curve" smooth="yes"/>
      <point x="386" y="1187"/>
      <point x="410" y="1271"/>
      <point x="498.0333333333333" y="1271.1666666666667" type="curve" smooth="yes"/>
      <point x="584" y="1271"/>
      <point x="613" y="1187"/>
      <point x="612.9" y="1063.2166666666667" type="curve" smooth="yes"/>
      <point x="613" y="935"/>
      <point x="589" y="849"/>
      <point x="498.0333333333333" y="849.15" type="curve" smooth="yes"/>
      <point x="406" y="849"/>
      <point x="386" y="935"/>
    </contour>
  </outline>
</glyph>
<glyph name="nine" format="2">
  <advance width="1014"/>
  <unicode hex="0039"/>
  <outline>
    <contour>
      <point x="58.83333333333333" y="970.1" type="curve" smooth="yes"/>
      <point x="59" y="678"/>
      <point x="199" y="486"/>
      <point x="434.4666666666667" y="485.6666666666667" type="curve" smooth="yes"/>
      <point x="650" y="486"/>
      <point x="759" y="676"/>
      <point x="758.8333333333334" y="966.7166666666667" type="curve"/>
      <point x="659.3333333333334" y="966.7166666666667" type="line"/>
      <point x="659" y="796"/>
      <point x="597" y="700"/>
      <point x="494.5833333333333" y="699.5333333333333" type="curve" smooth="yes"/>
      <point x="393" y="700"/>
      <point x="357" y="801"/>
      <point x="356.9166666666667" y="974.45" type="curve" smooth="yes"/>
      <point x="357" y="1156"/>
      <point x="389" y="1252"/>
      <point x="492.1666666666667" y="1252.3166666666666" type="curve" smooth="yes"/>
      <point x="604" y="1252"/>
      <point x="655" y="1146"/>
      <point x="655.2666666666667" y="842.3333333333334" type="curve" smooth="yes"/>
      <point x="655.2666666666667" y="794.2666666666667" type="line" smooth="yes"/>
      <point x="655" y="370"/>
      <point x="503" y="200"/>
      <point x="215.45" y="200.3" type="curve" smooth="yes"/>
      <point x="193.73333333333335" y="200.3" type="line"/>
      <point x="193.73333333333335" y="-29.516666666666666" type="line"/>
      <point x="216.9" y="-29.516666666666666" type="line" smooth="yes"/>
      <point x="702" y="-30"/>
      <point x="947" y="291"/>
      <point x="947.25" y="798.4666666666667" type="curve" smooth="yes"/>
      <point x="947.25" y="834.2666666666667" type="line" smooth="yes"/>
      <point x="947" y="1289"/>
      <point x="755" y="1472"/>
      <point x="492.65" y="1471.5" type="curve" smooth="yes"/>
      <point x="214" y="1472"/>
      <point x="59" y="1269"/>
    </contour>
  </outline>
</glyph>
<glyph name="colon" format="2">
  <advance width="654"/>
  <unicode hex="003A"/>
  <outline>
    <contour>
      <point x="151.35743589743663" y="142.06333333333333" type="curve" smooth="yes"/>
      <point x="151" y="52"/>
      <point x="213" y="-22"/>
      <point x="326.9864980850373" y="-21.821538461539948" type="curve" smooth="yes"/>
      <point x="440" y="-22"/>
      <point x="503" y="51"/>
      <point x="502.77677052905113" y="142.06333333333333" type="curve" smooth="yes"/>
      <point x="503" y="232"/>
      <point x="440" y="305"/>
      <point x="326.82543654657724" y="305.2864102564084" type="curve" smooth="yes"/>
      <point x="213" y="305"/>
      <point x="151" y="232"/>
    </contour>
    <contour>
      <point x="151.35743589743663" y="922.5710256410234" type="curve" smooth="yes"/>
      <point x="151" y="832"/>
      <point x="213" y="759"/>
      <point x="326.82543654657724" y="759.1694871794883" type="curve" smooth="yes"/>
      <point x="440" y="759"/>
      <point x="503" y="832"/>
      <point x="502.77677052905113" y="922.5710256410234" type="curve" smooth="yes"/>
      <point x="503" y="1013"/>
      <point x="440" y="1086"/>
      <point x="326.9864980850372" y="1086.1418051282067" type="curve" smooth="yes"/>
      <point x="213" y="1086"/>
      <point x="151" y="1013"/>
    </contour>
  </outline>
</glyph>
<glyph name="semicolon" format="2">
  <advance width="654"/>
  <unicode hex="003B"/>
  <outline>
    <contour>
      <point x="105.14793911068051" y="-224.45794871794834" type="curve"/>
      <point x="266.5641322947094" y="-320.4032051282066" type="line"/>
      <point x="389" y="-220"/>
      <point x="462" y="-78"/>
      <point x="461.87271528724295" y="90.6094871794883" type="curve" smooth="yes"/>
      <point x="461.7286075949379" y="287.40999999999997" type="line"/>
      <point x="213.09252190847" y="287.40999999999997" type="line"/>
      <point x="213.270537293085" y="89.17153846153995" type="line" smooth="yes"/>
      <point x="214" y="-40"/>
      <point x="176" y="-133"/>
    </contour>
    <contour>
      <point x="154.62923076923002" y="922.5710256410234" type="curve" smooth="yes"/>
      <point x="155" y="833"/>
      <point x="215" y="759"/>
      <point x="325.85876987991054" y="759.1694871794883" type="curve" smooth="yes"/>
      <point x="437" y="759"/>
      <point x="498" y="833"/>
      <point x="497.57164232391955" y="922.5710256410234" type="curve" smooth="yes"/>
      <point x="498" y="1013"/>
      <point x="437" y="1086"/>
      <point x="326.0198314183706" y="1086.1418051282067" type="curve" smooth="yes"/>
      <point x="215" y="1086"/>
      <point x="155" y="1013"/>
    </contour>
  </outline>
</glyph>
<glyph name="less" format="2">
  <advance width="1096"/>
  <unicode hex="003C"/>
  <outline>
    <contour>
      <point x="885.9821979227523" y="169.1658834793898" type="line"/>
      <point x="885.9821979227523" y="434.2107189224278" type="line"/>
      <point x="481.41984544628366" y="670.8193670886076" type="line"/>
      <point x="885.9821979227523" y="907.8667332035054" type="line"/>
      <point x="885.9821979227523" y="1183.997011684518" type="line"/>
      <point x="197.9917715676728" y="785.5548962999027" type="line"/>
      <point x="197.9917715676728" y="567.0726142486205" type="line"/>
    </contour>
  </outline>
</glyph>
<glyph name="equal" format="2">
  <advance width="1099"/>
  <unicode hex="003D"/>
  <outline>
    <contour>
      <point x="213.4116728334972" y="358.0408276533582" type="line"/>
      <point x="885.1503005517685" y="358.0408276533582" type="line"/>
      <point x="885.1503005517685" y="575.8307951963637" type="line"/>
      <point x="213.4116728334972" y="575.8307951963637" type="line"/>
    </contour>
    <contour>
      <point x="213.4116728334972" y="789.5872963323598" type="line"/>
      <point x="885.1503005517685" y="789.5872963323598" type="line"/>
      <point x="885.1503005517685" y="1007.3772638753651" type="line"/>
      <point x="213.4116728334972" y="1007.3772638753651" type="line"/>
    </contour>
  </outline>
</glyph>
<glyph name="greater" format="2">
  <advance width="1096"/>
  <unicode hex="003E"/>
  <outline>
    <contour>
      <point x="207.92927043167802" y="169.1658834793898" type="line"/>
      <point x="895.9196967867576" y="567.6079988640053" type="line"/>
      <point x="895.9196967867576" y="786.0902809152873" type="line"/>
      <point x="207.92927043167802" y="1183.997011684518" type="line"/>
      <point x="207.92927043167802" y="918.9521762414801" type="line"/>
      <point x="612.4916229081467" y="682.3435280753002" type="line"/>
      <point x="207.92927043167802" y="445.29616196040246" type="line"/>
    </contour>
  </outline>
</glyph>
<glyph name="question" format="2">
  <advance width="1091"/>
  <unicode hex="003F"/>
  <outline>
    <contour>
      <point x="324.38962560857016" y="138.584820512822" type="curve" smooth="yes"/>
      <point x="324" y="50"/>
      <point x="388" y="-22"/>
      <point x="502.08763439142984" y="-22.0" type="curve" smooth="yes"/>
      <point x="618" y="-22"/>
      <point x="679" y="50"/>
      <point x="679.0206431742944" y="138.584820512822" type="curve" smooth="yes"/>
      <point x="679" y="227"/>
      <point x="617" y="299"/>
      <point x="500.88763439142986" y="298.68630769230583" type="curve" smooth="yes"/>
      <point x="388" y="299"/>
      <point x="324" y="227"/>
    </contour>
    <contour>
      <point x="135.95625641025566" y="1051.028192307694" type="line"/>
      <point x="424.47366488153267" y="1051.028192307694" type="line"/>
      <point x="424.4666666666667" y="1080.6833333333334" type="line" smooth="yes"/>
      <point x="424" y="1212"/>
      <point x="455" y="1259"/>
      <point x="524.95" y="1259.1" type="curve" smooth="yes"/>
      <point x="599" y="1259"/>
      <point x="627" y="1209"/>
      <point x="627.3666666666667" y="1074.3666666666666" type="curve" smooth="yes"/>
      <point x="627" y="957"/>
      <point x="588" y="905"/>
      <point x="491.6" y="816.5666666666667" type="curve" smooth="yes"/>
      <point x="370" y="689"/>
      <point x="351" y="597"/>
      <point x="350.734894118795" y="440.3089230769223" type="curve" smooth="yes"/>
      <point x="350.734894118795" y="426.9367435897443" type="line"/>
      <point x="643.6178347614415" y="426.9367435897443" type="line"/>
      <point x="643.6178347614415" y="438.8671025641003" type="line" smooth="yes"/>
      <point x="644" y="517"/>
      <point x="647" y="617"/>
      <point x="729.263378117494" y="687.7144358974336" type="curve" smooth="yes"/>
      <point x="829" y="774"/>
      <point x="924" y="892"/>
      <point x="924.1050992340147" y="1080.6381025641003" type="curve" smooth="yes"/>
      <point x="924" y="1343"/>
      <point x="764" y="1476"/>
      <point x="526.8851264199939" y="1476.0" type="curve" smooth="yes"/>
      <point x="293" y="1476"/>
      <point x="136" y="1348"/>
      <point x="135.95625641025566" y="1086.0159871794885" type="curve" smooth="yes"/>
    </contour>
  </outline>
</glyph>
<glyph name="at" format="2">
  <advance width="1903"/>
  <unicode hex="0040"/>
  <outline>
    <contour>
      <point x="547.0841740344064" y="400.0" type="curve" smooth="yes"/>
      <point x="547" y="159"/>
      <point x="664" y="0"/>
      <point x="852.224170139563" y="0.0" type="curve" smooth="yes"/>
      <point x="941" y="0"/>
      <point x="1022" y="70"/>
      <point x="1069.4082246673174" y="180.0" type="curve"/>
      <point x="1110" y="71"/>
      <point x="1206" y="0"/>
      <point x="1332.439598896463" y="0.0" type="curve" smooth="yes"/>
      <point x="1595" y="0"/>
      <point x="1798" y="261"/>
      <point x="1797.7876920480376" y="650.0" type="curve" smooth="yes"/>
      <point x="1798" y="1119"/>
      <point x="1471" y="1486"/>
      <point x="985.2219906523844" y="1486.0" type="curve" smooth="yes"/>
      <point x="507" y="1486"/>
      <point x="107" y="1023"/>
      <point x="107.33743589743663" y="460.0" type="curve" smooth="yes"/>
      <point x="107" y="-103"/>
      <point x="470" y="-446"/>
      <point x="907.4510932164878" y="-446.0" type="curve" smooth="yes"/>
      <point x="1045" y="-446"/>
      <point x="1132" y="-415"/>
      <point x="1202.5010932164878" y="-356.59487179487326" type="curve"/>
      <point x="1202.5010932164878" y="-152.9894871794883" type="line"/>
      <point x="1137" y="-201"/>
      <point x="1045" y="-242"/>
      <point x="907.4510932164878" y="-242.394615384615" type="curve" smooth="yes"/>
      <point x="605" y="-242"/>
      <point x="385" y="7"/>
      <point x="385.42096890619973" y="456.96615384615495" type="curve" smooth="yes"/>
      <point x="385" y="917"/>
      <point x="643" y="1283"/>
      <point x="985.2219906523844" y="1283.4653846153851" type="curve" smooth="yes"/>
      <point x="1329" y="1283"/>
      <point x="1526" y="988"/>
      <point x="1525.9196790652409" y="646.966153846155" type="curve" smooth="yes"/>
      <point x="1526" y="359"/>
      <point x="1456" y="170"/>
      <point x="1356.069679065241" y="170.4317948717934" type="curve" smooth="yes"/>
      <point x="1305" y="171"/>
      <point x="1270" y="216"/>
      <point x="1288.9145508601093" y="350.0" type="curve" smooth="yes"/>
      <point x="1377.381217526776" y="946.0" type="line"/>
      <point x="1195.5218624472577" y="946.0" type="line"/>
      <point x="1150" y="998"/>
      <point x="1073" y="1052"/>
      <point x="987.186073638429" y="1052.0" type="curve" smooth="yes"/>
      <point x="753" y="1052"/>
      <point x="547" y="778"/>
    </contour>
    <contour>
      <point x="805.7421188575161" y="401.606153846155" type="curve" smooth="yes"/>
      <point x="806" y="670"/>
      <point x="887" y="869"/>
      <point x="997.1235531321014" y="869.0541025641032" type="curve" smooth="yes"/>
      <point x="1035" y="869"/>
      <point x="1075" y="855"/>
      <point x="1103.702912106458" y="827.2817948717934" type="curve"/>
      <point x="1046.4433888997069" y="415.6166666666667" type="line" smooth="yes"/>
      <point x="1020" y="249"/>
      <point x="962" y="191"/>
      <point x="893.2050675754643" y="191.25435897435673" type="curve" smooth="yes"/>
      <point x="838" y="191"/>
      <point x="806" y="263"/>
    </contour>
  </outline>
</glyph>
<glyph name="A" format="2">
  <advance width="1059"/>
  <unicode hex="0041"/>
  <outline>
    <contour>
      <point x="-16.9389743589725" y="0.0" type="line"/>
      <point x="251.050200954234" y="0.0" type="line"/>
      <point x="484.6045286465447" y="1031.8004358974335" type="line" smooth="yes"/>
      <point x="496" y="1078"/>
      <point x="505" y="1120"/>
      <point x="511.261220954234" y="1158.7995641025664" type="curve"/>
      <point x="517.423861979878" y="1158.7995641025664" type="line"/>
      <point x="524" y="1120"/>
      <point x="532" y="1078"/>
      <point x="541.6865030055171" y="1031.7944871794887" type="curve" smooth="yes"/>
      <point x="773.122876955535" y="0.0" type="line"/>
      <point x="1083.2032906199274" y="0.0" type="line"/>
      <point x="702.0661687439167" y="1463.118589743589" type="line"/>
      <point x="358.18044368711634" y="1463.118589743589" type="line"/>
    </contour>
    <contour>
      <point x="205" y="325" type="line"/>
      <point x="840.2262807140517" y="325.37707692307765" type="line"/>
      <point x="784.7703747289842" y="545.7336410256391" type="line"/>
      <point x="260.43231028886834" y="545.7336410256391" type="line"/>
    </contour>
  </outline>
</glyph>
<glyph name="B" format="2">
  <advance width="1167"/>
  <unicode hex="0042"/>
  <outline>
    <contour>
      <point x="155.5" y="0.0" type="line"/>
      <point x="626.391728529697" y="0.0" type="line" smooth="yes"/>
      <point x="902" y="0"/>
      <point x="1079" y="153"/>
      <point x="1079.1935876663438" y="417.2430769230751" type="curve" smooth="yes"/>
      <point x="1079" y="610"/>
      <point x="1002" y="730"/>
      <point x="882.7905107432638" y="763.9405128205117" type="curve"/>
      <point x="882.7905107432638" y="767.9405128205117" type="line"/>
      <point x="976" y="800"/>
      <point x="1039" y="910"/>
      <point x="1039.289997922752" y="1072.1517948717933" type="curve" smooth="yes"/>
      <point x="1039" y="1335"/>
      <point x="877" y="1456"/>
      <point x="597.4624977604669" y="1456.0" type="curve" smooth="yes"/>
      <point x="155.5" y="1456.0" type="line"/>
    </contour>
    <contour>
      <point x="445.41762596559374" y="209.18205128205165" type="line"/>
      <point x="445.41762596559374" y="656.2479487179484" type="line"/>
      <point x="615.2676259655937" y="656.2479487179484" type="line" smooth="yes"/>
      <point x="734" y="656"/>
      <point x="787" y="570"/>
      <point x="786.8660875040587" y="434.1030769230751" type="curve" smooth="yes"/>
      <point x="787" y="295"/>
      <point x="734" y="209"/>
      <point x="615.2676259655937" y="209.18205128205165" type="curve" smooth="yes"/>
    </contour>
    <contour>
      <point x="445.41762596559374" y="855.0525641025633" type="line"/>
      <point x="445.41762596559374" y="1245.50923076923" type="line"/>
      <point x="586.8142926322604" y="1245.50923076923" type="line" smooth="yes"/>
      <point x="703" y="1246"/>
      <point x="750" y="1176"/>
      <point x="749.7583951963636" y="1050.9297435897417" type="curve" smooth="yes"/>
      <point x="750" y="926"/>
      <point x="703" y="855"/>
      <point x="586.8142926322604" y="855.0525641025633" type="curve" smooth="yes"/>
    </contour>
  </outline>
</glyph>
<glyph name="C" format="2">
  <advance width="1158"/>
  <unicode hex="0043"/>
  <outline>
    <contour>
      <point x="100.01666666666667" y="682.4833333333333" type="line" smooth="yes"/>
      <point x="100" y="193"/>
      <point x="321" y="-30"/>
      <point x="647.7166666666667" y="-29.516666666666666" type="curve" smooth="yes"/>
      <point x="955" y="-30"/>
      <point x="1152" y="163"/>
      <point x="1144.8833333333332" y="480.1666666666667" type="curve" smooth="yes"/>
      <point x="1144.635" y="505.6333333333333" type="line"/>
      <point x="848.6516666666666" y="505.6333333333333" type="line"/>
      <point x="848.9" y="480.1666666666667" type="line"/>
      <point x="852" y="343"/>
      <point x="784" y="198"/>
      <point x="645.7433333333333" y="197.6" type="curve" smooth="yes"/>
      <point x="485" y="198"/>
      <point x="401" y="326"/>
      <point x="400.6666666666667" y="602.5833333333334" type="curve" smooth="yes"/>
      <point x="400.6666666666667" y="854.6166666666667" type="line" smooth="yes"/>
      <point x="401" y="1136"/>
      <point x="475" y="1258"/>
      <point x="644.8166666666666" y="1257.9166666666667" type="curve" smooth="yes"/>
      <point x="801" y="1258"/>
      <point x="844" y="1130"/>
      <point x="847.9666666666667" y="977.2833333333333" type="curve" smooth="yes"/>
      <point x="848.2166666666667" y="949.8833333333333" type="line"/>
      <point x="1144.2" y="949.8833333333333" type="line"/>
      <point x="1143.95" y="973.4166666666666" type="line" smooth="yes"/>
      <point x="1137" y="1292"/>
      <point x="955" y="1486"/>
      <point x="647.7166666666667" y="1485.5166666666667" type="curve" smooth="yes"/>
      <point x="323" y="1486"/>
      <point x="100" y="1269"/>
      <point x="100.01666666666667" y="773.5166666666667" type="curve" smooth="yes"/>
    </contour>
  </outline>
</glyph>
<glyph name="D" format="2">
  <advance width="1256"/>
  <unicode hex="0044"/>
  <outline>
    <contour>
      <point x="155.5" y="0.0" type="line"/>
      <point x="560.5363271794887" y="0.0" type="line" smooth="yes"/>
      <point x="899" y="0"/>
      <point x="1154" y="242"/>
      <point x="1154.4903200649146" y="682.5063846153835" type="curve" smooth="yes"/>
      <point x="1154.4903200649146" y="773.9881025641004" type="line" smooth="yes"/>
      <point x="1154" y="1226"/>
      <point x="899" y="1456"/>
      <point x="560.5363271794887" y="1456.0" type="curve" smooth="yes"/>
      <point x="155.5" y="1456.0" type="line"/>
    </contour>
    <contour>
      <point x="447.1470451282055" y="220.14553846153885" type="line"/>
      <point x="447.1470451282055" y="1234.8654871794886" type="line"/>
      <point x="556.1811220512832" y="1234.8654871794886" type="line" smooth="yes"/>
      <point x="735" y="1235"/>
      <point x="855" y="1089"/>
      <point x="855.0681733333333" y="779.3025384615388" type="curve" smooth="yes"/>
      <point x="855.0681733333333" y="676.6736666666667" type="line" smooth="yes"/>
      <point x="855" y="367"/>
      <point x="735" y="220"/>
      <point x="556.1811220512832" y="220.14553846153885" type="curve" smooth="yes"/>
    </contour>
  </outline>
</glyph>
<glyph name="E" format="2">
  <advance width="1053"/>
  <unicode hex="0045"/>
  <outline>
    <contour>
      <point x="155.5" y="0.0" type="line"/>
      <point x="988.3736645245057" y="0.0" type="line"/>
      <point x="988.3736645245057" y="223.31769230769004" type="line"/>
      <point x="446.67557948717837" y="223.31769230769004" type="line"/>
      <point x="446.67557948717837" y="638.3805128205117" type="line"/>
      <point x="886.611613242454" y="638.3805128205117" type="line"/>
      <point x="886.611613242454" y="860.4071794871784" type="line"/>
      <point x="446.67557948717837" y="860.4071794871784" type="line"/>
      <point x="446.67557948717837" y="1231.4925641025634" type="line"/>
      <point x="977.7787927296325" y="1231.4925641025634" type="line"/>
      <point x="977.7787927296325" y="1456.0" type="line"/>
      <point x="155.5" y="1456.0" type="line"/>
    </contour>
  </outline>
</glyph>
<glyph name="F" format="2">
  <advance width="1016"/>
  <unicode hex="0046"/>
  <outline>
    <contour>
      <point x="155.5" y="0.0" type="line"/>
      <point x="448.4601948717934" y="0.0" type="line"/>
      <point x="448.4601948717934" y="592.5633333333334" type="line"/>
      <point x="896.1854593962992" y="592.5633333333334" type="line"/>
      <point x="896.1854593962992" y="812.8964102564084" type="line"/>
      <point x="448.4601948717934" y="812.8964102564084" type="line"/>
      <point x="448.4601948717934" y="1231.5520512820515" type="line"/>
      <point x="962.5218696527124" y="1231.5520512820515" type="line"/>
      <point x="962.5218696527124" y="1456.0" type="line"/>
      <point x="155.5" y="1456.0" type="line"/>
    </contour>
  </outline>
</glyph>
<glyph name="G" format="2">
  <advance width="1165"/>
  <unicode hex="0047"/>
  <outline>
    <contour>
      <point x="100.01666666666667" y="682.4833333333333" type="line" smooth="yes"/>
      <point x="100" y="163"/>
      <point x="324" y="-30"/>
      <point x="639.3" y="-29.516666666666666" type="curve" smooth="yes"/>
      <point x="904" y="-30"/>
      <point x="1039" y="61"/>
      <point x="1127.2166666666667" y="151.23333333333335" type="curve"/>
      <point x="1127.2166666666667" y="763.3" type="line"/>
      <point x="650.9833333333333" y="763.3" type="line"/>
      <point x="650.9833333333333" y="542.9166666666666" type="line"/>
      <point x="839.65" y="542.9166666666666" type="line"/>
      <point x="839.65" y="250.73333333333335" type="line"/>
      <point x="796" y="214"/>
      <point x="736" y="196"/>
      <point x="645.7833333333333" y="196.15" type="curve" smooth="yes"/>
      <point x="493" y="196"/>
      <point x="399" y="300"/>
      <point x="399.2166666666667" y="603.55" type="curve" smooth="yes"/>
      <point x="399.2166666666667" y="852.45" type="line" smooth="yes"/>
      <point x="399" y="1157"/>
      <point x="468" y="1258"/>
      <point x="625.7333333333333" y="1258.4" type="curve" smooth="yes"/>
      <point x="771" y="1258"/>
      <point x="833" y="1170"/>
      <point x="831.7166666666667" y="1020.1833333333333" type="curve" smooth="yes"/>
      <point x="831.7166666666667" y="1009.2166666666667" type="line"/>
      <point x="1126.7333333333333" y="1009.2166666666667" type="line"/>
      <point x="1126.7" y="1022.1016666666667" type="line" smooth="yes"/>
      <point x="1119" y="1307"/>
      <point x="950" y="1486"/>
      <point x="634.5166666666667" y="1485.5166666666667" type="curve" smooth="yes"/>
      <point x="329" y="1486"/>
      <point x="100" y="1263"/>
      <point x="100.01666666666667" y="773.5166666666667" type="curve" smooth="yes"/>
    </contour>
  </outline>
</glyph>
<glyph name="H" format="2">
  <advance width="1319"/>
  <unicode hex="0048"/>
  <outline>
    <contour>
      <point x="155.5" y="0.0" type="line"/>
      <point x="448.47250871794876" y="0.0" type="line"/>
      <point x="448.47250871794876" y="636.7903461538461" type="line"/>
      <point x="871.8757907692308" y="636.7903461538461" type="line"/>
      <point x="871.8757907692308" y="0.0" type="line"/>
      <point x="1164.7999661538463" y="0.0" type="line"/>
      <point x="1164.7999661538463" y="1456.0" type="line"/>
      <point x="871.8757907692308" y="1456.0" type="line"/>
      <point x="871.8757907692308" y="864.457141025641" type="line"/>
      <point x="448.47250871794876" y="864.457141025641" type="line"/>
      <point x="448.47250871794876" y="1456.0" type="line"/>
      <point x="155.5" y="1456.0" type="line"/>
    </contour>
  </outline>
</glyph>
<glyph name="I" format="2">
  <advance width="598"/>
  <unicode hex="0049"/>
  <outline>
    <contour>
      <point x="152.22384615384505" y="0.0" type="line"/>
      <point x="444.5789128205117" y="0.0" type="line"/>
      <point x="444.5789128205117" y="1456.0" type="line"/>
      <point x="152.22384615384505" y="1456.0" type="line"/>
    </contour>
  </outline>
</glyph>
<glyph name="J" format="2">
  <advance width="1009"/>
  <unicode hex="004A"/>
  <outline>
    <contour>
      <point x="25.0" y="446.8833333333333" type="line" smooth="yes"/>
      <point x="25" y="105"/>
      <point x="175" y="-30"/>
      <point x="444.0" y="-29.516666666666666" type="curve" smooth="yes"/>
      <point x="713" y="-30"/>
      <point x="862" y="133"/>
      <point x="861.8" y="485.4166666666667" type="curve" smooth="yes"/>
      <point x="861.8" y="1456.0" type="line"/>
      <point x="569.9166666666667" y="1456.0" type="line"/>
      <point x="569.9166666666667" y="424.2833333333333" type="line" smooth="yes"/>
      <point x="570" y="241"/>
      <point x="534" y="196"/>
      <point x="441.1" y="195.66666666666669" type="curve" smooth="yes"/>
      <point x="347" y="196"/>
      <point x="313" y="233"/>
      <point x="313.25" y="405.0833333333333" type="curve" smooth="yes"/>
      <point x="313.25" y="462.68333333333334" type="line"/>
      <point x="25.0" y="462.68333333333334" type="line"/>
    </contour>
  </outline>
</glyph>
<glyph name="K" format="2">
  <advance width="1127"/>
  <unicode hex="004B"/>
  <outline>
    <contour>
      <point x="155.5" y="0.0" type="line"/>
      <point x="448.4601948717934" y="0.0" type="line"/>
      <point x="448.4601948717934" y="518.3005128205117" type="line"/>
      <point x="1139.2748167478094" y="1456.0" type="line"/>
      <point x="847.7943524829608" y="1456.0" type="line"/>
      <point x="448.4601948717934" y="865.88846153846" type="line"/>
      <point x="448.4601948717934" y="1456.0" type="line"/>
      <point x="155.5" y="1456.0" type="line"/>
    </contour>
    <contour>
      <point x="825.2985299448231" y="0.0" type="line"/>
      <point x="1163.7489050308345" y="0.0" type="line"/>
      <point x="616.3743041869499" y="917.5796689386586" type="line"/>
      <point x="433.23218269393055" y="707.0203962999026" type="line"/>
    </contour>
  </outline>
</glyph>
<glyph name="L" format="2">
  <advance width="952"/>
  <unicode hex="004C"/>
  <outline>
    <contour>
      <point x="155.5" y="0.0" type="line"/>
      <point x="949.03070769231" y="0.0" type="line"/>
      <point x="949.03070769231" y="224.50743589743664" type="line"/>
      <point x="448.4601948717934" y="224.50743589743664" type="line"/>
      <point x="448.4601948717934" y="1456.0" type="line"/>
      <point x="155.5" y="1456.0" type="line"/>
    </contour>
  </outline>
</glyph>
<glyph name="M" format="2">
  <advance width="1546"/>
  <unicode hex="004D"/>
  <outline>
    <contour>
      <point x="155.5" y="0.0" type="line"/>
      <point x="395.1062656410275" y="0.0" type="line"/>
      <point x="395.1062656410275" y="868.5861288542696" type="line" smooth="yes"/>
      <point x="395" y="923"/>
      <point x="392" y="1000"/>
      <point x="388.9533333333333" y="1051.9666666666667" type="curve"/>
      <point x="397.0833333333333" y="1051.9666666666667" type="line"/>
      <point x="403" y="1000"/>
      <point x="416" y="923"/>
      <point x="429.46438102563917" y="868.5861288542696" type="curve" smooth="yes"/>
      <point x="629.8680342096717" y="0.0" type="line"/>
      <point x="875.1632015384612" y="0.0" type="line"/>
      <point x="1075.555989743589" y="868.6032596559552" type="line" smooth="yes"/>
      <point x="1088" y="923"/>
      <point x="1106" y="1000"/>
      <point x="1111.0516666666667" y="1051.9666666666667" type="curve"/>
      <point x="1118.7466666666667" y="1051.9666666666667" type="line"/>
      <point x="1117" y="1000"/>
      <point x="1111" y="923"/>
      <point x="1110.9548230769224" y="868.6032596559552" type="curve" smooth="yes"/>
      <point x="1110.9548230769224" y="0.0" type="line"/>
      <point x="1400.916649535864" y="0.0" type="line"/>
      <point x="1400.916649535864" y="1456.0" type="line"/>
      <point x="1005.4533758974337" y="1456.0" type="line"/>
      <point x="797.4666666666667" y="520.56" type="line" smooth="yes"/>
      <point x="786" y="467"/>
      <point x="781" y="421"/>
      <point x="774.8866666666667" y="355.7266666666667" type="curve"/>
      <point x="770.7366666666667" y="355.7266666666667" type="line"/>
      <point x="763" y="421"/>
      <point x="758" y="466"/>
      <point x="746.9" y="519.36" type="curve" smooth="yes"/>
      <point x="546.3526156442704" y="1456.0" type="line"/>
      <point x="155.5" y="1456.0" type="line"/>
    </contour>
  </outline>
</glyph>
<glyph name="N" format="2">
  <advance width="1256"/>
  <unicode hex="004E"/>
  <outline>
    <contour>
      <point x="155.5" y="0.0" type="line"/>
      <point x="405.2166666666667" y="0.0" type="line"/>
      <point x="405.2166666666667" y="889.2333333333333" type="line" smooth="yes"/>
      <point x="405" y="940"/>
      <point x="403" y="991"/>
      <point x="398.785" y="1042.2666666666667" type="curve"/>
      <point x="406.91333333333336" y="1042.2666666666667" type="line"/>
      <point x="415" y="990"/>
      <point x="430" y="948"/>
      <point x="443.49333333333334" y="906.8166666666666" type="curve" smooth="yes"/>
      <point x="761.6" y="0.0" type="line"/>
      <point x="1106.05" y="0.0" type="line"/>
      <point x="1106.05" y="1456.0" type="line"/>
      <point x="853.9333333333334" y="1456.87" type="line"/>
      <point x="853.9333333333334" y="564.8" type="line" smooth="yes"/>
      <point x="854" y="516"/>
      <point x="854" y="465"/>
      <point x="858.6816666666666" y="412.6" type="curve"/>
      <point x="851.0516666666667" y="412.6" type="line"/>
      <point x="841" y="467"/>
      <point x="819" y="526"/>
      <point x="809.2533333333333" y="558.7516666666667" type="curve" smooth="yes"/>
      <point x="492.7" y="1456.0" type="line"/>
      <point x="155.5" y="1456.0" type="line"/>
    </contour>
  </outline>
</glyph>
<glyph name="O" format="2">
  <advance width="1281"/>
  <unicode hex="004F"/>
  <outline>
    <contour>
      <point x="100.01666666666667" y="682.4833333333333" type="line" smooth="yes"/>
      <point x="100" y="196"/>
      <point x="314" y="-30"/>
      <point x="639.1833333333334" y="-29.516666666666666" type="curve" smooth="yes"/>
      <point x="964" y="-30"/>
      <point x="1180" y="196"/>
      <point x="1180.05" y="682.4833333333333" type="curve" smooth="yes"/>
      <point x="1180.05" y="773.5166666666667" type="line" smooth="yes"/>
      <point x="1180" y="1260"/>
      <point x="964" y="1486"/>
      <point x="639.1833333333334" y="1485.5166666666667" type="curve" smooth="yes"/>
      <point x="314" y="1486"/>
      <point x="100" y="1260"/>
      <point x="100.01666666666667" y="773.5166666666667" type="curve" smooth="yes"/>
    </contour>
    <contour>
      <point x="399.7" y="619.4166666666666" type="curve" smooth="yes"/>
      <point x="399.7" y="837.3" type="line" smooth="yes"/>
      <point x="400" y="1134"/>
      <point x="484" y="1258"/>
      <point x="639.1833333333334" y="1257.9166666666667" type="curve" smooth="yes"/>
      <point x="795" y="1258"/>
      <point x="880" y="1134"/>
      <point x="879.6500000000001" y="837.3" type="curve" smooth="yes"/>
      <point x="879.6500000000001" y="619.4166666666666" type="line" smooth="yes"/>
      <point x="880" y="323"/>
      <point x="795" y="198"/>
      <point x="639.1833333333334" y="197.6" type="curve" smooth="yes"/>
      <point x="484" y="198"/>
      <point x="400" y="323"/>
    </contour>
  </outline>
</glyph>
<glyph name="P" format="2">
  <advance width="1143"/>
  <unicode hex="0050"/>
  <outline>
    <contour>
      <point x="155.5" y="0.0" type="line"/>
      <point x="448.58333333333337" y="0.0" type="line"/>
      <point x="448.58333333333337" y="515.85" type="line"/>
      <point x="613.9833333333333" y="515.85" type="line" smooth="yes"/>
      <point x="907" y="516"/>
      <point x="1064" y="667"/>
      <point x="1064.1833333333334" y="987.6833333333333" type="curve" smooth="yes"/>
      <point x="1064" y="1309"/>
      <point x="906" y="1456"/>
      <point x="614.4666666666667" y="1456.0" type="curve" smooth="yes"/>
      <point x="155.5" y="1456.0" type="line"/>
    </contour>
    <contour>
      <point x="448.58333333333337" y="737.2" type="line"/>
      <point x="448.58333333333337" y="1234.4" type="line"/>
      <point x="587.4" y="1234.4" type="line" smooth="yes"/>
      <point x="728" y="1234"/>
      <point x="772" y="1137"/>
      <point x="771.5833333333334" y="987.2" type="curve" smooth="yes"/>
      <point x="772" y="838"/>
      <point x="728" y="737"/>
      <point x="587.4" y="737.2" type="curve" smooth="yes"/>
    </contour>
  </outline>
</glyph>
<glyph name="Q" format="2">
  <advance width="1281"/>
  <unicode hex="0051"/>
  <outline>
    <contour>
      <point x="100.007" y="682.4766410256392" type="line" smooth="yes"/>
      <point x="100" y="196"/>
      <point x="315" y="-30"/>
      <point x="639.6629159623483" y="-29.505512820511335" type="curve" smooth="yes"/>
      <point x="965" y="-30"/>
      <point x="1179" y="196"/>
      <point x="1179.0854985913682" y="682.4766410256392" type="curve" smooth="yes"/>
      <point x="1179.0854985913682" y="773.5233589743608" type="line" smooth="yes"/>
      <point x="1179" y="1260"/>
      <point x="965" y="1486"/>
      <point x="639.6629159623483" y="1485.5055128205113" type="curve" smooth="yes"/>
      <point x="315" y="1486"/>
      <point x="100" y="1260"/>
      <point x="100.007" y="773.5233589743608" type="curve" smooth="yes"/>
    </contour>
    <contour>
      <point x="399.7" y="612.25" type="curve" smooth="yes"/>
      <point x="399.7" y="843.2666666666667" type="line" smooth="yes"/>
      <point x="400" y="1141"/>
      <point x="484" y="1258"/>
      <point x="639.6629159623483" y="1257.9032820512832" type="curve" smooth="yes"/>
      <point x="796" y="1258"/>
      <point x="879" y="1141"/>
      <point x="878.6833333333334" y="843.2666666666667" type="curve" smooth="yes"/>
      <point x="878.6833333333334" y="612.25" type="line" smooth="yes"/>
      <point x="879" y="315"/>
      <point x="796" y="198"/>
      <point x="639.6629159623483" y="197.60223076923302" type="curve" smooth="yes"/>
      <point x="484" y="198"/>
      <point x="400" y="315"/>
    </contour>
    <contour>
      <point x="964.2511041869525" y="-278.50953846153885" type="line"/>
      <point x="1159.0441420188258" y="-87.11369230769417" type="line"/>
      <point x="780.547031197664" y="209.45266666666666" type="line"/>
      <point x="589.977095929891" y="23.0330256410275" type="line"/>
    </contour>
  </outline>
</glyph>
<glyph name="R" format="2">
  <advance width="1133"/>
  <unicode hex="0052"/>
  <outline>
    <contour>
      <point x="155.5" y="0.0" type="line"/>
      <point x="448.571019487178" y="0.0" type="line"/>
      <point x="448.571019487178" y="533.101179487178" type="line"/>
      <point x="590.0346488283028" y="533.101179487178" type="line" smooth="yes"/>
      <point x="884" y="533"/>
      <point x="1059" y="686"/>
      <point x="1059.1909247257365" y="998.7485128205113" type="curve" smooth="yes"/>
      <point x="1059" y="1309"/>
      <point x="886" y="1456"/>
      <point x="590.5231872898416" y="1456.0" type="curve" smooth="yes"/>
      <point x="155.5" y="1456.0" type="line"/>
    </contour>
    <contour>
      <point x="448.571019487178" y="751.941820512822" type="line"/>
      <point x="448.571019487178" y="1235.9404615384612" type="line"/>
      <point x="580.3709565206086" y="1235.9404615384612" type="line" smooth="yes"/>
      <point x="715" y="1236"/>
      <point x="767" y="1139"/>
      <point x="766.5615975462526" y="996.3236666666667" type="curve" smooth="yes"/>
      <point x="767" y="854"/>
      <point x="715" y="752"/>
      <point x="580.3709565206086" y="751.941820512822" type="curve" smooth="yes"/>
    </contour>
    <contour>
      <point x="783.4695936773782" y="0.0" type="line"/>
      <point x="1107.7619687763693" y="0.0" type="line"/>
      <point x="817.3494559558578" y="671.5352564102557" type="line"/>
      <point x="504.44190136968405" y="671.5352564102557" type="line"/>
    </contour>
  </outline>
</glyph>
<glyph name="S" format="2">
  <advance width="1098"/>
  <unicode hex="0053"/>
  <outline>
    <contour>
      <point x="74.55415384615533" y="400.97366666666665" type="line" smooth="yes"/>
      <point x="75" y="101"/>
      <point x="272" y="-30"/>
      <point x="557.3322374358996" y="-29.505512820511335" type="curve" smooth="yes"/>
      <point x="846" y="-30"/>
      <point x="1034" y="107"/>
      <point x="1033.9347560337535" y="393.8694245374878" type="curve" smooth="yes"/>
      <point x="1034" y="657"/>
      <point x="844" y="767"/>
      <point x="632.8833333333333" y="872.35" type="curve" smooth="yes"/>
      <point x="408" y="984"/>
      <point x="389" y="1036"/>
      <point x="389.3833333333333" y="1119.3816666666667" type="curve" smooth="yes"/>
      <point x="389" y="1197"/>
      <point x="435" y="1260"/>
      <point x="551.1666666666666" y="1260.3333333333333" type="curve" smooth="yes"/>
      <point x="662" y="1260"/>
      <point x="719" y="1181"/>
      <point x="718.6314938461553" y="1058.1367435897444" type="curve" smooth="yes"/>
      <point x="718.6314938461553" y="1024.947461538461" type="line"/>
      <point x="1012.1627953846165" y="1024.947461538461" type="line"/>
      <point x="1012.1627953846165" y="1061.520820512822" type="line" smooth="yes"/>
      <point x="1012" y="1326"/>
      <point x="830" y="1485"/>
      <point x="550.1992117948722" y="1485.4936153846165" type="curve" smooth="yes"/>
      <point x="269" y="1485"/>
      <point x="90" y="1344"/>
      <point x="90.10387203505451" y="1076.608882505681" type="curve" smooth="yes"/>
      <point x="91" y="830"/>
      <point x="271" y="716"/>
      <point x="489.58333333333337" y="616.45" type="curve" smooth="yes"/>
      <point x="705" y="518"/>
      <point x="736" y="480"/>
      <point x="735.6166666666667" y="372.1166666666667" type="curve" smooth="yes"/>
      <point x="736" y="265"/>
      <point x="673" y="195"/>
      <point x="556.837750256411" y="194.712269230767" type="curve" smooth="yes"/>
      <point x="440" y="195"/>
      <point x="373" y="263"/>
      <point x="373.41327589743366" y="404.3874871794887" type="curve" smooth="yes"/>
      <point x="373.41327589743366" y="438.5181538461553" type="line"/>
      <point x="74.55415384615533" y="438.5181538461553" type="line"/>
    </contour>
  </outline>
</glyph>
<glyph name="T" format="2">
  <advance width="1032"/>
  <unicode hex="0054"/>
  <outline>
    <contour>
      <point x="22.81025641025827" y="1231.4925641025634" type="line"/>
      <point x="369.6072476468703" y="1231.4925641025634" type="line"/>
      <point x="369.6072476468703" y="0.0" type="line"/>
      <point x="661.9623143135369" y="0.0" type="line"/>
      <point x="661.9623143135369" y="1231.4925641025634" type="line"/>
      <point x="1009.8403311911725" y="1231.4925641025634" type="line"/>
      <point x="1009.8403311911725" y="1456.0" type="line"/>
      <point x="22.81025641025827" y="1456.0" type="line"/>
    </contour>
  </outline>
</glyph>
<glyph name="U" format="2">
  <advance width="1240"/>
  <unicode hex="0055"/>
  <outline>
    <contour>
      <point x="138.08333333333334" y="531.8666666666667" type="line" smooth="yes"/>
      <point x="138" y="122"/>
      <point x="338" y="-30"/>
      <point x="620.5" y="-29.516666666666666" type="curve" smooth="yes"/>
      <point x="902" y="-30"/>
      <point x="1100" y="122"/>
      <point x="1099.7833333333333" y="531.8666666666667" type="curve" smooth="yes"/>
      <point x="1099.7833333333333" y="1456.0" type="line"/>
      <point x="813.95" y="1456.0" type="line"/>
      <point x="813.95" y="467.9166666666667" type="line" smooth="yes"/>
      <point x="814" y="266"/>
      <point x="746" y="198"/>
      <point x="622.9166666666666" y="197.6" type="curve" smooth="yes"/>
      <point x="499" y="198"/>
      <point x="429" y="264"/>
      <point x="429.48333333333335" y="467.9166666666667" type="curve" smooth="yes"/>
      <point x="429.48333333333335" y="1456.0" type="line"/>
      <point x="138.08333333333334" y="1456.0" type="line"/>
    </contour>
  </outline>
</glyph>
<glyph name="V" format="2">
  <advance width="998"/>
  <unicode hex="0056"/>
  <outline>
    <contour>
      <point x="-26.769230769230028" y="1456.0" type="line"/>
      <point x="331.9710256410234" y="-4.921282051281679" type="line"/>
      <point x="667.9781148328465" y="-4.921282051281679" type="line"/>
      <point x="1024.7850379097713" y="1456.0" type="line"/>
      <point x="751.3836775722157" y="1456.0" type="line"/>
      <point x="537.9100000000001" y="452.75" type="line" smooth="yes"/>
      <point x="530" y="416"/>
      <point x="522" y="372"/>
      <point x="519.015" y="323.5733333333333" type="curve"/>
      <point x="511.8833333333333" y="323.5733333333333" type="line"/>
      <point x="508" y="372"/>
      <point x="499" y="415"/>
      <point x="491.7733333333333" y="452.75" type="curve" smooth="yes"/>
      <point x="285.7156279779285" y="1456.0" type="line"/>
    </contour>
  </outline>
</glyph>
<glyph name="W" format="2">
  <advance width="1607"/>
  <unicode hex="0057"/>
  <outline>
    <contour>
      <point x="280.9316284453102" y="-4.218589743589" type="line"/>
      <point x="610.105330048686" y="-4.218589743589" type="line"/>
      <point x="784.705" y="995.45" type="line" smooth="yes"/>
      <point x="793" y="1045"/>
      <point x="796" y="1073"/>
      <point x="801.12" y="1121.5666666666666" type="curve"/>
      <point x="807.75" y="1121.5666666666666" type="line"/>
      <point x="813" y="1073"/>
      <point x="816" y="1045"/>
      <point x="824.9783333333334" y="995.45" type="curve" smooth="yes"/>
      <point x="998.8298968906204" y="-4.218589743589" type="line"/>
      <point x="1324.6312901525484" y="-4.218589743589" type="line"/>
      <point x="1576.1140481012653" y="1456.0" type="line"/>
      <point x="1326.2165978448543" y="1456.0" type="line"/>
      <point x="1198.3483333333334" y="464.58333333333337" type="line" smooth="yes"/>
      <point x="1192" y="415"/>
      <point x="1189" y="384"/>
      <point x="1184.3733333333334" y="333.07166666666666" type="curve"/>
      <point x="1178.2416666666666" y="333.07166666666666" type="line"/>
      <point x="1172" y="384"/>
      <point x="1169" y="415"/>
      <point x="1160.5616666666667" y="464.58333333333337" type="curve" smooth="yes"/>
      <point x="981.149689217786" y="1456.0" type="line"/>
      <point x="658.3471059136623" y="1456.0" type="line"/>
      <point x="491.07166666666666" y="463.1333333333333" type="line" smooth="yes"/>
      <point x="483" y="414"/>
      <point x="480" y="383"/>
      <point x="475.51" y="331.76666666666665" type="curve"/>
      <point x="469.87666666666667" y="331.76666666666665" type="line"/>
      <point x="466" y="383"/>
      <point x="462" y="414"/>
      <point x="455.25" y="463.1333333333333" type="curve" smooth="yes"/>
      <point x="313.7844505290507" y="1456.0" type="line"/>
      <point x="30.674102564100334" y="1456.0" type="line"/>
    </contour>
  </outline>
</glyph>
<glyph name="X" format="2">
  <advance width="1010"/>
  <unicode hex="0058"/>
  <outline>
    <contour>
      <point x="4.216666666666665" y="0.0" type="line"/>
      <point x="278.06372606296577" y="0.0" type="line"/>
      <point x="567.4729568321958" y="664.9641025641033" type="line"/>
      <point x="622.0538623823447" y="664.9641025641033" type="line"/>
      <point x="978.9343752028565" y="1456.0" type="line"/>
      <point x="714.2706491398907" y="1456.0" type="line"/>
      <point x="446.64436708860904" y="817.6017948717933" type="line"/>
      <point x="389.3920512820516" y="817.6017948717933" type="line"/>
    </contour>
    <contour>
      <point x="21.695128205126718" y="1456.0" type="line"/>
      <point x="386.573846153845" y="655.9964102564084" type="line"/>
      <point x="387.4741025641033" y="655.9964102564084" type="line"/>
      <point x="675.6424358974366" y="0.0" type="line"/>
      <point x="1004.8897598182415" y="0.0" type="line"/>
      <point x="621.5212982797814" y="821.9517948717934" type="line"/>
      <point x="620.4686059720865" y="821.9517948717934" type="line"/>
      <point x="344.63770853618973" y="1456.0" type="line"/>
    </contour>
  </outline>
</glyph>
<glyph name="Y" format="2">
  <advance width="1024"/>
  <unicode hex="0059"/>
  <outline>
    <contour>
      <point x="366.24983923401464" y="0.0" type="line"/>
      <point x="659.8153459006813" y="0.0" type="line"/>
      <point x="659.8153459006813" y="534.8148717948721" type="line"/>
      <point x="1023.1717015254802" y="1456.0" type="line"/>
      <point x="751.9506038169409" y="1456.0" type="line"/>
      <point x="573.565" y="942.9666666666667" type="line" smooth="yes"/>
      <point x="560" y="903"/>
      <point x="545" y="850"/>
      <point x="534.015" y="809.5550000000001" type="curve"/>
      <point x="526.3883333333333" y="809.5550000000001" type="line"/>
      <point x="515" y="850"/>
      <point x="500" y="905"/>
      <point x="486.88666666666666" y="942.9666666666667" type="curve" smooth="yes"/>
      <point x="312.31807920155734" y="1456.0" type="line"/>
      <point x="-8.664743589744333" y="1456.0" type="line"/>
      <point x="366.24983923401464" y="518.838563777993" type="line"/>
    </contour>
  </outline>
</glyph>
<glyph name="Z" format="2">
  <advance width="933"/>
  <unicode hex="005A"/>
  <outline>
    <contour>
      <point x="7.505641025643257" y="0.0" type="line"/>
      <point x="929.6896849074963" y="0.0" type="line"/>
      <point x="929.6896849074963" y="223.31769230769004" type="line"/>
      <point x="368.6106787406706" y="223.31769230769004" type="line"/>
      <point x="896.9758387536513" y="1265.8292307692302" type="line"/>
      <point x="896.9758387536513" y="1456.0" type="line"/>
      <point x="20.160000000000004" y="1456.0" type="line"/>
      <point x="20.160000000000004" y="1231.4925641025634" type="line"/>
      <point x="536.1658838039593" y="1231.4925641025634" type="line"/>
      <point x="7.505641025643257" y="188.98102564102342" type="line"/>
    </contour>
  </outline>
</glyph>
<glyph name="bracketleft" format="2">
  <advance width="669"/>
  <unicode hex="005B"/>
  <outline>
    <contour>
      <point x="139.8358974358967" y="-310.0" type="line"/>
      <point x="579.6329548847789" y="-310.0" type="line"/>
      <point x="579.6329548847789" y="-93.76153846153994" type="line"/>
      <point x="419.8338523206756" y="-93.76153846153994" type="line"/>
      <point x="419.8338523206756" y="1239.7615384615399" type="line"/>
      <point x="579.6329548847789" y="1239.7615384615399" type="line"/>
      <point x="579.6329548847789" y="1456.0" type="line"/>
      <point x="139.8358974358967" y="1456.0" type="line"/>
    </contour>
  </outline>
</glyph>
<glyph name="backslash" format="2">
  <advance width="475"/>
  <unicode hex="005C"/>
  <outline>
    <contour>
      <point x="-112.67935897435675" y="1456.0" type="line"/>
      <point x="336.875384615385" y="-125.0" type="line"/>
      <point x="586.7256491398907" y="-125.0" type="line"/>
      <point x="138.64231580655735" y="1456.0" type="line"/>
    </contour>
  </outline>
</glyph>
<glyph name="bracketright" format="2">
  <advance width="669"/>
  <unicode hex="005D"/>
  <outline>
    <contour>
      <point x="529.1463482635519" y="-310.0" type="line"/>
      <point x="529.1463482635519" y="1456.0" type="line"/>
      <point x="89.34929081466967" y="1456.0" type="line"/>
      <point x="89.34929081466967" y="1239.7615384615399" type="line"/>
      <point x="249.148393378773" y="1239.7615384615399" type="line"/>
      <point x="249.148393378773" y="-93.76153846153994" type="line"/>
      <point x="89.34929081466967" y="-93.76153846153994" type="line"/>
      <point x="89.34929081466967" y="-310.0" type="line"/>
    </contour>
  </outline>
</glyph>
<glyph name="asciicircum" format="2">
  <advance width="1009"/>
  <unicode hex="005E"/>
  <outline>
    <contour>
      <point x="4.476923076924937" y="720.0" type="line"/>
      <point x="338.4930931515747" y="720.0" type="line"/>
      <point x="505.4052645245057" y="1168.320384615385" type="line"/>
      <point x="671.8935897435916" y="720.0" type="line"/>
      <point x="1005.9097598182415" y="720.0" type="line"/>
      <point x="647.7764264849081" y="1456.0" type="line"/>
      <point x="363.0935897435916" y="1456.0" type="line"/>
    </contour>
  </outline>
</glyph>
<glyph name="underscore" format="2">
  <advance width="672"/>
  <unicode hex="005F"/>
  <outline>
    <contour>
      <point x="0.0" y="-208.68871794871833" type="line"/>
      <point x="671.8215384615398" y="-208.68871794871833" type="line"/>
      <point x="671.8215384615398" y="3.5307692307699483" type="line"/>
      <point x="0.0" y="3.5307692307699483" type="line"/>
    </contour>
  </outline>
</glyph>
<glyph name="grave" format="2">
  <advance width="960"/>
  <unicode hex="0060"/>
  <outline>
    <contour>
      <point x="524.9300000000001" y="1182.7333333333333" type="line"/>
      <point x="689.67" y="1298.3216666666667" type="line"/>
      <point x="448.19166666666666" y="1628.2733333333333" type="line"/>
      <point x="226.12333333333333" y="1491.76" type="line"/>
    </contour>
  </outline>
</glyph>
<glyph name="a" format="2">
  <advance width="1022"/>
  <unicode hex="0061"/>
  <outline>
    <contour>
      <point x="66.99333333333334" y="315.1483333333333" type="curve" smooth="yes"/>
      <point x="67" y="77"/>
      <point x="197" y="-20"/>
      <point x="370.35333333333335" y="-19.951666666666668" type="curve" smooth="yes"/>
      <point x="512" y="-20"/>
      <point x="598" y="47"/>
      <point x="632.6516666666666" y="122.84833333333333" type="curve"/>
      <point x="639" y="78"/>
      <point x="650" y="28"/>
      <point x="660.8516666666667" y="-0.43499999999999994" type="curve"/>
      <point x="940.7183333333334" y="-0.43499999999999994" type="line"/>
      <point x="940.7183333333334" y="15.565" type="line"/>
      <point x="918" y="70"/>
      <point x="903" y="150"/>
      <point x="902.685" y="236.18166666666667" type="curve" smooth="yes"/>
      <point x="902.685" y="736.1916666666667" type="line" smooth="yes"/>
      <point x="903" y="1008"/>
      <point x="759" y="1113"/>
      <point x="515.0266666666666" y="1113.465" type="curve" smooth="yes"/>
      <point x="274" y="1113"/>
      <point x="113" y="976"/>
      <point x="112.62666666666667" y="776.4816666666667" type="curve" smooth="yes"/>
      <point x="112.62666666666667" y="761.3316666666667" type="line"/>
      <point x="392.4266666666667" y="761.3316666666667" type="line"/>
      <point x="392.4266666666667" y="776.4816666666667" type="line" smooth="yes"/>
      <point x="394" y="856"/>
      <point x="428" y="918"/>
      <point x="506.635" y="917.5816666666667" type="curve" smooth="yes"/>
      <point x="589" y="918"/>
      <point x="619" y="856"/>
      <point x="618.985" y="752.4316666666666" type="curve" smooth="yes"/>
      <point x="618.985" y="676.115" type="line"/>
      <point x="465.82666666666665" y="676.115" type="line" smooth="yes"/>
      <point x="224" y="676"/>
      <point x="67" y="561"/>
    </contour>
    <contour>
      <point x="351.225" y="329.53333333333336" type="curve" smooth="yes"/>
      <point x="351" y="459"/>
      <point x="408" y="503"/>
      <point x="503.83166666666665" y="502.95" type="curve" smooth="yes"/>
      <point x="618.55" y="502.95" type="line"/>
      <point x="618.55" y="363.1666666666667" type="line" smooth="yes"/>
      <point x="619" y="229"/>
      <point x="543" y="175"/>
      <point x="463.2" y="175.4" type="curve" smooth="yes"/>
      <point x="390" y="175"/>
      <point x="351" y="221"/>
    </contour>
  </outline>
</glyph>
<glyph name="b" format="2">
  <advance width="1072"/>
  <unicode hex="0062"/>
  <outline>
    <contour>
      <point x="121.03" y="0.0" type="line"/>
      <point x="392.74666666666667" y="0.0" type="line"/>
      <point x="398.0966666666667" y="101.11666666666667" type="line"/>
      <point x="401.21333333333337" y="101.11666666666667" type="line"/>
      <point x="440" y="28"/>
      <point x="533" y="-20"/>
      <point x="640.12" y="-20.0" type="curve" smooth="yes"/>
      <point x="864" y="-20"/>
      <point x="999" y="201"/>
      <point x="998.6666666666666" y="526.9166666666666" type="curve" smooth="yes"/>
      <point x="998.6666666666666" y="558.9166666666666" type="line" smooth="yes"/>
      <point x="999" y="883"/>
      <point x="858" y="1105"/>
      <point x="637.5583333333334" y="1104.8666666666666" type="curve" smooth="yes"/>
      <point x="539" y="1105"/>
      <point x="458" y="1066"/>
      <point x="404.73" y="993.3666666666667" type="curve"/>
      <point x="404.73" y="1531.1666666666667" type="line"/>
      <point x="121.03" y="1531.1666666666667" type="line"/>
    </contour>
    <contour>
      <point x="404.73" y="326.2166666666667" type="curve"/>
      <point x="404.73" y="758.1666666666666" type="line"/>
      <point x="420" y="816"/>
      <point x="487" y="887"/>
      <point x="559.125" y="886.6166666666667" type="curve"/>
      <point x="654" y="887"/>
      <point x="708" y="795"/>
      <point x="708.0666666666666" y="607.9666666666667" type="curve" smooth="yes"/>
      <point x="708.0666666666666" y="476.4166666666667" type="line" smooth="yes"/>
      <point x="708" y="289"/>
      <point x="654" y="197"/>
      <point x="556.2583333333333" y="197.28333333333333" type="curve" smooth="yes"/>
      <point x="476" y="197"/>
      <point x="426" y="255"/>
    </contour>
  </outline>
</glyph>
<glyph name="c" format="2">
  <advance width="939"/>
  <unicode hex="0063"/>
  <outline>
    <contour>
      <point x="73.4" y="526.4333333333333" type="line" smooth="yes"/>
      <point x="73" y="163"/>
      <point x="249" y="-30"/>
      <point x="512.9333333333334" y="-30.0" type="curve" smooth="yes"/>
      <point x="783" y="-30"/>
      <point x="924" y="144"/>
      <point x="923.5166666666667" y="365.68333333333334" type="curve" smooth="yes"/>
      <point x="923.5166666666667" y="377.93333333333334" type="line"/>
      <point x="647.75" y="377.93333333333334" type="line"/>
      <point x="647.75" y="367.1333333333333" type="line" smooth="yes"/>
      <point x="648" y="269"/>
      <point x="620" y="183"/>
      <point x="511.54833333333335" y="182.93333333333334" type="curve" smooth="yes"/>
      <point x="408" y="183"/>
      <point x="364" y="275"/>
      <point x="364.0" y="474.48333333333335" type="curve" smooth="yes"/>
      <point x="364.0" y="610.3833333333333" type="line" smooth="yes"/>
      <point x="364" y="810"/>
      <point x="421" y="900"/>
      <point x="518.9166666666666" y="899.7666666666667" type="curve" smooth="yes"/>
      <point x="617" y="900"/>
      <point x="648" y="824"/>
      <point x="648.2333333333333" y="718.7" type="curve" smooth="yes"/>
      <point x="648.2333333333333" y="705.9666666666667" type="line"/>
      <point x="924.4833333333333" y="705.9666666666667" type="line"/>
      <point x="923.0333333333333" y="723.5333333333333" type="line" smooth="yes"/>
      <point x="912" y="946"/>
      <point x="779" y="1114"/>
      <point x="522.5333333333333" y="1114.3833333333334" type="curve" smooth="yes"/>
      <point x="246" y="1114"/>
      <point x="73" y="921"/>
      <point x="73.4" y="558.4333333333333" type="curve" smooth="yes"/>
    </contour>
  </outline>
</glyph>
<glyph name="d" format="2">
  <advance width="1072"/>
  <unicode hex="0064"/>
  <outline>
    <contour>
      <point x="73.28846153846006" y="526.1089794871784" type="line" smooth="yes"/>
      <point x="73" y="202"/>
      <point x="210" y="-20"/>
      <point x="443.2881892242772" y="-20.0" type="curve" smooth="yes"/>
      <point x="544" y="-20"/>
      <point x="638" y="30"/>
      <point x="670.9111987341785" y="104.033769230767" type="curve"/>
      <point x="673.5419295034067" y="104.033769230767" type="line"/>
      <point x="678.8986218111008" y="0.0" type="line"/>
      <point x="950.5830776760772" y="0.0" type="line"/>
      <point x="950.5830776760772" y="1531.186" type="line"/>
      <point x="667.856673093151" y="1531.186" type="line"/>
      <point x="667.856673093151" y="993.8513087179499" type="line"/>
      <point x="628" y="1061"/>
      <point x="547" y="1104"/>
      <point x="446.8171522557605" y="1103.9198984615389" type="curve" smooth="yes"/>
      <point x="227" y="1104"/>
      <point x="73" y="882"/>
      <point x="73.28846153846006" y="558.1089794871784" type="curve" smooth="yes"/>
    </contour>
    <contour>
      <point x="363.51666666666665" y="475.93333333333334" type="curve" smooth="yes"/>
      <point x="363.51666666666665" y="607.9666666666667" type="line" smooth="yes"/>
      <point x="364" y="795"/>
      <point x="419" y="887"/>
      <point x="520.8833333333333" y="887.1" type="curve" smooth="yes"/>
      <point x="596" y="887"/>
      <point x="643" y="836"/>
      <point x="666.9016666666666" y="767.8333333333334" type="curve"/>
      <point x="666.9016666666666" y="316.55" type="line"/>
      <point x="642" y="249"/>
      <point x="589" y="197"/>
      <point x="519.9166666666666" y="197.28333333333333" type="curve" smooth="yes"/>
      <point x="421" y="197"/>
      <point x="364" y="288"/>
    </contour>
  </outline>
</glyph>
<glyph name="e" format="2">
  <advance width="974"/>
  <unicode hex="0065"/>
  <outline>
    <contour>
      <point x="72.965" y="526.4333333333333" type="line" smooth="yes"/>
      <point x="73" y="169"/>
      <point x="239" y="-30"/>
      <point x="535.55" y="-30.483333333333334" type="curve" smooth="yes"/>
      <point x="731" y="-30"/>
      <point x="869" y="58"/>
      <point x="927.1233333333333" y="203.18333333333334" type="curve"/>
      <point x="711.8533333333334" y="316.5866666666667" type="line"/>
      <point x="672" y="241"/>
      <point x="619" y="182"/>
      <point x="522.5833333333334" y="182.45" type="curve" smooth="yes"/>
      <point x="401" y="182"/>
      <point x="352" y="271"/>
      <point x="351.74833333333333" y="475.45" type="curve" smooth="yes"/>
      <point x="351.74833333333333" y="609.9" type="line" smooth="yes"/>
      <point x="352" y="815"/>
      <point x="404" y="907"/>
      <point x="510.81" y="906.7666666666667" type="curve" smooth="yes"/>
      <point x="622" y="907"/>
      <point x="656" y="809"/>
      <point x="656.0733333333334" y="666.7666666666667" type="curve" smooth="yes"/>
      <point x="656.0733333333334" y="652.3166666666667" type="line"/>
      <point x="254.515" y="652.3166666666667" type="line"/>
      <point x="254.515" y="472.8666666666667" type="line"/>
      <point x="930.1566666666666" y="472.8666666666667" type="line"/>
      <point x="930.1566666666666" y="575.95" type="line" smooth="yes"/>
      <point x="930" y="934"/>
      <point x="772" y="1114"/>
      <point x="515.6666666666666" y="1114.3833333333334" type="curve" smooth="yes"/>
      <point x="249" y="1114"/>
      <point x="73" y="915"/>
      <point x="72.965" y="558.4333333333333" type="curve" smooth="yes"/>
    </contour>
  </outline>
</glyph>
<glyph name="f" format="2">
  <advance width="538"/>
  <unicode hex="0066"/>
  <outline>
    <contour>
      <point x="123.78035897436084" y="0.0" type="line"/>
      <point x="407.00125073677566" y="0.0" type="line"/>
      <point x="407.00125073677566" y="975.7976548717945" type="line"/>
      <point x="406.506763557287" y="997.2853215384612" type="line"/>
      <point x="406.506763557287" y="1161.81294871795" type="line" smooth="yes"/>
      <point x="407" y="1288"/>
      <point x="448" y="1335"/>
      <point x="515.3208917624148" y="1335.4355641025663" type="curve" smooth="yes"/>
      <point x="542" y="1335"/>
      <point x="571" y="1330"/>
      <point x="591.3137507367757" y="1323.818410256411" type="curve"/>
      <point x="599.167532788054" y="1533.8572051282056" type="line"/>
      <point x="570" y="1545"/>
      <point x="529" y="1551"/>
      <point x="478.26166666666666" y="1551.1666666666667" type="curve" smooth="yes"/>
      <point x="274" y="1551"/>
      <point x="124" y="1428"/>
      <point x="123.78035897436084" y="1159.3925641025662" type="curve" smooth="yes"/>
    </contour>
    <contour>
      <point x="14.870076923077669" y="874.6667958974336" type="line"/>
      <point x="546.396353300876" y="874.6667958974336" type="line"/>
      <point x="546.396353300876" y="1083.9198984615389" type="line"/>
      <point x="264.9988304965933" y="1083.9198984615389" type="line"/>
      <point x="235.8347022914655" y="1083.9198984615389" type="line"/>
      <point x="14.870076923077669" y="1083.9198984615389" type="line"/>
    </contour>
  </outline>
</glyph>
<glyph name="g" format="2">
  <advance width="1072"/>
  <unicode hex="0067"/>
  <outline>
    <contour>
      <point x="127.08666666666667" y="-301.7216666666667" type="line"/>
      <point x="209" y="-380"/>
      <point x="345" y="-437"/>
      <point x="500.78333333333336" y="-436.96666666666664" type="curve" smooth="yes"/>
      <point x="754" y="-437"/>
      <point x="951" y="-259"/>
      <point x="950.5533333333333" y="66.88333333333333" type="curve" smooth="yes"/>
      <point x="950.5533333333333" y="1083.9" type="line"/>
      <point x="678.3533333333334" y="1083.9" type="line"/>
      <point x="673.0033333333333" y="980.3666666666667" type="line"/>
      <point x="669.8866666666667" y="980.3666666666667" type="line"/>
      <point x="640" y="1044"/>
      <point x="553" y="1104"/>
      <point x="437.1666666666667" y="1103.9" type="curve" smooth="yes"/>
      <point x="217" y="1104"/>
      <point x="73" y="889"/>
      <point x="73.4" y="557.95" type="curve" smooth="yes"/>
      <point x="73.4" y="525.95" type="line" smooth="yes"/>
      <point x="73" y="186"/>
      <point x="211" y="-20"/>
      <point x="427.2216666666667" y="-19.516666666666666" type="curve" smooth="yes"/>
      <point x="543" y="-20"/>
      <point x="628" y="19"/>
      <point x="667.8199999999999" y="91.5" type="curve"/>
      <point x="667.8199999999999" y="41.75" type="line" smooth="yes"/>
      <point x="668" y="-132"/>
      <point x="592" y="-222"/>
      <point x="485.15" y="-222.0" type="curve" smooth="yes"/>
      <point x="379" y="-222"/>
      <point x="279" y="-162"/>
      <point x="224.35333333333332" y="-104.17166666666667" type="curve"/>
    </contour>
    <contour>
      <point x="363.51666666666665" y="471.1333333333333" type="curve" smooth="yes"/>
      <point x="363.51666666666665" y="603.1666666666666" type="line" smooth="yes"/>
      <point x="364" y="791"/>
      <point x="417" y="887"/>
      <point x="524.7883333333333" y="887.1" type="curve" smooth="yes"/>
      <point x="598" y="887"/>
      <point x="650" y="819"/>
      <point x="667.3366666666666" y="758.1666666666666" type="curve"/>
      <point x="667.3366666666666" y="319.93333333333334" type="line"/>
      <point x="657" y="255"/>
      <point x="599" y="197"/>
      <point x="515.8666666666667" y="197.28333333333333" type="curve" smooth="yes"/>
      <point x="418" y="197"/>
      <point x="364" y="283"/>
    </contour>
  </outline>
</glyph>
<glyph name="h" format="2">
  <advance width="1056"/>
  <unicode hex="0068"/>
  <outline>
    <contour>
      <point x="121.03" y="0.0" type="line"/>
      <point x="404.73" y="0.0" type="line"/>
      <point x="404.73" y="729.5" type="line"/>
      <point x="417" y="816"/>
      <point x="478" y="885"/>
      <point x="559.08" y="884.7833333333333" type="curve" smooth="yes"/>
      <point x="630" y="885"/>
      <point x="661" y="830"/>
      <point x="660.9533333333334" y="741.2833333333333" type="curve" smooth="yes"/>
      <point x="660.9533333333334" y="0.0" type="line"/>
      <point x="944.6533333333333" y="0.0" type="line"/>
      <point x="944.6533333333333" y="757.65" type="line" smooth="yes"/>
      <point x="945" y="988"/>
      <point x="831" y="1105"/>
      <point x="671.23" y="1104.8666666666666" type="curve" smooth="yes"/>
      <point x="529" y="1105"/>
      <point x="444" y="1037"/>
      <point x="404.24666666666667" y="935.6" type="curve"/>
      <point x="404.24666666666667" y="1531.1666666666667" type="line"/>
      <point x="121.03" y="1531.1666666666667" type="line"/>
    </contour>
  </outline>
</glyph>
<glyph name="i" format="2">
  <advance width="553"/>
  <unicode hex="0069"/>
  <outline>
    <contour>
      <point x="134.23648717948717" y="0.0" type="line"/>
      <point x="418.76048740019473" y="0.0" type="line"/>
      <point x="418.76048740019473" y="1084.0790861538462" type="line"/>
      <point x="134.23648717948717" y="1084.0790861538462" type="line"/>
    </contour>
    <contour>
      <point x="115.96848458292763" y="1355.6633846153845" type="curve" smooth="yes"/>
      <point x="116" y="1270"/>
      <point x="173" y="1205"/>
      <point x="276.3239370334307" y="1205.3927215189874" type="curve" smooth="yes"/>
      <point x="380" y="1205"/>
      <point x="437" y="1270"/>
      <point x="437.0437484582928" y="1355.6633846153845" type="curve" smooth="yes"/>
      <point x="437" y="1440"/>
      <point x="380" y="1505"/>
      <point x="276.63996267445634" y="1505.1882271989614" type="curve" smooth="yes"/>
      <point x="173" y="1505"/>
      <point x="116" y="1441"/>
    </contour>
  </outline>
</glyph>
<glyph name="j" format="2">
  <advance width="545"/>
  <unicode hex="006A"/>
  <outline>
    <contour>
      <point x="-34.82000000000001" y="-410.48333333333335" type="line"/>
      <point x="-9" y="-423"/>
      <point x="68" y="-436"/>
      <point x="107.63" y="-436.0" type="curve" smooth="yes"/>
      <point x="305" y="-436"/>
      <point x="421" y="-314"/>
      <point x="421.46333333333337" y="-66.8" type="curve" smooth="yes"/>
      <point x="421.46333333333337" y="1083.9" type="line"/>
      <point x="137.28" y="1083.9" type="line"/>
      <point x="137.28" y="-62.81666666666666" type="line" smooth="yes"/>
      <point x="137" y="-177"/>
      <point x="115" y="-221"/>
      <point x="60.13666666666667" y="-220.75" type="curve" smooth="yes"/>
      <point x="28" y="-221"/>
      <point x="-17" y="-209"/>
      <point x="-35.78666666666667" y="-200.75" type="curve"/>
    </contour>
    <contour>
      <point x="118.58" y="1355.65" type="curve" smooth="yes"/>
      <point x="119" y="1270"/>
      <point x="176" y="1205"/>
      <point x="279.13" y="1205.2" type="curve" smooth="yes"/>
      <point x="382" y="1205"/>
      <point x="440" y="1270"/>
      <point x="439.68" y="1355.65" type="curve" smooth="yes"/>
      <point x="440" y="1440"/>
      <point x="383" y="1505"/>
      <point x="279.61333333333334" y="1505.1333333333334" type="curve" smooth="yes"/>
      <point x="176" y="1505"/>
      <point x="119" y="1440"/>
    </contour>
  </outline>
</glyph>
<glyph name="k" format="2">
  <advance width="944"/>
  <unicode hex="006B"/>
  <outline>
    <contour>
      <point x="121.03" y="0.0" type="line"/>
      <point x="404.73" y="0.0" type="line"/>
      <point x="404.73" y="384.31666666666666" type="line"/>
      <point x="937.7666666666667" y="1084.3833333333334" type="line"/>
      <point x="622.9333333333333" y="1084.3833333333334" type="line"/>
      <point x="404.73" y="750.1" type="line"/>
      <point x="404.73" y="1531.1666666666667" type="line"/>
      <point x="121.03" y="1531.1666666666667" type="line"/>
    </contour>
    <contour>
      <point x="657.9666666666667" y="0.0" type="line"/>
      <point x="974.5166666666667" y="0.0" type="line"/>
      <point x="622.9583333333334" y="822.1166666666667" type="line"/>
      <point x="435.93833333333333" y="590.3183333333334" type="line"/>
    </contour>
  </outline>
</glyph>
<glyph name="l" format="2">
  <advance width="539"/>
  <unicode hex="006C"/>
  <outline>
    <contour>
      <point x="127.62907692307766" y="0.0" type="line"/>
      <point x="411.80919945472067" y="0.0" type="line"/>
      <point x="411.80919945472067" y="1531.186" type="line"/>
      <point x="127.62907692307766" y="1531.186" type="line"/>
    </contour>
  </outline>
</glyph>
<glyph name="m" format="2">
  <advance width="1558"/>
  <unicode hex="006D"/>
  <outline>
    <contour>
      <point x="121.03" y="0.0" type="line"/>
      <point x="404.73" y="0.0" type="line"/>
      <point x="404.73" y="785.2333333333333" type="line"/>
      <point x="422" y="833"/>
      <point x="474" y="885"/>
      <point x="539.2716666666666" y="884.7833333333333" type="curve" smooth="yes"/>
      <point x="594" y="885"/>
      <point x="641" y="841"/>
      <point x="641.2033333333334" y="766.25" type="curve" smooth="yes"/>
      <point x="641.2033333333334" y="0.0" type="line"/>
      <point x="925.7166666666667" y="0.0" type="line"/>
      <point x="925.7166666666667" y="785.2333333333333" type="line"/>
      <point x="934" y="836"/>
      <point x="985" y="885"/>
      <point x="1058.3583333333333" y="884.7833333333333" type="curve" smooth="yes"/>
      <point x="1116" y="884"/>
      <point x="1162" y="842"/>
      <point x="1162.19" y="766.75" type="curve" smooth="yes"/>
      <point x="1162.19" y="0.0" type="line"/>
      <point x="1446.7033333333334" y="0.0" type="line"/>
      <point x="1446.7033333333334" y="786.4833333333333" type="line" smooth="yes"/>
      <point x="1447" y="972"/>
      <point x="1333" y="1105"/>
      <point x="1160.3583333333333" y="1105.2533333333333" type="curve" smooth="yes"/>
      <point x="1032" y="1105"/>
      <point x="935" y="1026"/>
      <point x="886.6666666666666" y="929.7166666666667" type="curve"/>
      <point x="885.0" y="929.7166666666667" type="line"/>
      <point x="848" y="1040"/>
      <point x="757" y="1105"/>
      <point x="637.475" y="1105.2533333333333" type="curve" smooth="yes"/>
      <point x="535" y="1105"/>
      <point x="454" y="1059"/>
      <point x="401.6966666666667" y="980.9166666666666" type="curve"/>
      <point x="398.0966666666667" y="980.9166666666666" type="line"/>
      <point x="392.74666666666667" y="1083.9" type="line"/>
      <point x="121.03" y="1083.9" type="line"/>
    </contour>
  </outline>
</glyph>
<glyph name="n" format="2">
  <advance width="1056"/>
  <unicode hex="006E"/>
  <outline>
    <contour>
      <point x="121.03" y="0.0" type="line"/>
      <point x="404.73" y="0.0" type="line"/>
      <point x="404.73" y="772.9433333333334" type="line"/>
      <point x="418" y="826"/>
      <point x="472" y="885"/>
      <point x="548.1133333333333" y="884.7833333333333" type="curve" smooth="yes"/>
      <point x="628" y="885"/>
      <point x="661" y="839"/>
      <point x="661.4366666666667" y="731.9433333333334" type="curve" smooth="yes"/>
      <point x="661.4366666666667" y="0.0" type="line"/>
      <point x="945.1366666666667" y="0.0" type="line"/>
      <point x="945.1366666666667" y="712.4333333333334" type="line" smooth="yes"/>
      <point x="945" y="1006"/>
      <point x="818" y="1105"/>
      <point x="646.6533333333333" y="1105.35" type="curve" smooth="yes"/>
      <point x="530" y="1105"/>
      <point x="446" y="1053"/>
      <point x="401.6966666666667" y="982.85" type="curve"/>
      <point x="398.58" y="982.85" type="line"/>
      <point x="393.23" y="1083.9" type="line"/>
      <point x="121.03" y="1083.9" type="line"/>
    </contour>
  </outline>
</glyph>
<glyph name="o" format="2">
  <advance width="1050"/>
  <unicode hex="006F"/>
  <outline>
    <contour>
      <point x="70.79" y="526.4333333333333" type="line" smooth="yes"/>
      <point x="71" y="164"/>
      <point x="255" y="-30"/>
      <point x="524.6233333333333" y="-30.0" type="curve" smooth="yes"/>
      <point x="794" y="-30"/>
      <point x="980" y="164"/>
      <point x="980.0916666666667" y="526.4333333333333" type="curve" smooth="yes"/>
      <point x="980.0916666666667" y="558.4333333333333" type="line" smooth="yes"/>
      <point x="980" y="920"/>
      <point x="794" y="1114"/>
      <point x="524.6233333333333" y="1114.3833333333334" type="curve" smooth="yes"/>
      <point x="255" y="1114"/>
      <point x="71" y="920"/>
      <point x="70.79" y="558.4333333333333" type="curve" smooth="yes"/>
    </contour>
    <contour>
      <point x="361.39" y="610.3833333333333" type="line" smooth="yes"/>
      <point x="361" y="804"/>
      <point x="406" y="896"/>
      <point x="524.6233333333333" y="896.1333333333333" type="curve" smooth="yes"/>
      <point x="643" y="896"/>
      <point x="689" y="809"/>
      <point x="688.5733333333333" y="610.3833333333333" type="curve" smooth="yes"/>
      <point x="688.5733333333333" y="474.48333333333335" type="line" smooth="yes"/>
      <point x="689" y="281"/>
      <point x="638" y="188"/>
      <point x="524.6233333333333" y="188.25" type="curve" smooth="yes"/>
      <point x="412" y="188"/>
      <point x="361" y="281"/>
      <point x="361.39" y="474.48333333333335" type="curve" smooth="yes"/>
    </contour>
  </outline>
</glyph>
<glyph name="p" format="2">
  <advance width="1072"/>
  <unicode hex="0070"/>
  <outline>
    <contour>
      <point x="121.03" y="-416.0" type="line"/>
      <point x="404.73" y="-416.0" type="line"/>
      <point x="404.73" y="82.76166666666667" type="line"/>
      <point x="448" y="17"/>
      <point x="530" y="-20"/>
      <point x="643.6" y="-20.0" type="curve" smooth="yes"/>
      <point x="857" y="-20"/>
      <point x="998" y="207"/>
      <point x="998.1833333333334" y="526.4333333333333" type="curve" smooth="yes"/>
      <point x="998.1833333333334" y="558.4333333333333" type="line" smooth="yes"/>
      <point x="998" y="880"/>
      <point x="854" y="1105"/>
      <point x="634.4166666666666" y="1104.8666666666666" type="curve" smooth="yes"/>
      <point x="524" y="1105"/>
      <point x="437" y="1053"/>
      <point x="397.83000000000004" y="982.3" type="curve"/>
      <point x="394.71333333333337" y="982.3" type="line"/>
      <point x="389.36333333333334" y="1083.9" type="line"/>
      <point x="121.03" y="1083.9" type="line"/>
    </contour>
    <contour>
      <point x="404.73" y="303.02" type="curve"/>
      <point x="404.73" y="776.3533333333334" type="line"/>
      <point x="426" y="828"/>
      <point x="483" y="884"/>
      <point x="562.9833333333333" y="883.62" type="curve" smooth="yes"/>
      <point x="657" y="884"/>
      <point x="708" y="800"/>
      <point x="708.0666666666666" y="606.42" type="curve" smooth="yes"/>
      <point x="708.0666666666666" y="471.00333333333333" type="line" smooth="yes"/>
      <point x="708" y="280"/>
      <point x="656" y="194"/>
      <point x="558.4333333333334" y="193.80333333333334" type="curve" smooth="yes"/>
      <point x="472" y="194"/>
      <point x="419" y="254"/>
    </contour>
  </outline>
</glyph>
<glyph name="q" format="2">
  <advance width="1072"/>
  <unicode hex="0071"/>
  <outline>
    <contour>
      <point x="73.38884615384467" y="525.9514871794887" type="line" smooth="yes"/>
      <point x="75" y="193"/>
      <point x="216" y="-20"/>
      <point x="437.669436871144" y="-20.0" type="curve" smooth="yes"/>
      <point x="552" y="-20"/>
      <point x="623" y="23"/>
      <point x="668.2925654008452" y="91.98110256410033" type="curve"/>
      <point x="667.8337705290506" y="92.23538526452533" type="line"/>
      <point x="667.8337705290506" y="-416.01189743589964" type="line"/>
      <point x="950.5678192145383" y="-416.01189743589964" type="line"/>
      <point x="950.5678192145383" y="1084.3684615384611" type="line"/>
      <point x="679.3226166828954" y="1084.3684615384611" type="line"/>
      <point x="673.9659243752012" y="981.8122051282055" type="line"/>
      <point x="671.7973346316121" y="981.8122051282055" type="line"/>
      <point x="632" y="1052"/>
      <point x="547" y="1104"/>
      <point x="436.75110353781065" y="1104.3684615384611" type="curve" smooth="yes"/>
      <point x="224" y="1104"/>
      <point x="73" y="877"/>
      <point x="73.28846153846006" y="557.9648717948733" type="curve" smooth="yes"/>
    </contour>
    <contour>
      <point x="363.51666666666665" y="475.93333333333334" type="curve" smooth="yes"/>
      <point x="363.51666666666665" y="607.9666666666667" type="line" smooth="yes"/>
      <point x="364" y="813"/>
      <point x="426" y="887"/>
      <point x="527.0833333333334" y="887.1" type="curve" smooth="yes"/>
      <point x="604" y="887"/>
      <point x="652" y="831"/>
      <point x="667.3366666666666" y="779.8333333333334" type="curve"/>
      <point x="667.3366666666666" y="321.3833333333333" type="line"/>
      <point x="645" y="249"/>
      <point x="587" y="197"/>
      <point x="515.0833333333334" y="197.28333333333333" type="curve" smooth="yes"/>
      <point x="418" y="197"/>
      <point x="364" y="286"/>
    </contour>
  </outline>
</glyph>
<glyph name="r" format="2">
  <advance width="650"/>
  <unicode hex="0072"/>
  <outline>
    <contour>
      <point x="121.03" y="0.0" type="line"/>
      <point x="415.2746097111317" y="0.0" type="line"/>
      <point x="415.2746097111317" y="738.8428215384612" type="line"/>
      <point x="439" y="811"/>
      <point x="494" y="861"/>
      <point x="555.7730456085702" y="860.9257189743608" type="curve" smooth="yes"/>
      <point x="581" y="861"/>
      <point x="611" y="857"/>
      <point x="630.9097891983145" y="850.6793343589725" type="curve"/>
      <point x="630.9097891983145" y="1097.643770256411" type="line"/>
      <point x="619" y="1104"/>
      <point x="586" y="1113"/>
      <point x="561.9382891983145" y="1112.9428215384612" type="curve" smooth="yes"/>
      <point x="496" y="1113"/>
      <point x="437" y="1063"/>
      <point x="403.94913535215915" y="992.2242317948721" type="curve"/>
      <point x="399.5300712495928" y="992.2242317948721" type="line"/>
      <point x="394.1733789419035" y="1083.9198984615389" type="line"/>
      <point x="121.03" y="1083.9198984615389" type="line"/>
    </contour>
  </outline>
</glyph>
<glyph name="s" format="2">
  <advance width="916"/>
  <unicode hex="0073"/>
  <outline>
    <contour>
      <point x="55.833333333333336" y="336.75" type="line"/>
      <point x="55.833333333333336" y="325.95" type="line" smooth="yes"/>
      <point x="56" y="91"/>
      <point x="198" y="-30"/>
      <point x="460.75" y="-30.0" type="curve" smooth="yes"/>
      <point x="718" y="-30"/>
      <point x="859" y="94"/>
      <point x="858.985" y="317.0" type="curve" smooth="yes"/>
      <point x="859" y="500"/>
      <point x="771" y="591"/>
      <point x="573.8333333333334" y="646.8833333333333" type="curve" smooth="yes"/>
      <point x="385" y="701"/>
      <point x="361" y="739"/>
      <point x="361.46500000000003" y="809.3183333333334" type="curve" smooth="yes"/>
      <point x="361" y="880"/>
      <point x="399" y="917"/>
      <point x="464.86333333333334" y="916.835" type="curve" smooth="yes"/>
      <point x="533" y="917"/>
      <point x="571" y="885"/>
      <point x="570.9666666666667" y="786.985" type="curve" smooth="yes"/>
      <point x="570.9666666666667" y="752.535" type="line"/>
      <point x="848.8333333333334" y="752.535" type="line"/>
      <point x="848.8333333333334" y="771.2133333333334" type="line" smooth="yes"/>
      <point x="849" y="990"/>
      <point x="702" y="1115"/>
      <point x="466.265" y="1114.8183333333334" type="curve" smooth="yes"/>
      <point x="235" y="1115"/>
      <point x="83" y="995"/>
      <point x="82.915" y="785.335" type="curve" smooth="yes"/>
      <point x="83" y="619"/>
      <point x="163" y="515"/>
      <point x="362.73333333333335" y="460.35" type="curve" smooth="yes"/>
      <point x="547" y="408"/>
      <point x="573" y="365"/>
      <point x="573.4516666666667" y="289.1666666666667" type="curve" smooth="yes"/>
      <point x="573" y="211"/>
      <point x="535" y="167"/>
      <point x="459.78333333333336" y="166.53333333333333" type="curve" smooth="yes"/>
      <point x="385" y="167"/>
      <point x="335" y="214"/>
      <point x="334.7" y="320.15" type="curve" smooth="yes"/>
      <point x="334.7" y="335.78333333333336" type="line"/>
    </contour>
  </outline>
</glyph>
<glyph name="t" format="2">
  <advance width="585"/>
  <unicode hex="0074"/>
  <outline>
    <contour>
      <point x="0.0" y="874.6833333333333" type="line"/>
      <point x="550.1666666666666" y="874.6833333333333" type="line"/>
      <point x="550.1666666666666" y="1083.9" type="line"/>
      <point x="0.0" y="1083.9" type="line"/>
    </contour>
    <contour>
      <point x="117.23333333333333" y="312.2" type="line" smooth="yes"/>
      <point x="117" y="76"/>
      <point x="234" y="-30"/>
      <point x="411.03333333333336" y="-29.516666666666666" type="curve" smooth="yes"/>
      <point x="466" y="-30"/>
      <point x="515" y="-15"/>
      <point x="539.8166666666666" y="0.9666666666666667" type="curve"/>
      <point x="539.8166666666666" y="199.93333333333334" type="line"/>
      <point x="519" y="192"/>
      <point x="497" y="186"/>
      <point x="473.8666666666667" y="185.86666666666667" type="curve" smooth="yes"/>
      <point x="427" y="186"/>
      <point x="400" y="204"/>
      <point x="399.9666666666667" y="309.6" type="curve" smooth="yes"/>
      <point x="399.9666666666667" y="1313.7833333333333" type="line"/>
      <point x="118.2" y="1313.7833333333333" type="line"/>
      <point x="118.2" y="1003.7166666666667" type="line"/>
      <point x="117.23333333333333" y="974.6833333333333" type="line"/>
    </contour>
  </outline>
</glyph>
<glyph name="u" format="2">
  <advance width="1056"/>
  <unicode hex="0075"/>
  <outline>
    <contour>
      <point x="111.03" y="386.45" type="line" smooth="yes"/>
      <point x="111" y="92"/>
      <point x="232" y="-20"/>
      <point x="394.565" y="-20.483333333333334" type="curve" smooth="yes"/>
      <point x="527" y="-20"/>
      <point x="606" y="25"/>
      <point x="653.27" y="81.4" type="curve"/>
      <point x="658.3516666666667" y="81.4" type="line"/>
      <point x="663.42" y="0.0" type="line"/>
      <point x="935.1366666666667" y="0.0" type="line"/>
      <point x="935.1366666666667" y="1083.9" type="line"/>
      <point x="651.4366666666667" y="1083.9" type="line"/>
      <point x="651.4366666666667" y="296.73333333333335" type="line"/>
      <point x="618" y="234"/>
      <point x="581" y="199"/>
      <point x="507.385" y="198.68166666666667" type="curve" smooth="yes"/>
      <point x="425" y="199"/>
      <point x="395" y="243"/>
      <point x="395.21333333333337" y="376.71666666666664" type="curve" smooth="yes"/>
      <point x="395.21333333333337" y="1083.9" type="line"/>
      <point x="111.03" y="1083.9" type="line"/>
    </contour>
  </outline>
</glyph>
<glyph name="v" format="2">
  <advance width="832"/>
  <unicode hex="0076"/>
  <outline>
    <contour>
      <point x="-20.41153846153995" y="1084.098984615385" type="line"/>
      <point x="267.08044141512664" y="0.0" type="line"/>
      <point x="554.4621759169102" y="0.0" type="line"/>
      <point x="846.1803810451166" y="1084.098984615385" type="line"/>
      <point x="587.0623605322951" y="1084.098984615385" type="line"/>
      <point x="456.3983333333333" y="469.6" type="line" smooth="yes"/>
      <point x="446" y="418"/>
      <point x="437" y="375"/>
      <point x="432.35" y="309.55" type="curve"/>
      <point x="426.3016666666667" y="309.55" type="line"/>
      <point x="420" y="375"/>
      <point x="413" y="418"/>
      <point x="402.25333333333333" y="469.6" type="curve" smooth="yes"/>
      <point x="272.15689840960755" y="1084.098984615385" type="line"/>
    </contour>
  </outline>
</glyph>
<glyph name="w" format="2">
  <advance width="1362"/>
  <unicode hex="0077"/>
  <outline>
    <contour>
      <point x="13.385128205127833" y="1083.9198984615389" type="line"/>
      <point x="216.90148717948867" y="0.0" type="line"/>
      <point x="549.7896237260642" y="0.0" type="line"/>
      <point x="655.1516666666666" y="583.9166666666666" type="line" smooth="yes"/>
      <point x="664" y="635"/>
      <point x="672" y="690"/>
      <point x="677.415" y="739.5666666666667" type="curve"/>
      <point x="683.27" y="739.5666666666667" type="line"/>
      <point x="688" y="690"/>
      <point x="698" y="636"/>
      <point x="708.0383333333333" y="583.9166666666666" type="curve" smooth="yes"/>
      <point x="825.906800928272" y="0.0" type="line"/>
      <point x="1148.152051931192" y="0.0" type="line"/>
      <point x="1350.9212570593975" y="1083.9198984615389" type="line"/>
      <point x="1099.2134837260642" y="1083.9198984615389" type="line"/>
      <point x="1017.585" y="484.4333333333333" type="line" smooth="yes"/>
      <point x="1011" y="432"/>
      <point x="999" y="375"/>
      <point x="994.6316666666667" y="322.45" type="curve"/>
      <point x="988.6316666666667" y="322.45" type="line"/>
      <point x="983" y="375"/>
      <point x="973" y="432"/>
      <point x="963.3050000000001" y="484.4333333333333" type="curve" smooth="yes"/>
      <point x="849.1226546316121" y="1083.9198984615389" type="line"/>
      <point x="541.1616098799088" y="1083.9198984615389" type="line"/>
      <point x="428.18666666666667" y="484.91666666666663" type="line" smooth="yes"/>
      <point x="418" y="432"/>
      <point x="408" y="375"/>
      <point x="403.4816666666667" y="322.93333333333334" type="curve"/>
      <point x="397.43333333333334" y="322.93333333333334" type="line"/>
      <point x="394" y="375"/>
      <point x="384" y="432"/>
      <point x="376.77333333333337" y="484.91666666666663" type="curve" smooth="yes"/>
      <point x="299.0846012982788" y="1083.9198984615389" type="line"/>
    </contour>
  </outline>
</glyph>
<glyph name="x" format="2">
  <advance width="850"/>
  <unicode hex="0078"/>
  <outline>
    <contour>
      <point x="10.816666666666666" y="0.0" type="line"/>
      <point x="264.98333333333335" y="0.0" type="line"/>
      <point x="471.0" y="485.43333333333334" type="line"/>
      <point x="532.9833333333333" y="485.43333333333334" type="line"/>
      <point x="818.9666666666667" y="1083.9" type="line"/>
      <point x="563.6" y="1083.9" type="line"/>
      <point x="357.8333333333333" y="616.3333333333334" type="line"/>
      <point x="300.6666666666667" y="616.3333333333334" type="line"/>
    </contour>
    <contour>
      <point x="22.133333333333333" y="1083.9" type="line"/>
      <point x="309.31666666666666" y="486.8833333333333" type="line"/>
      <point x="317.6" y="486.8833333333333" type="line"/>
      <point x="534.9333333333334" y="0.0" type="line"/>
      <point x="841.1666666666666" y="0.0" type="line"/>
      <point x="545.5166666666667" y="617.7833333333333" type="line"/>
      <point x="538.4333333333334" y="617.7833333333333" type="line"/>
      <point x="328.85" y="1083.9" type="line"/>
    </contour>
  </outline>
</glyph>
<glyph name="y" format="2">
  <advance width="844"/>
  <unicode hex="0079"/>
  <outline>
    <contour>
      <point x="67.87375618305916" y="-415.4936153846165" type="line"/>
      <point x="97" y="-430"/>
      <point x="132" y="-436"/>
      <point x="184.250843362543" y="-436.0" type="curve" smooth="yes"/>
      <point x="347" y="-436"/>
      <point x="468" y="-364"/>
      <point x="561.7125177215204" y="-33.581102564100334" type="curve" smooth="yes"/>
      <point x="852.5898382343375" y="1083.9198984615389" type="line"/>
      <point x="602.2536966958763" y="1083.9198984615389" type="line"/>
      <point x="469.05833333333334" y="466.06666666666666" type="line" smooth="yes"/>
      <point x="457" y="413"/>
      <point x="450" y="369"/>
      <point x="448.56166666666667" y="310.855" type="curve"/>
      <point x="442.5133333333333" y="310.855" type="line"/>
      <point x="439" y="369"/>
      <point x="433" y="415"/>
      <point x="421.5183333333333" y="466.06666666666666" type="curve" smooth="yes"/>
      <point x="290.7016687439167" y="1083.9198984615389" type="line"/>
      <point x="-1.922307692305834" y="1083.9198984615389" type="line"/>
      <point x="296.3666666666667" y="12.25" type="line"/>
      <point x="330.6" y="-15.516666666666666" type="line"/>
      <point x="279" y="-217"/>
      <point x="234" y="-222"/>
      <point x="168.195043362543" y="-221.59746153846118" type="curve" smooth="yes"/>
      <point x="133" y="-222"/>
      <point x="98" y="-215"/>
      <point x="71.71662797793132" y="-204.07410256410031" type="curve"/>
    </contour>
  </outline>
</glyph>
<glyph name="z" format="2">
  <advance width="800"/>
  <unicode hex="007A"/>
  <outline>
    <contour>
      <point x="44.218333333333334" y="0.0" type="line"/>
      <point x="766.285" y="0.0" type="line"/>
      <point x="766.285" y="217.76666666666665" type="line"/>
      <point x="373.635" y="217.76666666666665" type="line"/>
      <point x="743.985" y="902.3" type="line"/>
      <point x="743.985" y="1083.9" type="line"/>
      <point x="51.01833333333333" y="1083.9" type="line"/>
      <point x="51.01833333333333" y="865.1666666666666" type="line"/>
      <point x="413.53499999999997" y="865.1666666666666" type="line"/>
      <point x="44.218333333333334" y="187.01666666666665" type="line"/>
    </contour>
  </outline>
</glyph>
<glyph name="braceleft" format="2">
  <advance width="741"/>
  <unicode hex="007B"/>
  <outline>
    <contour>
      <point x="635.269446153845" y="-312.0" type="curve"/>
      <point x="635.269446153845" y="-110.62871794871832" type="line"/>
      <point x="562" y="-111"/>
      <point x="440" y="-89"/>
      <point x="466.48924102564325" y="93.75769230769008" type="curve" smooth="yes"/>
      <point x="503.95277948717836" y="334.0" type="line" smooth="yes"/>
      <point x="523" y="448"/>
      <point x="478" y="521"/>
      <point x="342.6575230769249" y="574.0" type="curve"/>
      <point x="478" y="627"/>
      <point x="523" y="700"/>
      <point x="503.95277948717836" y="814.0" type="curve" smooth="yes"/>
      <point x="466.48924102564325" y="1054.2423076923099" type="line" smooth="yes"/>
      <point x="440" y="1237"/>
      <point x="562" y="1259"/>
      <point x="635.269446153845" y="1258.6287179487183" type="curve"/>
      <point x="635.269446153845" y="1460.0" type="line"/>
      <point x="362" y="1461"/>
      <point x="155" y="1331"/>
      <point x="194.74348717948828" y="1078.0" type="curve" smooth="yes"/>
      <point x="231.7236923076901" y="836.5679487179484" type="line" smooth="yes"/>
      <point x="254" y="696"/>
      <point x="194" y="666"/>
      <point x="104.52833333333334" y="665.99769230769" type="curve"/>
      <point x="104.52833333333334" y="482.0023076923099" type="line"/>
      <point x="194" y="482"/>
      <point x="254" y="452"/>
      <point x="231.7236923076901" y="311.43205128205165" type="curve" smooth="yes"/>
      <point x="194.74348717948828" y="70.0" type="line" smooth="yes"/>
      <point x="155" y="-183"/>
      <point x="362" y="-314"/>
    </contour>
  </outline>
</glyph>
<glyph name="bar" format="2">
  <advance width="627"/>
  <unicode hex="007C"/>
  <outline>
    <contour>
      <point x="193.19487179487328" y="-416.0" type="line"/>
      <point x="434.872246153845" y="-416.0" type="line"/>
      <point x="434.872246153845" y="1401.3333333333333" type="line"/>
      <point x="193.19487179487328" y="1401.3333333333333" type="line"/>
    </contour>
  </outline>
</glyph>
<glyph name="braceright" format="2">
  <advance width="741"/>
  <unicode hex="007D"/>
  <outline>
    <contour>
      <point x="108.97358974359159" y="-312.1189743589766" type="line"/>
      <point x="382" y="-313"/>
      <point x="577" y="-182"/>
      <point x="529.6828820512817" y="69.88102564102341" type="curve" smooth="yes"/>
      <point x="487.86934358974173" y="311.3130769230751" type="line" smooth="yes"/>
      <point x="463" y="451"/>
      <point x="550" y="482"/>
      <point x="639.7147025641033" y="481.8833333333333" type="curve"/>
      <point x="639.7147025641033" y="665.8787179487183" type="line"/>
      <point x="550" y="666"/>
      <point x="463" y="697"/>
      <point x="487.86934358974173" y="836.4489743589766" type="curve" smooth="yes"/>
      <point x="529.6828820512817" y="1077.8810256410234" type="line" smooth="yes"/>
      <point x="577" y="1331"/>
      <point x="382" y="1461"/>
      <point x="108.97358974359159" y="1459.8810256410234" type="curve"/>
      <point x="108.97358974359159" y="1258.5097435897417" type="line"/>
      <point x="183" y="1259"/>
      <point x="288" y="1236"/>
      <point x="257.9371282051267" y="1054.1233333333334" type="curve" smooth="yes"/>
      <point x="216.1235897435916" y="813.8810256410234" type="line" smooth="yes"/>
      <point x="194" y="700"/>
      <point x="246" y="626"/>
      <point x="382.25217948717835" y="573.8810256410234" type="curve"/>
      <point x="246" y="521"/>
      <point x="194" y="448"/>
      <point x="216.1235897435916" y="333.8810256410234" type="curve" smooth="yes"/>
      <point x="257.9371282051267" y="93.63871794871832" type="line" smooth="yes"/>
      <point x="288" y="-88"/>
      <point x="183" y="-111"/>
      <point x="108.97358974359159" y="-110.74769230769007" type="curve"/>
    </contour>
  </outline>
</glyph>
<glyph name="asciitilde" format="2">
  <advance width="1333"/>
  <unicode hex="007E"/>
  <outline>
    <contour>
      <point x="394.77484615384463" y="475.95192307692236" type="line"/>
      <point x="427" y="553"/>
      <point x="466" y="585"/>
      <point x="523.6439230769223" y="585.0417948717945" type="curve" smooth="yes"/>
      <point x="554" y="585"/>
      <point x="610" y="570"/>
      <point x="669.376769230767" y="539.2960256410275" type="curve" smooth="yes"/>
      <point x="732" y="507"/>
      <point x="787" y="489"/>
      <point x="820.8308974358997" y="488.5626153846165" type="curve" smooth="yes"/>
      <point x="877" y="489"/>
      <point x="918" y="515"/>
      <point x="947.4237948717945" y="576.2136923076941" type="curve"/>
      <point x="947.4237948717945" y="874.4214358974336" type="line"/>
      <point x="916" y="798"/>
      <point x="877" y="763"/>
      <point x="818.7239999999999" y="763.3537435897443" type="curve" smooth="yes"/>
      <point x="790" y="763"/>
      <point x="738" y="777"/>
      <point x="681.5754871794886" y="807.6185128205113" type="curve" smooth="yes"/>
      <point x="619" y="841"/>
      <point x="557" y="861"/>
      <point x="521.1557435897444" y="861.1043076923058" type="curve" smooth="yes"/>
      <point x="467" y="861"/>
      <point x="426" y="836"/>
      <point x="394.77484615384463" y="769.7807948717945" type="curve"/>
    </contour>
  </outline>
</glyph>
<glyph name="exclamdown" format="2">
  <advance width="677"/>
  <unicode hex="00A1"/>
  <outline>
    <contour>
      <point x="515.75" y="1011.4166666666666" type="curve" smooth="yes"/>
      <point x="516" y="1100"/>
      <point x="454" y="1172"/>
      <point x="338.55" y="1172.0" type="curve" smooth="yes"/>
      <point x="224" y="1172"/>
      <point x="161" y="1100"/>
      <point x="161.35" y="1011.4166666666666" type="curve" smooth="yes"/>
      <point x="161" y="923"/>
      <point x="224" y="851"/>
      <point x="339.03333333333336" y="851.3166666666666" type="curve" smooth="yes"/>
      <point x="454" y="851"/>
      <point x="516" y="923"/>
    </contour>
    <contour>
      <point x="464.31666666666666" y="689.1533333333333" type="line"/>
      <point x="214.95" y="689.1533333333333" type="line"/>
      <point x="192.93333333333334" y="-306.0" type="line"/>
      <point x="485.3666666666667" y="-306.0" type="line"/>
    </contour>
  </outline>
</glyph>
<glyph name="cent" format="2">
  <advance width="978"/>
  <unicode hex="00A2"/>
  <outline>
    <contour>
      <point x="517.5083333333333" y="346.96000000000004" type="curve" smooth="yes"/>
      <point x="636" y="347"/>
      <point x="654" y="432"/>
      <point x="651.9716666666667" y="531.2266666666667" type="curve"/>
      <point x="928.7316666666667" y="531.2266666666667" type="line"/>
      <point x="931" y="306"/>
      <point x="802" y="134"/>
      <point x="518.8933333333333" y="134.02666666666667" type="curve" smooth="yes"/>
      <point x="261" y="134"/>
      <point x="78" y="314"/>
      <point x="78.36666666666667" y="675.96" type="curve" smooth="yes"/>
      <point x="78.36666666666667" y="705.4766666666667" type="line" smooth="yes"/>
      <point x="78" y="1067"/>
      <point x="257" y="1247"/>
      <point x="528.4933333333333" y="1246.9266666666667" type="curve" smooth="yes"/>
      <point x="792" y="1247"/>
      <point x="931" y="1081"/>
      <point x="929.07" y="858.6266666666667" type="curve"/>
      <point x="652.4549999999999" y="858.6266666666667" type="line"/>
      <point x="655" y="961"/>
      <point x="629" y="1032"/>
      <point x="524.8766666666667" y="1032.31" type="curve" smooth="yes"/>
      <point x="433" y="1032"/>
      <point x="370" y="956"/>
      <point x="369.96000000000004" y="757.4266666666666" type="curve" smooth="yes"/>
      <point x="369.96000000000004" y="624.01" type="line" smooth="yes"/>
      <point x="370" y="425"/>
      <point x="421" y="347"/>
    </contour>
    <contour>
      <point x="429.7" y="0.0" type="line"/>
      <point x="579.7" y="0.0" type="line"/>
      <point x="579.7" y="240.0" type="line"/>
      <point x="574.7" y="250.0" type="line"/>
      <point x="574.7" y="708.0" type="line"/>
      <point x="434.7" y="708.0" type="line"/>
      <point x="434.7" y="251.0" type="line"/>
      <point x="429.7" y="237.0" type="line"/>
    </contour>
    <contour>
      <point x="434.7" y="708.0" type="line"/>
      <point x="574.7" y="708.0" type="line"/>
      <point x="574.7" y="1179.0" type="line"/>
      <point x="579.7" y="1192.0" type="line"/>
      <point x="579.7" y="1402.0" type="line"/>
      <point x="429.7" y="1402.0" type="line"/>
      <point x="429.7" y="1192.0" type="line"/>
      <point x="434.7" y="1182.0" type="line"/>
    </contour>
  </outline>
</glyph>
<glyph name="sterling" format="2">
  <advance width="1013"/>
  <unicode hex="00A3"/>
  <outline>
    <contour>
      <point x="1005.9716666666667" y="0.0" type="line"/>
      <point x="1005.9716666666667" y="222.55" type="line"/>
      <point x="392.47" y="222.55" type="line"/>
      <point x="483" y="268"/>
      <point x="522" y="378"/>
      <point x="507.37" y="530.7166666666667" type="curve" smooth="yes"/>
      <point x="460.0916666666667" y="1039.0" type="line" smooth="yes"/>
      <point x="447" y="1183"/>
      <point x="481" y="1270"/>
      <point x="570.0283333333333" y="1270.3333333333333" type="curve" smooth="yes"/>
      <point x="650" y="1270"/>
      <point x="689" y="1193"/>
      <point x="688.53" y="1069.1666666666667" type="curve" smooth="yes"/>
      <point x="688.53" y="1053.1666666666667" type="line"/>
      <point x="963.2766666666666" y="1053.1666666666667" type="line"/>
      <point x="963.2766666666666" y="1069.1666666666667" type="line" smooth="yes"/>
      <point x="963" y="1336"/>
      <point x="825" y="1476"/>
      <point x="568.0283333333333" y="1476.0" type="curve" smooth="yes"/>
      <point x="296" y="1476"/>
      <point x="163" y="1329"/>
      <point x="189.345" y="1039.0" type="curve" smooth="yes"/>
      <point x="240.18833333333333" y="496.48333333333335" type="line" smooth="yes"/>
      <point x="255" y="336"/>
      <point x="209" y="218"/>
      <point x="89.825" y="217.51666666666665" type="curve" smooth="yes"/>
      <point x="36.0" y="217.51666666666665" type="line"/>
      <point x="36.0" y="0.0" type="line"/>
    </contour>
    <contour>
      <point x="784.5233333333333" y="605.3433333333334" type="line"/>
      <point x="784.5233333333333" y="782.2566666666667" type="line"/>
      <point x="51.565" y="782.2566666666667" type="line"/>
      <point x="51.565" y="605.3433333333334" type="line"/>
    </contour>
  </outline>
</glyph>
<glyph name="currency" format="2">
  <advance width="1124"/>
  <unicode hex="00A4"/>
  <guideline x="0" y="901.0" angle="0" identifier="bRYxxRaQQf"/>
  <guideline x="0" y="555.0" angle="0" identifier="917FhrihjR"/>
  <outline>
    <contour>
      <point x="335.43333333333334" y="712.0" type="curve"/>
      <point x="335" y="883"/>
      <point x="401" y="1013"/>
      <point x="559.0166666666667" y="1012.75" type="curve" smooth="yes"/>
      <point x="716" y="1013"/>
      <point x="781" y="883"/>
      <point x="780.6" y="712.0" type="curve" smooth="yes"/>
      <point x="781" y="538"/>
      <point x="716" y="409"/>
      <point x="559.0166666666667" y="409.25" type="curve" smooth="yes"/>
      <point x="401" y="409"/>
      <point x="335" y="538"/>
    </contour>
    <contour>
      <point x="100.71666666666667" y="718.0" type="curve"/>
      <point x="101" y="420"/>
      <point x="278" y="188"/>
      <point x="558.0166666666667" y="187.73333333333335" type="curve" smooth="yes"/>
      <point x="838" y="188"/>
      <point x="1015" y="420"/>
      <point x="1015.3166666666667" y="718.0" type="curve" smooth="yes"/>
      <point x="1015" y="1018"/>
      <point x="838" y="1246"/>
      <point x="558.0166666666667" y="1246.2666666666667" type="curve" smooth="yes"/>
      <point x="278" y="1246"/>
      <point x="101" y="1018"/>
    </contour>
    <contour>
      <point x="1065.2166666666667" y="1195.8166666666666" type="line"/>
      <point x="937.9" y="1328.6166666666666" type="line"/>
      <point x="727.2" y="1113.4333333333334" type="line"/>
      <point x="854.5166666666667" y="980.6333333333333" type="line"/>
    </contour>
    <contour>
      <point x="367.3833333333333" y="337.0833333333333" type="line"/>
      <point x="156.68333333333334" y="121.9" type="line"/>
      <point x="30.366666666666667" y="253.7" type="line"/>
      <point x="241.06666666666666" y="467.8833333333333" type="line"/>
    </contour>
    <contour>
      <point x="965.35" y="129.38333333333333" type="line"/>
      <point x="1093.6666666666667" y="262.18333333333334" type="line"/>
      <point x="882.9666666666667" y="475.8833333333333" type="line"/>
      <point x="754.65" y="344.56666666666666" type="line"/>
    </contour>
    <contour>
      <point x="259.03333333333336" y="995.1166666666667" type="line"/>
      <point x="48.33333333333333" y="1210.3" type="line"/>
      <point x="174.65" y="1342.1" type="line"/>
      <point x="385.35" y="1126.9166666666667" type="line"/>
    </contour>
  </outline>
</glyph>
<glyph name="yen" format="2">
  <advance width="1095"/>
  <unicode hex="00A5"/>
  <outline>
    <contour>
      <point x="52.475" y="296.5" type="line"/>
      <point x="1008.4866666666667" y="296.5" type="line"/>
      <point x="1008.4866666666667" y="470.0" type="line"/>
      <point x="52.475" y="470.0" type="line"/>
    </contour>
    <contour>
      <point x="52.475" y="606.5" type="line"/>
      <point x="1008.4866666666667" y="606.5" type="line"/>
      <point x="1008.4866666666667" y="775.0" type="line"/>
      <point x="675.2066666666667" y="775.0" type="line"/>
      <point x="627.2066666666667" y="669.0" type="line"/>
      <point x="408.49" y="669.0" type="line"/>
      <point x="355.49" y="775.0" type="line"/>
      <point x="52.475" y="775.0" type="line"/>
    </contour>
    <contour>
      <point x="366.49" y="0.0" type="line"/>
      <point x="660.2066666666667" y="0.0" type="line"/>
      <point x="660.2066666666667" y="548.0" type="line"/>
      <point x="1078.4866666666667" y="1456.0" type="line"/>
      <point x="774.0533333333333" y="1456.0" type="line"/>
      <point x="591.6733333333333" y="952.9166666666666" type="line" smooth="yes"/>
      <point x="574" y="913"/>
      <point x="551" y="858"/>
      <point x="537.6733333333333" y="782.9166666666666" type="curve"/>
      <point x="523.4733333333334" y="782.9166666666666" type="line"/>
      <point x="514" y="832"/>
      <point x="484" y="913"/>
      <point x="469.47333333333336" y="952.9166666666666" type="curve" smooth="yes"/>
      <point x="279.9" y="1456.0" type="line"/>
      <point x="-25.525" y="1456.0" type="line"/>
      <point x="366.49" y="548.0" type="line"/>
    </contour>
  </outline>
</glyph>
<glyph name="section" format="2">
  <advance width="1282"/>
  <unicode hex="00A7"/>
  <guideline x="0" y="1658.0" angle="0" identifier="QzZ5gIiCyn"/>
  <guideline x="0" y="578.0" angle="0" identifier="9Hxjf2sdFw"/>
  <outline>
    <contour>
      <point x="724.8333333333334" y="84.18333333333334" type="curve"/>
      <point x="724.8333333333334" y="307.1" type="line"/>
      <point x="797" y="317"/>
      <point x="843" y="375"/>
      <point x="843.25" y="457.2" type="curve"/>
      <point x="843" y="569"/>
      <point x="806" y="620"/>
      <point x="599.2333333333333" y="681.3166666666666" type="curve" smooth="yes"/>
      <point x="326" y="754"/>
      <point x="218" y="870"/>
      <point x="217.81666666666666" y="1093.2333333333333" type="curve" smooth="yes"/>
      <point x="218" y="1354"/>
      <point x="362" y="1497"/>
      <point x="623.9666666666667" y="1497.7666666666667" type="curve" smooth="yes"/>
      <point x="887" y="1498"/>
      <point x="1029" y="1347"/>
      <point x="1027.8166666666666" y="1074.3833333333334" type="curve"/>
      <point x="765.1833333333334" y="1074.3833333333334" type="line"/>
      <point x="766" y="1206"/>
      <point x="717" y="1272"/>
      <point x="624.9333333333334" y="1271.75" type="curve" smooth="yes"/>
      <point x="535" y="1272"/>
      <point x="479" y="1216"/>
      <point x="479.0" y="1118.7333333333333" type="curve" smooth="yes"/>
      <point x="479" y="1035"/>
      <point x="559" y="966"/>
      <point x="709.1333333333333" y="923.1" type="curve" smooth="yes"/>
      <point x="977" y="848"/>
      <point x="1146" y="733"/>
      <point x="1146.5333333333333" y="476.06666666666666" type="curve" smooth="yes"/>
      <point x="1147" y="248"/>
      <point x="981" y="100"/>
    </contour>
    <contour>
      <point x="575.1" y="926.3833333333333" type="curve"/>
      <point x="574.5833333333334" y="704.2833333333333" type="line"/>
      <point x="492" y="697"/>
      <point x="446" y="640"/>
      <point x="446.06666666666666" y="560.7166666666667" type="curve" smooth="yes"/>
      <point x="446" y="470"/>
      <point x="472" y="429"/>
      <point x="682.4" y="360.5" type="curve" smooth="yes"/>
      <point x="960" y="274"/>
      <point x="1064" y="142"/>
      <point x="1064.85" y="-98.98333333333333" type="curve" smooth="yes"/>
      <point x="1065" y="-379"/>
      <point x="909" y="-528"/>
      <point x="609.15" y="-528.3333333333334" type="curve" smooth="yes"/>
      <point x="298" y="-528"/>
      <point x="140" y="-358"/>
      <point x="140.25" y="-58.46666666666667" type="curve"/>
      <point x="434.26666666666665" y="-57.43333333333334" type="line"/>
      <point x="434" y="-210"/>
      <point x="483" y="-303"/>
      <point x="608.6666666666666" y="-303.2833333333333" type="curve" smooth="yes"/>
      <point x="720" y="-303"/>
      <point x="770" y="-242"/>
      <point x="770.35" y="-132.61666666666667" type="curve" smooth="yes"/>
      <point x="770" y="-7"/>
      <point x="709" y="60"/>
      <point x="563.2" y="102.03333333333333" type="curve" smooth="yes"/>
      <point x="293" y="175"/>
      <point x="142" y="303"/>
      <point x="141.3" y="534.4666666666667" type="curve" smooth="yes"/>
      <point x="141" y="749"/>
      <point x="303" y="915"/>
    </contour>
  </outline>
</glyph>
<glyph name="dieresis" format="2">
  <advance width="1024"/>
  <unicode hex="00A8"/>
  <outline>
    <contour>
      <point x="169.26666666666665" y="1324.5333333333333" type="curve" smooth="yes"/>
      <point x="169" y="1247"/>
      <point x="222" y="1186"/>
      <point x="319.35" y="1186.2166666666667" type="curve" smooth="yes"/>
      <point x="418" y="1186"/>
      <point x="471" y="1247"/>
      <point x="470.9166666666667" y="1324.5333333333333" type="curve" smooth="yes"/>
      <point x="471" y="1404"/>
      <point x="417" y="1464"/>
      <point x="319.8333333333333" y="1464.4" type="curve" smooth="yes"/>
      <point x="222" y="1464"/>
      <point x="169" y="1404"/>
    </contour>
    <contour>
      <point x="552.6" y="1323.5" type="curve" smooth="yes"/>
      <point x="553" y="1246"/>
      <point x="604" y="1185"/>
      <point x="702.6833333333333" y="1185.1833333333334" type="curve" smooth="yes"/>
      <point x="801" y="1185"/>
      <point x="855" y="1246"/>
      <point x="854.7333333333333" y="1323.5" type="curve" smooth="yes"/>
      <point x="855" y="1403"/>
      <point x="801" y="1463"/>
      <point x="703.1666666666666" y="1463.3666666666666" type="curve" smooth="yes"/>
      <point x="605" y="1463"/>
      <point x="553" y="1403"/>
    </contour>
  </outline>
</glyph>
<glyph name="copyright" format="2">
  <advance width="1638"/>
  <unicode hex="00A9"/>
  <guideline x="0" y="901.0" angle="0" identifier="0Pjz0qKr8z"/>
  <guideline x="0" y="555.0" angle="0" identifier="sJo8BlDiJ7"/>
  <outline>
    <contour>
      <point x="922.785" y="563.4" type="line"/>
      <point x="923" y="461"/>
      <point x="891" y="415"/>
      <point x="830.37" y="415.1666666666667" type="curve" smooth="yes"/>
      <point x="753" y="415"/>
      <point x="718" y="482"/>
      <point x="717.6333333333333" y="633.5666666666667" type="curve" smooth="yes"/>
      <point x="717.6333333333333" y="739.75" type="line" smooth="yes"/>
      <point x="718" y="888"/>
      <point x="754" y="953"/>
      <point x="826.2033333333334" y="953.3166666666667" type="curve" smooth="yes"/>
      <point x="892" y="953"/>
      <point x="924" y="908"/>
      <point x="923.785" y="812.5666666666667" type="curve"/>
      <point x="1204.1916666666666" y="812.5666666666667" type="line"/>
      <point x="1196" y="1040"/>
      <point x="1070" y="1172"/>
      <point x="828.6533333333333" y="1171.9333333333334" type="curve" smooth="yes"/>
      <point x="567" y="1172"/>
      <point x="422" y="1005"/>
      <point x="422.07" y="703.4833333333333" type="curve" smooth="yes"/>
      <point x="422.07" y="669.8" type="line" smooth="yes"/>
      <point x="422" y="372"/>
      <point x="562" y="205"/>
      <point x="819.87" y="204.51666666666668" type="curve" smooth="yes"/>
      <point x="1068" y="205"/>
      <point x="1203" y="345"/>
      <point x="1203.1916666666666" y="563.4" type="curve"/>
    </contour>
    <contour>
      <point x="209.85333333333332" y="687.0" type="curve" smooth="yes"/>
      <point x="210" y="1079"/>
      <point x="443" y="1367"/>
      <point x="819.8866666666667" y="1367.0" type="curve" smooth="yes"/>
      <point x="1195" y="1367"/>
      <point x="1429" y="1079"/>
      <point x="1428.92" y="687.0" type="curve" smooth="yes"/>
      <point x="1429" y="295"/>
      <point x="1195" y="4"/>
      <point x="819.8866666666667" y="4.0" type="curve" smooth="yes"/>
      <point x="443" y="4"/>
      <point x="210" y="295"/>
    </contour>
    <contour>
      <point x="57.02" y="687.0" type="curve" smooth="yes"/>
      <point x="57" y="209"/>
      <point x="356" y="-147"/>
      <point x="818.8866666666667" y="-147.0" type="curve" smooth="yes"/>
      <point x="1281" y="-147"/>
      <point x="1581" y="209"/>
      <point x="1581.2366666666667" y="687.0" type="curve" smooth="yes"/>
      <point x="1581" y="1166"/>
      <point x="1281" y="1519"/>
      <point x="818.8866666666667" y="1519.0" type="curve" smooth="yes"/>
      <point x="356" y="1519"/>
      <point x="57" y="1166"/>
    </contour>
  </outline>
</glyph>
<glyph name="ordfeminine" format="2">
  <advance width="788"/>
  <unicode hex="00AA"/>
  <guideline x="0" y="1681.0" angle="0" identifier="3CJlALCfkl"/>
  <guideline x="0" y="909.0" angle="0" identifier="Zdl6NZVQAy"/>
  <outline>
    <contour>
      <point x="455.2683333333333" y="837.35" type="curve"/>
      <point x="455.2683333333333" y="1211.6666666666667" type="line" smooth="yes"/>
      <point x="455" y="1284"/>
      <point x="436" y="1321"/>
      <point x="396.61833333333334" y="1321.35" type="curve" smooth="yes"/>
      <point x="354" y="1321"/>
      <point x="333" y="1297"/>
      <point x="333.41833333333335" y="1240.7166666666667" type="curve" smooth="yes"/>
      <point x="333.41833333333335" y="1224.8166666666666" type="line"/>
      <point x="116.06833333333333" y="1224.8166666666666" type="line"/>
      <point x="116.06833333333333" y="1247.95" type="line" smooth="yes"/>
      <point x="116" y="1395"/>
      <point x="206" y="1477"/>
      <point x="397.5183333333333" y="1477.0" type="curve" smooth="yes"/>
      <point x="584" y="1477"/>
      <point x="673" y="1388"/>
      <point x="673.485" y="1210.1833333333334" type="curve" smooth="yes"/>
      <point x="673.485" y="887.0" type="line" smooth="yes"/>
      <point x="673" y="814"/>
      <point x="684" y="760"/>
      <point x="703.3516666666667" y="706.0" type="curve"/>
      <point x="495.36833333333334" y="706.0" type="line"/>
      <point x="471" y="738"/>
      <point x="455" y="795"/>
    </contour>
    <contour>
      <point x="495.86833333333334" y="1162.05" type="line"/>
      <point x="495.86833333333334" y="1028.95" type="line"/>
      <point x="399.91833333333335" y="1028.95" type="line" smooth="yes"/>
      <point x="340" y="1029"/>
      <point x="309" y="1003"/>
      <point x="309.00166666666667" y="932.6333333333333" type="curve" smooth="yes"/>
      <point x="309" y="872"/>
      <point x="330" y="847"/>
      <point x="366.52666666666664" y="846.65" type="curve" smooth="yes"/>
      <point x="430" y="847"/>
      <point x="468" y="896"/>
      <point x="474.2016666666667" y="945.1333333333333" type="curve"/>
      <point x="489.785" y="812.35" type="line"/>
      <point x="479" y="750"/>
      <point x="420" y="692"/>
      <point x="305.5833333333333" y="692.4833333333333" type="curve" smooth="yes"/>
      <point x="172" y="692"/>
      <point x="87" y="771"/>
      <point x="87.23499999999999" y="921.8666666666667" type="curve" smooth="yes"/>
      <point x="87" y="1078"/>
      <point x="192" y="1162"/>
      <point x="373.78499999999997" y="1162.05" type="curve" smooth="yes"/>
    </contour>
  </outline>
</glyph>
<glyph name="guillemotleft" format="2">
  <advance width="1024"/>
  <unicode hex="00AB"/>
  <guideline x="0" y="901.0" angle="0" identifier="ZftBQarVKw"/>
  <guideline x="0" y="555.0" angle="0" identifier="MVJpdoVRVd"/>
  <outline>
    <contour>
      <point x="74.65" y="502.18333333333334" type="line"/>
      <point x="296.6" y="148.16666666666666" type="line"/>
      <point x="506.93333333333334" y="148.16666666666666" type="line"/>
      <point x="317.6333333333333" y="551.0" type="line"/>
      <point x="506.93333333333334" y="953.8333333333334" type="line"/>
      <point x="296.6" y="953.8333333333334" type="line"/>
      <point x="74.65" y="600.8166666666667" type="line"/>
    </contour>
    <contour>
      <point x="543.65" y="502.18333333333334" type="line"/>
      <point x="765.6" y="148.16666666666666" type="line"/>
      <point x="975.9333333333334" y="148.16666666666666" type="line"/>
      <point x="786.6333333333333" y="551.0" type="line"/>
      <point x="975.9333333333334" y="953.8333333333334" type="line"/>
      <point x="765.6" y="953.8333333333334" type="line"/>
      <point x="543.65" y="600.8166666666667" type="line"/>
    </contour>
  </outline>
</glyph>
<glyph name="logicalnot" format="2">
  <advance width="959"/>
  <unicode hex="00AC"/>
  <outline>
    <contour>
      <point x="857.3" y="815.5" type="line"/>
      <point x="63.8" y="815.5" type="line"/>
      <point x="63.8" y="588.9066666666666" type="line"/>
      <point x="586.0233333333333" y="588.9066666666666" type="line"/>
      <point x="586.0233333333333" y="327.6666666666667" type="line"/>
      <point x="857.3" y="327.6666666666667" type="line"/>
    </contour>
  </outline>
</glyph>
<glyph name="registered" format="2">
  <advance width="1638"/>
  <unicode hex="00AE"/>
  <outline>
    <contour>
      <point x="57.02" y="687.0" type="curve" smooth="yes"/>
      <point x="57" y="209"/>
      <point x="356" y="-147"/>
      <point x="818.8866666666667" y="-147.0" type="curve" smooth="yes"/>
      <point x="1281" y="-147"/>
      <point x="1581" y="209"/>
      <point x="1581.2366666666667" y="687.0" type="curve" smooth="yes"/>
      <point x="1581" y="1166"/>
      <point x="1281" y="1519"/>
      <point x="818.8866666666667" y="1519.0" type="curve" smooth="yes"/>
      <point x="356" y="1519"/>
      <point x="57" y="1166"/>
    </contour>
    <contour>
      <point x="209.85333333333332" y="687.0" type="curve" smooth="yes"/>
      <point x="210" y="1079"/>
      <point x="443" y="1367"/>
      <point x="819.8866666666667" y="1367.0" type="curve" smooth="yes"/>
      <point x="1195" y="1367"/>
      <point x="1429" y="1079"/>
      <point x="1428.92" y="687.0" type="curve" smooth="yes"/>
      <point x="1429" y="295"/>
      <point x="1195" y="4"/>
      <point x="819.8866666666667" y="4.0" type="curve" smooth="yes"/>
      <point x="443" y="4"/>
      <point x="210" y="295"/>
    </contour>
    <contour>
      <point x="817.8383333333334" y="581.5333333333333" type="line"/>
      <point x="934.6883333333333" y="225.0" type="line"/>
      <point x="1164.4383333333333" y="225.0" type="line"/>
      <point x="1164.4383333333333" y="248.8" type="line"/>
      <point x="1040.3366666666666" y="535.8" type="line" smooth="yes"/>
      <point x="1027" y="568"/>
      <point x="1011" y="584"/>
      <point x="978.9366666666667" y="607.85" type="curve"/>
      <point x="1086" y="628"/>
      <point x="1148" y="728"/>
      <point x="1148.1716666666666" y="873.6166666666667" type="curve" smooth="yes"/>
      <point x="1148" y="1055"/>
      <point x="1037" y="1158"/>
      <point x="825.8883333333333" y="1158.4833333333333" type="curve" smooth="yes"/>
      <point x="533.4383333333333" y="1158.4833333333333" type="line"/>
      <point x="533.4383333333333" y="225.0" type="line"/>
      <point x="749.1883333333333" y="225.0" type="line"/>
      <point x="749.1883333333333" y="581.5333333333333" type="line"/>
    </contour>
    <contour>
      <point x="820.1216666666667" y="987.1833333333333" type="line" smooth="yes"/>
      <point x="882" y="986"/>
      <point x="925" y="940"/>
      <point x="924.155" y="859.0" type="curve" smooth="yes"/>
      <point x="924" y="783"/>
      <point x="897" y="743"/>
      <point x="833.0383333333333" y="743.3166666666667" type="curve" smooth="yes"/>
      <point x="749.1883333333333" y="743.3166666666667" type="line"/>
      <point x="749.1883333333333" y="987.1833333333333" type="line"/>
    </contour>
  </outline>
</glyph>
<glyph name="macron" format="2">
  <advance width="1024"/>
  <unicode hex="00AF"/>
  <outline>
    <contour>
      <point x="789.6833333333333" y="1478.3333333333333" type="line"/>
      <point x="234.31666666666666" y="1478.3333333333333" type="line"/>
      <point x="234.31666666666666" y="1278.0" type="line"/>
      <point x="789.6833333333333" y="1278.0" type="line"/>
    </contour>
  </outline>
</glyph>
<glyph name="degree" format="2">
  <advance width="752"/>
  <unicode hex="00B0"/>
  <outline>
    <contour>
      <point x="114.0" y="1199.1166666666666" type="curve" smooth="yes"/>
      <point x="114" y="1040"/>
      <point x="227" y="924"/>
      <point x="379.23333333333335" y="924.2333333333333" type="curve" smooth="yes"/>
      <point x="529" y="924"/>
      <point x="640" y="1041"/>
      <point x="639.9833333333333" y="1199.1166666666666" type="curve" smooth="yes"/>
      <point x="640" y="1358"/>
      <point x="529" y="1477"/>
      <point x="379.23333333333335" y="1477.0" type="curve" smooth="yes"/>
      <point x="227" y="1477"/>
      <point x="114" y="1358"/>
    </contour>
    <contour>
      <point x="258.3" y="1199.1166666666666" type="curve" smooth="yes"/>
      <point x="258" y="1279"/>
      <point x="307" y="1334"/>
      <point x="379.23333333333335" y="1333.5333333333333" type="curve" smooth="yes"/>
      <point x="448" y="1334"/>
      <point x="496" y="1279"/>
      <point x="495.68333333333334" y="1199.1166666666666" type="curve" smooth="yes"/>
      <point x="496" y="1123"/>
      <point x="448" y="1068"/>
      <point x="379.23333333333335" y="1067.7" type="curve" smooth="yes"/>
      <point x="307" y="1068"/>
      <point x="258" y="1123"/>
    </contour>
  </outline>
</glyph>
<glyph name="plusminus" format="2">
  <advance width="1024"/>
  <unicode hex="00B1"/>
  <outline>
    <contour>
      <point x="73.99000000000001" y="575.7966666666666" type="line"/>
      <point x="950.01" y="575.7966666666666" type="line"/>
      <point x="950.01" y="812.62" type="line"/>
      <point x="73.99000000000001" y="812.62" type="line"/>
    </contour>
    <contour>
      <point x="371.8933333333333" y="214.65" type="line"/>
      <point x="371.8933333333333" y="1183.6833333333334" type="line"/>
      <point x="651.6233333333333" y="1183.6833333333334" type="line"/>
      <point x="651.6233333333333" y="214.65" type="line"/>
    </contour>
    <contour>
      <point x="76.89" y="1.0" type="line"/>
      <point x="947.11" y="1.0" type="line"/>
      <point x="947.11" y="240.88333333333333" type="line"/>
      <point x="76.89" y="240.88333333333333" type="line"/>
    </contour>
  </outline>
</glyph>
<glyph name="twosuperior" format="2">
  <advance width="656"/>
  <unicode hex="00B2"/>
  <outline>
    <contour>
      <point x="64.22666666666666" y="697.0" type="line"/>
      <point x="607.675" y="697.0" type="line"/>
      <point x="607.675" y="854.6666666666666" type="line"/>
      <point x="317.47333333333336" y="854.6666666666666" type="line"/>
      <point x="434.64166666666665" y="993.2333333333333" type="line" smooth="yes"/>
      <point x="535" y="1103"/>
      <point x="587" y="1179"/>
      <point x="586.7283333333334" y="1261.6333333333334" type="curve" smooth="yes"/>
      <point x="586" y="1407"/>
      <point x="503" y="1487"/>
      <point x="320.7783333333333" y="1487.0" type="curve" smooth="yes"/>
      <point x="144" y="1487"/>
      <point x="51" y="1391"/>
      <point x="51.495" y="1196.0666666666666" type="curve"/>
      <point x="246.21666666666667" y="1196.0666666666666" type="line"/>
      <point x="246" y="1295"/>
      <point x="270" y="1339"/>
      <point x="323.81166666666667" y="1339.225" type="curve" smooth="yes"/>
      <point x="367" y="1339"/>
      <point x="388" y="1311"/>
      <point x="387.9916666666667" y="1257.2166666666667" type="curve" smooth="yes"/>
      <point x="388" y="1212"/>
      <point x="352" y="1170"/>
      <point x="289.16833333333335" y="1092.5833333333333" type="curve" smooth="yes"/>
      <point x="64.22666666666666" y="812.25" type="line"/>
    </contour>
  </outline>
</glyph>
<glyph name="threesuperior" format="2">
  <advance width="648"/>
  <unicode hex="00B3"/>
  <outline>
    <contour>
      <point x="47.17166666666667" y="922.9416666666667" type="line"/>
      <point x="47" y="774"/>
      <point x="132" y="686"/>
      <point x="318.6933333333333" y="686.0" type="curve" smooth="yes"/>
      <point x="514" y="686"/>
      <point x="603" y="772"/>
      <point x="603.145" y="920.8666666666667" type="curve" smooth="yes"/>
      <point x="603" y="1013"/>
      <point x="555" y="1076"/>
      <point x="462.475" y="1101.8666666666666" type="curve"/>
      <point x="546" y="1130"/>
      <point x="586" y="1195"/>
      <point x="586.2483333333333" y="1262.5166666666667" type="curve" smooth="yes"/>
      <point x="586" y="1404"/>
      <point x="509" y="1487"/>
      <point x="320.64166666666665" y="1486.5166666666667" type="curve" smooth="yes"/>
      <point x="141" y="1487"/>
      <point x="56" y="1401"/>
      <point x="56.28666666666666" y="1253.0583333333334" type="curve"/>
      <point x="248.52166666666668" y="1253.0583333333334" type="line"/>
      <point x="249" y="1315"/>
      <point x="267" y="1342"/>
      <point x="318.27666666666664" y="1341.7083333333333" type="curve" smooth="yes"/>
      <point x="364" y="1342"/>
      <point x="389" y="1312"/>
      <point x="389.14" y="1255.0" type="curve" smooth="yes"/>
      <point x="389" y="1197"/>
      <point x="378" y="1159"/>
      <point x="305.18" y="1158.775" type="curve" smooth="yes"/>
      <point x="248.52833333333334" y="1158.775" type="line"/>
      <point x="248.52833333333334" y="1029.925" type="line"/>
      <point x="307.1616666666667" y="1029.925" type="line" smooth="yes"/>
      <point x="389" y="1031"/>
      <point x="406" y="996"/>
      <point x="405.62" y="931.7666666666667" type="curve" smooth="yes"/>
      <point x="406" y="865"/>
      <point x="379" y="830"/>
      <point x="323.2583333333333" y="830.325" type="curve" smooth="yes"/>
      <point x="263" y="830"/>
      <point x="240" y="862"/>
      <point x="239.89" y="922.9416666666667" type="curve"/>
    </contour>
  </outline>
</glyph>
<glyph name="acute" format="2">
  <advance width="1024"/>
  <unicode hex="00B4"/>
  <outline>
    <contour>
      <point x="298.015" y="1304.065" type="line"/>
      <point x="457.5883333333333" y="1184.86" type="line"/>
      <point x="756.395" y="1493.8866666666668" type="line"/>
      <point x="534.3266666666667" y="1630.4" type="line"/>
    </contour>
  </outline>
</glyph>
<glyph name="micro" format="2">
  <advance width="1086"/>
  <unicode hex="00B5"/>
  <outline>
    <contour>
      <point x="212.43666666666667" y="1052.0" type="line"/>
      <point x="-71.56333333333333" y="-416.0" type="line"/>
      <point x="211.75" y="-416.0" type="line"/>
      <point x="297.81666666666666" y="32.333333333333336" type="line"/>
      <point x="301" y="4"/>
      <point x="326" y="-20"/>
      <point x="378.065" y="-20.0" type="curve" smooth="yes"/>
      <point x="442" y="-20"/>
      <point x="510" y="28"/>
      <point x="576.91" y="125.33333333333333" type="curve"/>
      <point x="582.91" y="125.33333333333333" type="line"/>
      <point x="566.8433333333334" y="0.0" type="line"/>
      <point x="842.1433333333333" y="0.0" type="line"/>
      <point x="1046.1433333333334" y="1052.0" type="line"/>
      <point x="752.8433333333334" y="1052.0" type="line"/>
      <point x="615.61" y="344.73333333333335" type="line"/>
      <point x="546" y="242"/>
      <point x="490" y="205"/>
      <point x="431.72" y="205.11666666666667" type="curve" smooth="yes"/>
      <point x="361" y="205"/>
      <point x="341" y="257"/>
      <point x="363.75" y="371.0" type="curve" smooth="yes"/>
      <point x="495.75" y="1052.0" type="line"/>
    </contour>
  </outline>
</glyph>
<glyph name="paragraph" format="2">
  <advance width="1110"/>
  <unicode hex="00B6"/>
  <guideline x="0" y="901.0" angle="0" identifier="27539Lsr1A"/>
  <guideline x="0" y="555.0" angle="0" identifier="e34wUdCmXR"/>
  <outline>
    <contour>
      <point x="658.8883333333333" y="-146.0" type="line"/>
      <point x="658.8883333333333" y="1456.0" type="line"/>
      <point x="346.65500000000003" y="1456.0" type="line" smooth="yes"/>
      <point x="181" y="1456"/>
      <point x="56" y="1291"/>
      <point x="56.16" y="1054.65" type="curve" smooth="yes"/>
      <point x="56" y="819"/>
      <point x="181" y="653"/>
      <point x="346.65500000000003" y="653.3" type="curve" smooth="yes"/>
      <point x="427.37166666666667" y="653.3" type="line"/>
      <point x="427.37166666666667" y="-146.0" type="line"/>
    </contour>
    <contour>
      <point x="800.8883333333333" y="1459.0" type="line"/>
      <point x="800.8883333333333" y="-146.0" type="line"/>
      <point x="979.2383333333333" y="-146.0" type="line"/>
      <point x="979.2383333333333" y="1459.0" type="line"/>
    </contour>
  </outline>
</glyph>
<glyph name="periodcentered" format="2">
  <advance width="657"/>
  <unicode hex="00B7"/>
  <outline>
    <contour>
      <point x="143.13333333333333" y="748.9516666666667" type="curve" smooth="yes"/>
      <point x="143" y="655"/>
      <point x="207" y="578"/>
      <point x="323.44166666666666" y="578.1383333333333" type="curve" smooth="yes"/>
      <point x="442" y="578"/>
      <point x="504" y="654"/>
      <point x="504.23333333333335" y="748.5166666666667" type="curve" smooth="yes"/>
      <point x="504" y="844"/>
      <point x="441" y="920"/>
      <point x="323.87666666666667" y="919.765" type="curve" smooth="yes"/>
      <point x="207" y="920"/>
      <point x="143" y="844"/>
    </contour>
  </outline>
</glyph>
<glyph name="cedilla" format="2">
  <advance width="1024"/>
  <unicode hex="00B8"/>
  <outline>
    <contour>
      <point x="439.61333333333334" y="42.0" type="line"/>
      <point x="399.0966666666667" y="-154.81666666666666" type="line"/>
      <point x="504" y="-164"/>
      <point x="538" y="-181"/>
      <point x="537.94" y="-243.46666666666667" type="curve" smooth="yes"/>
      <point x="538" y="-312"/>
      <point x="500" y="-339"/>
      <point x="343.32" y="-339.1166666666667" type="curve"/>
      <point x="350.9" y="-462.55" type="line"/>
      <point x="630" y="-464"/>
      <point x="738" y="-373"/>
      <point x="738.1133333333333" y="-241.46666666666667" type="curve" smooth="yes"/>
      <point x="738" y="-118"/>
      <point x="643" y="-73"/>
      <point x="553.2766666666666" y="-58.31666666666666" type="curve"/>
      <point x="580.165" y="42.0" type="line"/>
    </contour>
  </outline>
</glyph>
<glyph name="onesuperior" format="2">
  <advance width="619"/>
  <unicode hex="00B9"/>
  <outline>
    <contour>
      <point x="108.5" y="1192.6333333333334" type="line"/>
      <point x="250.96666666666667" y="1260.05" type="line"/>
      <point x="250.96666666666667" y="697.0" type="line"/>
      <point x="449.7" y="697.0" type="line"/>
      <point x="449.7" y="1486.0" type="line"/>
      <point x="350.6" y="1486.0" type="line"/>
      <point x="108.5" y="1372.9" type="line"/>
    </contour>
  </outline>
</glyph>
<glyph name="ordmasculine" format="2">
  <advance width="819"/>
  <unicode hex="00BA"/>
  <guideline x="0" y="1975.0" angle="0" identifier="Jnt0R9CyOf"/>
  <outline>
    <contour>
      <point x="85.905" y="1057.5" type="line"/>
      <point x="86" y="815"/>
      <point x="194" y="691"/>
      <point x="410.82166666666666" y="691.0" type="curve" smooth="yes"/>
      <point x="626" y="691"/>
      <point x="734" y="815"/>
      <point x="733.6716666666666" y="1057.5" type="curve"/>
      <point x="733.6716666666666" y="1110.4666666666667" type="line"/>
      <point x="734" y="1353"/>
      <point x="625" y="1477"/>
      <point x="409.78833333333336" y="1477.4833333333333" type="curve" smooth="yes"/>
      <point x="194" y="1477"/>
      <point x="86" y="1353"/>
      <point x="85.905" y="1110.4666666666667" type="curve"/>
    </contour>
    <contour>
      <point x="312.2216666666667" y="1121.5833333333333" type="line"/>
      <point x="312" y="1244"/>
      <point x="342" y="1303"/>
      <point x="409.305" y="1302.65" type="curve" smooth="yes"/>
      <point x="476" y="1303"/>
      <point x="507" y="1244"/>
      <point x="507.3883333333333" y="1121.5833333333333" type="curve"/>
      <point x="507.3883333333333" y="1046.3833333333334" type="line"/>
      <point x="507" y="923"/>
      <point x="477" y="864"/>
      <point x="410.82166666666666" y="864.3166666666667" type="curve" smooth="yes"/>
      <point x="343" y="864"/>
      <point x="312" y="923"/>
      <point x="312.2216666666667" y="1046.3833333333334" type="curve"/>
    </contour>
  </outline>
</glyph>
<glyph name="guillemotright" format="2">
  <advance width="1058"/>
  <unicode hex="00BB"/>
  <guideline x="0" y="98.0" angle="0" identifier="MTEldNnfdj"/>
  <guideline x="0" y="443.0" angle="0" identifier="G9bQni2n1K"/>
  <outline>
    <contour>
      <point x="38.62833333333334" y="148.16666666666666" type="line"/>
      <point x="253.31166666666667" y="148.16666666666666" type="line"/>
      <point x="510.06166666666667" y="500.935" type="line"/>
      <point x="510.06166666666667" y="599.5683333333334" type="line"/>
      <point x="253.31166666666667" y="953.8333333333334" type="line"/>
      <point x="38.62833333333334" y="953.8333333333334" type="line"/>
      <point x="262.72833333333335" y="551.0" type="line"/>
    </contour>
    <contour>
      <point x="511.97833333333335" y="148.16666666666666" type="line"/>
      <point x="726.6616666666666" y="148.16666666666666" type="line"/>
      <point x="983.4116666666666" y="500.935" type="line"/>
      <point x="983.4116666666666" y="599.5683333333334" type="line"/>
      <point x="726.6616666666666" y="953.8333333333334" type="line"/>
      <point x="511.97833333333335" y="953.8333333333334" type="line"/>
      <point x="736.0783333333334" y="551.0" type="line"/>
    </contour>
  </outline>
</glyph>
<glyph name="questiondown" format="2">
  <advance width="1091"/>
  <unicode hex="00BF"/>
  <guideline x="0" y="-181.0" angle="0" identifier="apukwP5ffL"/>
  <guideline x="0" y="921.0" angle="0" identifier="5ZPZZL8Rim"/>
  <outline>
    <contour>
      <point x="766.1783333333333" y="1008.9816666666667" type="curve" smooth="yes"/>
      <point x="766" y="1098"/>
      <point x="703" y="1170"/>
      <point x="588.495" y="1169.565" type="curve" smooth="yes"/>
      <point x="473" y="1170"/>
      <point x="412" y="1098"/>
      <point x="411.57666666666665" y="1008.9816666666667" type="curve" smooth="yes"/>
      <point x="412" y="921"/>
      <point x="474" y="849"/>
      <point x="589.695" y="848.8816666666667" type="curve" smooth="yes"/>
      <point x="703" y="849"/>
      <point x="766" y="921"/>
    </contour>
    <contour>
      <point x="954.6433333333333" y="96.54833333333333" type="line"/>
      <point x="666.095" y="96.54833333333333" type="line"/>
      <point x="666.1433333333333" y="66.88166666666666" type="line" smooth="yes"/>
      <point x="666" y="-65"/>
      <point x="635" y="-112"/>
      <point x="565.66" y="-111.535" type="curve" smooth="yes"/>
      <point x="492" y="-112"/>
      <point x="463" y="-61"/>
      <point x="463.24333333333334" y="73.19833333333334" type="curve" smooth="yes"/>
      <point x="463" y="191"/>
      <point x="502" y="243"/>
      <point x="599.01" y="330.99833333333333" type="curve" smooth="yes"/>
      <point x="721" y="458"/>
      <point x="740" y="550"/>
      <point x="739.8766666666667" y="707.265" type="curve" smooth="yes"/>
      <point x="739.8766666666667" y="720.6483333333333" type="line"/>
      <point x="446.99333333333334" y="720.6483333333333" type="line"/>
      <point x="446.99333333333334" y="708.715" type="line" smooth="yes"/>
      <point x="447" y="630"/>
      <point x="444" y="531"/>
      <point x="361.34333333333336" y="459.84833333333336" type="curve" smooth="yes"/>
      <point x="261" y="374"/>
      <point x="166" y="256"/>
      <point x="166.49333333333334" y="66.915" type="curve" smooth="yes"/>
      <point x="166" y="-195"/>
      <point x="327" y="-328"/>
      <point x="563.7266666666667" y="-328.435" type="curve" smooth="yes"/>
      <point x="798" y="-328"/>
      <point x="955" y="-201"/>
      <point x="954.6433333333333" y="61.565" type="curve" smooth="yes"/>
    </contour>
  </outline>
</glyph>
<glyph name="AE" format="2">
  <advance width="1671"/>
  <unicode hex="00C6"/>
  <outline>
    <contour>
      <point x="276.7783333333333" y="317.5366666666667" type="line"/>
      <point x="375.95666666666665" y="533.6983333333334" type="line"/>
      <point x="878.9916666666667" y="533.6983333333334" type="line"/>
      <point x="878.9916666666667" y="317.5366666666667" type="line"/>
    </contour>
    <contour>
      <point x="-17.541666666666664" y="0.0" type="line"/>
      <point x="246.76" y="0.0" type="line"/>
      <point x="771.2366666666667" y="1130.5333333333333" type="line"/>
      <point x="771.2366666666667" y="0.0" type="line"/>
      <point x="1605.99" y="0.0" type="line"/>
      <point x="1605.99" y="223.09833333333333" type="line"/>
      <point x="1062.3866666666668" y="223.09833333333333" type="line"/>
      <point x="1062.3866666666668" y="638.585" type="line"/>
      <point x="1504.4733333333334" y="638.585" type="line"/>
      <point x="1504.4733333333334" y="860.4666666666667" type="line"/>
      <point x="1062.3866666666668" y="860.4666666666667" type="line"/>
      <point x="1062.3866666666668" y="1231.5" type="line"/>
      <point x="1595.5066666666667" y="1231.5" type="line"/>
      <point x="1595.5066666666667" y="1456.0" type="line"/>
      <point x="690.74" y="1456.0" type="line"/>
    </contour>
  </outline>
</glyph>
<glyph name="multiply" format="2">
  <advance width="1072"/>
  <unicode hex="00D7"/>
  <outline>
    <contour>
      <point x="293.49833333333333" y="198.76833333333335" type="line"/>
      <point x="965.6316666666667" y="955.5233333333333" type="line"/>
      <point x="778.8" y="1145.3733333333332" type="line"/>
      <point x="106.23166666666667" y="387.6666666666667" type="line"/>
    </contour>
    <contour>
      <point x="774.5699999999999" y="198.33333333333334" type="line"/>
      <point x="967.085" y="393.35" type="line"/>
      <point x="300.78" y="1144.9866666666667" type="line"/>
      <point x="107.83" y="949.8883333333333" type="line"/>
    </contour>
  </outline>
</glyph>
<glyph name="Thorn" format="2">
  <advance width="1151"/>
  <unicode hex="00DE"/>
  <guideline x="0" y="901.0" angle="0" identifier="i9jYwjBDP4"/>
  <guideline x="0" y="555.0" angle="0" identifier="T8KKW8oxop"/>
  <outline>
    <contour>
      <point x="155.5" y="1456.0" type="line"/>
      <point x="155.5" y="0.0" type="line"/>
      <point x="450.32166666666666" y="0.0" type="line"/>
      <point x="450.32166666666666" y="272.555" type="line"/>
      <point x="618.7016666666667" y="272.555" type="line" smooth="yes"/>
      <point x="913" y="274"/>
      <point x="1072" y="417"/>
      <point x="1071.6333333333332" y="738.8933333333333" type="curve" smooth="yes"/>
      <point x="1072" y="1061"/>
      <point x="912" y="1199"/>
      <point x="619.1850000000001" y="1198.9433333333334" type="curve" smooth="yes"/>
      <point x="449.5083333333333" y="1198.9433333333334" type="line"/>
      <point x="449.5083333333333" y="1456.0" type="line"/>
    </contour>
    <contour>
      <point x="592.1183333333333" y="975.605" type="line" smooth="yes"/>
      <point x="736" y="975"/>
      <point x="777" y="885"/>
      <point x="777.2950000000001" y="738.9066666666666" type="curve" smooth="yes"/>
      <point x="777" y="594"/>
      <point x="736" y="496"/>
      <point x="592.1183333333333" y="495.6433333333333" type="curve" smooth="yes"/>
      <point x="450.32166666666666" y="495.6433333333333" type="line"/>
      <point x="450.32166666666666" y="975.605" type="line"/>
    </contour>
  </outline>
</glyph>
<glyph name="germandbls" format="2">
  <advance width="1325"/>
  <unicode hex="00DF"/>
  <outline>
    <contour>
      <point x="390.33166666666665" y="1092.0" type="line" name="hr00"/>
      <point x="390" y="1253"/>
      <point x="460" y="1332"/>
      <point x="574.5866666666667" y="1332.25" type="curve" smooth="yes"/>
      <point x="662" y="1332"/>
      <point x="706" y="1281"/>
      <point x="705.6266666666667" y="1182.7333333333333" type="curve" smooth="yes"/>
      <point x="706" y="1130"/>
      <point x="695" y="1091"/>
      <point x="663.4866666666667" y="1043.4" type="curve" smooth="yes"/>
      <point x="597" y="940"/>
      <point x="553" y="871"/>
      <point x="553.285" y="786.3666666666667" type="curve" smooth="yes"/>
      <point x="553" y="658"/>
      <point x="645" y="558"/>
      <point x="808.4716666666667" y="476.23333333333335" type="curve" smooth="yes"/>
      <point x="944" y="408"/>
      <point x="984" y="378"/>
      <point x="984.2616666666667" y="303.93333333333334" type="curve" smooth="yes"/>
      <point x="984" y="223"/>
      <point x="944" y="176"/>
      <point x="858.7716666666666" y="176.43333333333334" type="curve" smooth="yes"/>
      <point x="776" y="176"/>
      <point x="732" y="220"/>
      <point x="732.0016666666667" y="309.98333333333335" type="curve" smooth="yes"/>
      <point x="732.0016666666667" y="327.68333333333334" type="line"/>
      <point x="479.3433333333333" y="328.65" type="line"/>
      <point x="479.3433333333333" y="307.0" type="line" smooth="yes"/>
      <point x="479" y="89"/>
      <point x="614" y="-25"/>
      <point x="858.27" y="-24.833333333333332" type="curve" smooth="yes"/>
      <point x="1114" y="-25"/>
      <point x="1264" y="83"/>
      <point x="1263.9516666666666" y="309.06666666666666" type="curve" smooth="yes"/>
      <point x="1264" y="484"/>
      <point x="1194" y="572"/>
      <point x="1032.8683333333333" y="654.7666666666667" type="curve" smooth="yes"/>
      <point x="873" y="738"/>
      <point x="833" y="783"/>
      <point x="832.615" y="836.7666666666667" type="curve" smooth="yes"/>
      <point x="833" y="877"/>
      <point x="862" y="919"/>
      <point x="900.8433333333334" y="969.6166666666667" type="curve" smooth="yes"/>
      <point x="957" y="1045"/>
      <point x="982" y="1115"/>
      <point x="981.885" y="1215.0" type="curve" smooth="yes"/>
      <point x="982" y="1416"/>
      <point x="830" y="1534"/>
      <point x="578.1516666666666" y="1534.0" type="curve" smooth="yes"/>
      <point x="287" y="1534"/>
      <point x="131" y="1370"/>
      <point x="130.6" y="1092.0" type="curve" smooth="yes"/>
      <point x="130.6" y="0.0" type="line"/>
      <point x="390.33166666666665" y="0.0" type="line"/>
    </contour>
  </outline>
</glyph>
<glyph name="ae" format="2">
  <advance width="1520"/>
  <unicode hex="00E6"/>
  <outline>
    <contour>
      <point x="351.225" y="322.03333333333336" type="curve" smooth="yes"/>
      <point x="351" y="447"/>
      <point x="408" y="487"/>
      <point x="503.83166666666665" y="487.4666666666667" type="curve" smooth="yes"/>
      <point x="618.55" y="487.4666666666667" type="line"/>
      <point x="618.55" y="358.1666666666667" type="line" smooth="yes"/>
      <point x="619" y="226"/>
      <point x="543" y="175"/>
      <point x="463.2" y="175.4" type="curve" smooth="yes"/>
      <point x="390" y="175"/>
      <point x="351" y="218"/>
    </contour>
    <contour>
      <point x="66.99333333333334" y="310.13166666666666" type="curve" smooth="yes"/>
      <point x="67" y="74"/>
      <point x="192" y="-20"/>
      <point x="386.59333333333336" y="-19.951666666666668" type="curve" smooth="yes"/>
      <point x="529" y="-20"/>
      <point x="650" y="26"/>
      <point x="738.9366666666667" y="115.51" type="curve"/>
      <point x="819" y="22"/>
      <point x="931" y="-30"/>
      <point x="1082.8383333333334" y="-30.483333333333334" type="curve" smooth="yes"/>
      <point x="1279" y="-30"/>
      <point x="1416" y="58"/>
      <point x="1474.4116666666666" y="203.18333333333334" type="curve"/>
      <point x="1259.1416666666667" y="316.5866666666667" type="line"/>
      <point x="1219" y="241"/>
      <point x="1166" y="182"/>
      <point x="1069.8716666666667" y="182.45" type="curve" smooth="yes"/>
      <point x="949" y="182"/>
      <point x="899" y="265"/>
      <point x="899.0366666666666" y="460.95" type="curve" smooth="yes"/>
      <point x="899.0366666666666" y="595.4" type="line" smooth="yes"/>
      <point x="899" y="792"/>
      <point x="950" y="878"/>
      <point x="1062.83" y="877.7666666666667" type="curve" smooth="yes"/>
      <point x="1164" y="878"/>
      <point x="1204" y="787"/>
      <point x="1204.1116666666667" y="656.9116666666666" type="curve" smooth="yes"/>
      <point x="1204.3600000000001" y="637.8166666666667" type="line"/>
      <point x="801.8033333333333" y="637.8166666666667" type="line"/>
      <point x="801.8033333333333" y="458.3666666666667" type="line"/>
      <point x="1477.445" y="458.3666666666667" type="line"/>
      <point x="1477.445" y="561.45" type="line" smooth="yes"/>
      <point x="1477" y="911"/>
      <point x="1320" y="1085"/>
      <point x="1062.955" y="1085.3833333333334" type="curve" smooth="yes"/>
      <point x="971" y="1085"/>
      <point x="879" y="1068"/>
      <point x="792.8216666666667" y="1001.5583333333333" type="curve"/>
      <point x="718" y="1073"/>
      <point x="623" y="1084"/>
      <point x="515.0266666666666" y="1084.465" type="curve" smooth="yes"/>
      <point x="274" y="1084"/>
      <point x="113" y="951"/>
      <point x="112.62666666666667" y="757.4816666666667" type="curve" smooth="yes"/>
      <point x="112.62666666666667" y="742.3316666666667" type="line"/>
      <point x="392.4266666666667" y="742.3316666666667" type="line"/>
      <point x="392.4266666666667" y="757.4816666666667" type="line" smooth="yes"/>
      <point x="394" y="832"/>
      <point x="428" y="889"/>
      <point x="506.635" y="888.5816666666667" type="curve" smooth="yes"/>
      <point x="589" y="889"/>
      <point x="619" y="827"/>
      <point x="618.985" y="723.4316666666666" type="curve" smooth="yes"/>
      <point x="618.985" y="660.6316666666667" type="line"/>
      <point x="465.82666666666665" y="660.6316666666667" type="line" smooth="yes"/>
      <point x="224" y="661"/>
      <point x="67" y="548"/>
    </contour>
  </outline>
</glyph>
<glyph name="eth" format="2">
  <advance width="1060"/>
  <unicode hex="00F0"/>
  <outline>
    <contour>
      <point x="195.60833333333332" y="1399.2316666666666" type="line"/>
      <point x="554.7283333333334" y="1309.2484333333332"/>
      <point x="697.97" y="1091.5648"/>
      <point x="697.97" y="635.0" type="curve" smooth="yes"/>
      <point x="697.97" y="533.0666666666667" type="line" smooth="yes"/>
      <point x="697.97" y="316.57626666666664"/>
      <point x="664.9219333333333" y="185.76666666666668"/>
      <point x="538.35" y="185.76666666666668" type="curve" smooth="yes"/>
      <point x="395.71816666666666" y="185.76666666666668"/>
      <point x="361.52166666666665" y="308.3110666666667"/>
      <point x="361.52166666666665" y="468.3383333333333" type="curve" smooth="yes"/>
      <point x="361.52166666666665" y="681.1035333333334"/>
      <point x="399.51306666666665" y="786.0433333333333"/>
      <point x="550.205" y="786.0433333333333" type="curve" smooth="yes"/>
      <point x="649.1371999999999" y="786.0433333333333"/>
      <point x="714.6616666666666" y="722.1489333333334"/>
      <point x="714.6616666666666" y="566.9233333333333" type="curve"/>
      <point x="877.525" y="613.0" type="line"/>
      <point x="877.525" y="797.2031000000001"/>
      <point x="738.5906666666667" y="978.9666666666667"/>
      <point x="503.06333333333333" y="978.9666666666667" type="curve" smooth="yes"/>
      <point x="215.4926333333333" y="978.9666666666667"/>
      <point x="70.79" y="787.1455666666666"/>
      <point x="70.79" y="468.0" type="curve" smooth="yes"/>
      <point x="70.79" y="189.50333333333333"/>
      <point x="233.2145333333333" y="-20.0"/>
      <point x="533.915" y="-20.0" type="curve" smooth="yes"/>
      <point x="836.6545000000001" y="-20.0"/>
      <point x="989.4266666666666" y="193.37816666666663"/>
      <point x="989.4266666666666" y="535.0" type="curve"/>
      <point x="989.4266666666666" y="633.0" type="line"/>
      <point x="989.4266666666666" y="1144.7035666666666"/>
      <point x="721.3900666666668" y="1485.5796333333333"/>
      <point x="265.44166666666666" y="1582.6916666666666" type="curve"/>
    </contour>
    <contour>
      <point x="893.5116666666667" y="1427.0" type="line"/>
      <point x="806.5966666666667" y="1546.0" type="line"/>
      <point x="293.89666666666665" y="1170.1733333333334" type="line"/>
      <point x="380.81166666666667" y="1050.1733333333334" type="line"/>
    </contour>
  </outline>
</glyph>
<glyph name="divide" format="2">
  <advance width="1009"/>
  <unicode hex="00F7"/>
  <outline>
    <contour>
      <point x="357.32" y="1072.395" type="curve" smooth="yes"/>
      <point x="357.32" y="992.397"/>
      <point x="405.98249999999996" y="931.95"/>
      <point x="503.635" y="931.95" type="curve" smooth="yes"/>
      <point x="598.7817" y="931.95"/>
      <point x="650.95" y="992.397"/>
      <point x="650.95" y="1072.395" type="curve" smooth="yes"/>
      <point x="650.95" y="1155.073"/>
      <point x="598.7817" y="1215.84"/>
      <point x="503.635" y="1215.84" type="curve" smooth="yes"/>
      <point x="405.98249999999996" y="1215.84"/>
      <point x="357.32" y="1155.073"/>
    </contour>
    <contour>
      <point x="357.32" y="280.605" type="curve" smooth="yes"/>
      <point x="357.32" y="200.60699999999997"/>
      <point x="405.98249999999996" y="139.595"/>
      <point x="503.635" y="139.595" type="curve" smooth="yes"/>
      <point x="598.7817" y="139.595"/>
      <point x="650.95" y="200.60699999999997"/>
      <point x="650.95" y="280.605" type="curve" smooth="yes"/>
      <point x="650.95" y="362.5259"/>
      <point x="598.7817" y="424.05"/>
      <point x="503.635" y="424.05" type="curve" smooth="yes"/>
      <point x="405.98249999999996" y="424.05"/>
      <point x="357.32" y="362.5259"/>
    </contour>
    <contour>
      <point x="96.585" y="557.55" type="line"/>
      <point x="912.685" y="557.55" type="line"/>
      <point x="912.685" y="797.145" type="line"/>
      <point x="96.585" y="797.145" type="line"/>
    </contour>
  </outline>
</glyph>
<glyph name="thorn" format="2">
  <advance width="1072"/>
  <unicode hex="00FE"/>
  <outline>
    <contour>
      <point x="121.03" y="-416.0" type="line"/>
      <point x="404.68833333333333" y="-416.0" type="line"/>
      <point x="402.70166666666665" y="84.5" type="line"/>
      <point x="403.73833333333334" y="84.5" type="line"/>
      <point x="446.5446333333333" y="16.588799999999992"/>
      <point x="529.9144" y="-20.0"/>
      <point x="643.6" y="-20.0" type="curve" smooth="yes"/>
      <point x="856.593" y="-20.0"/>
      <point x="998.1833333333334" y="200.49499999999995"/>
      <point x="998.1833333333334" y="511.93333333333334" type="curve" smooth="yes"/>
      <point x="998.1833333333334" y="543.9333333333333" type="line" smooth="yes"/>
      <point x="998.1833333333334" y="856.6670000000001"/>
      <point x="853.8863333333334" y="1075.8666666666666"/>
      <point x="634.4166666666666" y="1075.8666666666666" type="curve" smooth="yes"/>
      <point x="524.1637" y="1075.8666666666666"/>
      <point x="436.03013333333337" y="1020.9710666666667"/>
      <point x="392.23" y="950.0716666666667" type="curve"/>
      <point x="392.23" y="1536.0" type="line"/>
      <point x="121.03" y="1536.0" type="line"/>
    </contour>
    <contour>
      <point x="404.73" y="303.02" type="curve"/>
      <point x="404.73" y="747.3533333333334" type="line"/>
      <point x="426.28166666666664" y="798.586"/>
      <point x="483.499" y="854.62"/>
      <point x="562.9833333333333" y="854.62" type="curve" smooth="yes"/>
      <point x="656.5711666666667" y="854.62"/>
      <point x="708.0666666666666" y="777.6060333333334"/>
      <point x="708.0666666666666" y="591.92" type="curve" smooth="yes"/>
      <point x="708.0666666666666" y="456.50333333333333" type="line" smooth="yes"/>
      <point x="708.0666666666666" y="273.7318"/>
      <point x="656.2086666666667" y="193.80333333333334"/>
      <point x="558.4333333333334" y="193.80333333333334" type="curve" smooth="yes"/>
      <point x="472.2266666666667" y="193.80333333333334"/>
      <point x="419.38513333333333" y="254.4829666666667"/>
    </contour>
  </outline>
</glyph>
<glyph name="kgreenlandic" format="2">
  <advance width="985"/>
  <unicode hex="0138"/>
  <outline>
    <contour>
      <point x="403.6" y="1048.61" type="line"/>
      <point x="124.64666666666668" y="1048.61" type="line"/>
      <point x="124.64666666666668" y="0.0" type="line"/>
      <point x="403.6" y="0.0" type="line"/>
    </contour>
    <contour>
      <point x="963.8266666666667" y="1047.4983333333334" type="line"/>
      <point x="647.5233333333333" y="1047.4983333333334" type="line"/>
      <point x="424.75" y="647.91" type="line"/>
      <point x="296.545" y="647.91" type="line"/>
      <point x="296.545" y="439.83" type="line"/>
      <point x="584.33" y="439.83" type="line"/>
    </contour>
    <contour>
      <point x="685.3766666666667" y="0.0" type="line"/>
      <point x="1017.2533333333333" y="0.0" type="line"/>
      <point x="636.59" y="675.7166666666667" type="line"/>
      <point x="424.25666666666666" y="490.48333333333335" type="line"/>
    </contour>
  </outline>
</glyph>
<glyph name="OE" format="2">
  <advance width="1715"/>
  <unicode hex="0152"/>
  <outline>
    <contour>
      <point x="648.865" y="1477.3866666666668" type="curve" smooth="yes"/>
      <point x="282.61396666666667" y="1477.3866666666668"/>
      <point x="100.01666666666667" y="1224.0973333333334"/>
      <point x="100.01666666666667" y="772.0483333333333" type="curve" smooth="yes"/>
      <point x="100.01666666666667" y="682.0483333333333" type="line" smooth="yes"/>
      <point x="100.01666666666667" y="224.35123333333337"/>
      <point x="285.71629999999993" y="-21.386666666666667"/>
      <point x="609.8466666666667" y="-21.386666666666667" type="curve" smooth="yes"/>
      <point x="710.5856333333334" y="-21.386666666666667"/>
      <point x="813.1918666666667" y="-9.703833333333334"/>
      <point x="903.49" y="0.0" type="curve"/>
      <point x="1654.5766666666666" y="0.0" type="line"/>
      <point x="1654.5766666666666" y="223.34666666666666" type="line"/>
      <point x="1112.96" y="223.34666666666666" type="line"/>
      <point x="1112.96" y="638.3366666666667" type="line"/>
      <point x="1553.06" y="638.3366666666667" type="line"/>
      <point x="1553.06" y="860.4666666666667" type="line"/>
      <point x="1112.96" y="860.4666666666667" type="line"/>
      <point x="1112.96" y="1231.5" type="line"/>
      <point x="1644.0933333333332" y="1231.5" type="line"/>
      <point x="1644.0933333333332" y="1456.0" type="line"/>
      <point x="903.345" y="1456.0" type="line"/>
      <point x="813.0468666666667" y="1466.9790666666668"/>
      <point x="694.7041666666668" y="1477.3866666666668"/>
    </contour>
    <contour>
      <point x="399.45166666666665" y="655.4166666666666" type="curve" smooth="yes"/>
      <point x="399.45166666666665" y="800.1" type="line" smooth="yes"/>
      <point x="399.45166666666665" y="1106.7411333333334"/>
      <point x="470.3954333333333" y="1253.4666666666667"/>
      <point x="682.2516666666667" y="1253.4666666666667" type="curve" smooth="yes"/>
      <point x="709.8534333333333" y="1253.4666666666667"/>
      <point x="759.6322" y="1249.0202000000002"/>
      <point x="822.0583333333334" y="1240.1583333333333" type="curve"/>
      <point x="822.0583333333334" y="214.14666666666665" type="line"/>
      <point x="771.6564666666667" y="205.459"/>
      <point x="732.6324000000001" y="200.5"/>
      <point x="680.7833333333333" y="200.5" type="curve" smooth="yes"/>
      <point x="472.9716666666667" y="200.5"/>
      <point x="399.45166666666665" y="343.3016333333333"/>
    </contour>
  </outline>
</glyph>
<glyph name="oe" format="2">
  <advance width="1590"/>
  <unicode hex="0153"/>
  <outline>
    <contour>
      <point x="361.39" y="595.8833333333333" type="line" smooth="yes"/>
      <point x="361.39" y="781.0557000000001"/>
      <point x="405.7564" y="867.1333333333333"/>
      <point x="524.6233333333333" y="867.1333333333333" type="curve" smooth="yes"/>
      <point x="643.4254999999999" y="867.1333333333333"/>
      <point x="688.5733333333333" y="785.8484333333333"/>
      <point x="688.5733333333333" y="595.8833333333333" type="curve" smooth="yes"/>
      <point x="688.5733333333333" y="459.98333333333335" type="line" smooth="yes"/>
      <point x="688.5733333333333" y="274.49606666666665"/>
      <point x="637.5987333333335" y="188.25"/>
      <point x="524.6233333333333" y="188.25" type="curve" smooth="yes"/>
      <point x="411.6479333333333" y="188.25"/>
      <point x="361.39" y="274.1633"/>
      <point x="361.39" y="459.98333333333335" type="curve" smooth="yes"/>
    </contour>
    <contour>
      <point x="831.5066666666667" y="960.0366666666666" type="curve"/>
      <point x="742.3922" y="1059.3842666666667"/>
      <point x="635.6922" y="1085.6316666666667"/>
      <point x="527.6033333333334" y="1085.6316666666667" type="curve" smooth="yes"/>
      <point x="254.0892333333333" y="1085.6316666666667"/>
      <point x="70.79" y="897.604"/>
      <point x="70.79" y="543.9333333333333" type="curve" smooth="yes"/>
      <point x="70.79" y="511.93333333333334" type="line" smooth="yes"/>
      <point x="70.79" y="158.26266666666663"/>
      <point x="252.23666666666662" y="-30.0"/>
      <point x="532.0733333333334" y="-30.0" type="curve" smooth="yes"/>
      <point x="636.5196333333333" y="-30.0"/>
      <point x="743.8143333333334" y="1.9692999999999898"/>
      <point x="830.0433333333333" y="94.34666666666668" type="curve"/>
      <point x="916.9311666666666" y="2.3020666666666614"/>
      <point x="1027.9750333333334" y="-30.483333333333334"/>
      <point x="1147.005" y="-30.483333333333334" type="curve" smooth="yes"/>
      <point x="1349.8095333333333" y="-30.483333333333334"/>
      <point x="1485.8383333333331" y="58.400800000000004"/>
      <point x="1543.7933333333335" y="203.18333333333334" type="curve"/>
      <point x="1328.5233333333333" y="316.5866666666667" type="line"/>
      <point x="1288.4819" y="240.8387"/>
      <point x="1237.971" y="182.45"/>
      <point x="1141.7366666666667" y="182.45" type="curve" smooth="yes"/>
      <point x="1020.6498000000001" y="182.45"/>
      <point x="968.4183333333333" y="265.16929999999996"/>
      <point x="968.4183333333333" y="460.95" type="curve" smooth="yes"/>
      <point x="968.4183333333333" y="595.4" type="line" smooth="yes"/>
      <point x="968.4183333333333" y="791.6742666666667"/>
      <point x="1020.4486666666666" y="877.7666666666667"/>
      <point x="1129.48" y="877.7666666666667" type="curve" smooth="yes"/>
      <point x="1234.7392333333335" y="877.7666666666667"/>
      <point x="1273.8908666666666" y="786.4563333333333"/>
      <point x="1273.4933333333333" y="656.7666666666667" type="curve" smooth="yes"/>
      <point x="1273.7416666666668" y="637.8166666666667" type="line"/>
      <point x="871.185" y="637.8166666666667" type="line"/>
      <point x="871.185" y="458.3666666666667" type="line"/>
      <point x="1546.8266666666668" y="458.3666666666667" type="line"/>
      <point x="1546.8266666666668" y="561.45" type="line" smooth="yes"/>
      <point x="1546.8266666666668" y="910.6763333333333"/>
      <point x="1391.4224666666669" y="1085.3833333333334"/>
      <point x="1125.3833333333334" y="1085.3833333333334" type="curve" smooth="yes"/>
      <point x="1019.6930666666666" y="1085.3833333333334"/>
      <point x="919.9846333333332" y="1057.0727666666667"/>
    </contour>
  </outline>
</glyph>
<glyph name="Schwa" format="2">
  <advance width="1349"/>
  <unicode hex="018F"/>
  <outline>
    <contour>
      <point x="63.22666666666666" y="1199.0" type="curve"/>
      <point x="208.08833333333334" y="1072.8333333333333" type="line"/>
      <point x="286.31753333333336" y="1209.7768666666666"/>
      <point x="432.5709999999999" y="1288.0"/>
      <point x="596.9666666666667" y="1288.0" type="curve" smooth="yes"/>
      <point x="854.2935666666667" y="1288.0"/>
      <point x="986.7653333333334" y="1093.9256666666665"/>
      <point x="988.15" y="747.0666666666667" type="curve" smooth="yes"/>
      <point x="989.5346666666666" y="404.585"/>
      <point x="890.7309333333334" y="187.38333333333333"/>
      <point x="651.6883333333333" y="187.38333333333333" type="curve" smooth="yes"/>
      <point x="477.5441666666667" y="187.38333333333333"/>
      <point x="380.1666666666667" y="297.19910000000004"/>
      <point x="380.1666666666667" y="515.8" type="curve" smooth="yes"/>
      <point x="380.1666666666667" y="580.65" type="line"/>
      <point x="654.5633333333333" y="586.1666666666666" type="line"/>
      <point x="1032.6433333333334" y="578.65" type="line"/>
      <point x="1032.6433333333334" y="770.1" type="line"/>
      <point x="95.08833333333334" y="770.1" type="line"/>
      <point x="95.08833333333334" y="589.6" type="line" smooth="yes"/>
      <point x="101.62976666666667" y="190.53906666666666"/>
      <point x="290.0064" y="-30.0"/>
      <point x="636.2266666666667" y="-30.0" type="curve" smooth="yes"/>
      <point x="1056.4328" y="-30.0"/>
      <point x="1271.1283333333333" y="295.009"/>
      <point x="1271.1283333333333" y="789.0" type="curve" smooth="yes"/>
      <point x="1271.1283333333333" y="1228.1403333333333"/>
      <point x="1070.6145666666666" y="1519.0"/>
      <point x="614.0966666666667" y="1519.0" type="curve" smooth="yes"/>
      <point x="392.52096666666665" y="1519.0"/>
      <point x="186.66746666666666" y="1406.3047"/>
    </contour>
  </outline>
</glyph>
<glyph name="florin" format="2">
  <advance width="834"/>
  <unicode hex="0192"/>
  <outline>
    <contour>
      <point x="729.1283333333333" y="896.34" type="line"/>
      <point x="505.4533333333334" y="896.34" type="line"/>
      <point x="505.4533333333334" y="1097.4833333333333" type="line" smooth="yes"/>
      <point x="501.9358333333334" y="1229.451"/>
      <point x="535.7967333333333" y="1288.1"/>
      <point x="615.7366666666667" y="1288.1" type="curve" smooth="yes"/>
      <point x="659.9901666666667" y="1288.1"/>
      <point x="690.4997999999999" y="1275.9207333333334"/>
      <point x="737.3283333333334" y="1238.7" type="curve"/>
      <point x="834.0366666666666" y="1434.9333333333334" type="line"/>
      <point x="753.2324333333333" y="1493.5851333333335"/>
      <point x="679.5203666666667" y="1515.5166666666667"/>
      <point x="573.6983333333334" y="1515.5166666666667" type="curve" smooth="yes"/>
      <point x="362.7354333333333" y="1515.5166666666667"/>
      <point x="216.68166666666667" y="1379.0696666666668"/>
      <point x="216.68166666666667" y="1103.7666666666667" type="curve" smooth="yes"/>
      <point x="216.68166666666667" y="896.34" type="line"/>
      <point x="75.73666666666668" y="896.34" type="line"/>
      <point x="75.73666666666668" y="688.4433333333334" type="line"/>
      <point x="216.68166666666667" y="688.4433333333334" type="line"/>
      <point x="216.68166666666667" y="85.86666666666667" type="line" smooth="yes"/>
      <point x="212.58126666666666" y="-123.65350000000004"/>
      <point x="174.87726666666669" y="-216.81666666666666"/>
      <point x="41.76166666666667" y="-216.81666666666666" type="curve" smooth="yes"/>
      <point x="8.493933333333352" y="-216.81666666666666"/>
      <point x="-32.51913333333333" y="-212.01133333333337"/>
      <point x="-51.45333333333332" y="-205.26666666666665" type="curve"/>
      <point x="-79.22833333333332" y="-415.65" type="line"/>
      <point x="-45.40003333333333" y="-429.04999999999995"/>
      <point x="31.082500000000003" y="-436.51666666666665"/>
      <point x="77.48000000000002" y="-436.51666666666665" type="curve" smooth="yes"/>
      <point x="370.20300000000003" y="-436.51666666666665"/>
      <point x="505.4533333333334" y="-273.3031666666667"/>
      <point x="505.4533333333334" y="61.21666666666667" type="curve" smooth="yes"/>
      <point x="505.4533333333334" y="688.4433333333334" type="line"/>
      <point x="729.1283333333333" y="688.4433333333334" type="line"/>
    </contour>
  </outline>
</glyph>
<glyph name="schwa" format="2">
  <advance width="1013"/>
  <unicode hex="0259"/>
  <outline>
    <contour>
      <point x="940.48" y="542.9666666666667" type="line" smooth="yes"/>
      <point x="940.48" y="893.5061999999999"/>
      <point x="764.6052666666667" y="1085.3833333333334"/>
      <point x="451.885" y="1085.3833333333334" type="curve" smooth="yes"/>
      <point x="271.44506666666666" y="1085.3833333333334"/>
      <point x="129.83346666666668" y="1010.0397"/>
      <point x="53.42666666666667" y="860.1316666666667" type="curve"/>
      <point x="260.28166666666664" y="734.4883333333333" type="line"/>
      <point x="315.6996" y="822.5375"/>
      <point x="384.54463333333337" y="869.39"/>
      <point x="457.20166666666665" y="869.39" type="curve" smooth="yes"/>
      <point x="583.4140333333334" y="869.39"/>
      <point x="653.2816666666666" y="777.3644666666667"/>
      <point x="653.2816666666666" y="571.0" type="curve" smooth="yes"/>
      <point x="653.2816666666666" y="482.45" type="line" smooth="yes"/>
      <point x="653.2816666666666" y="283.79276666666664"/>
      <point x="591.8724333333333" y="180.19333333333333"/>
      <point x="471.565" y="180.19333333333333" type="curve" smooth="yes"/>
      <point x="375.53166666666664" y="180.19333333333333"/>
      <point x="319.7642333333334" y="253.34256666666667"/>
      <point x="319.13666666666666" y="394.30833333333334" type="curve"/>
      <point x="319.6533333333333" y="415.55333333333334" type="line"/>
      <point x="747.455" y="415.55333333333334" type="line"/>
      <point x="747.455" y="598.0633333333333" type="line"/>
      <point x="40.44833333333334" y="598.0633333333333" type="line"/>
      <point x="40.44833333333334" y="493.45" type="line" smooth="yes"/>
      <point x="40.44833333333334" y="152.4244666666666"/>
      <point x="204.78036666666668" y="-30.483333333333334"/>
      <point x="474.8283333333333" y="-30.483333333333334" type="curve" smooth="yes"/>
      <point x="768.9427000000001" y="-30.483333333333334"/>
      <point x="940.48" y="161.07479999999993"/>
      <point x="940.48" y="510.96666666666664" type="curve" smooth="yes"/>
    </contour>
  </outline>
</glyph>
<glyph name="primemod" format="2">
  <advance width="599"/>
  <unicode hex="02B9"/>
  <outline>
    <contour>
      <point x="190.16666666666666" y="1502.0" type="line"/>
      <point x="133.33333333333334" y="950.5666666666666" type="line"/>
      <point x="348.6166666666667" y="945.0833333333334" type="line"/>
      <point x="478.25" y="1502.0" type="line"/>
    </contour>
  </outline>
</glyph>
<glyph name="doubleprimemod" format="2">
  <advance width="952"/>
  <unicode hex="02BA"/>
  <outline>
    <contour>
      <point x="190.16666666666666" y="1502.0" type="line"/>
      <point x="133.85" y="957.2833333333333" type="line"/>
      <point x="349.1333333333333" y="951.8" type="line"/>
      <point x="478.25" y="1502.0" type="line"/>
    </contour>
    <contour>
      <point x="601.3333333333334" y="1502.0" type="line"/>
      <point x="545.0166666666667" y="957.2833333333333" type="line"/>
      <point x="760.3" y="951.8" type="line"/>
      <point x="889.4166666666666" y="1502.0" type="line"/>
    </contour>
  </outline>
</glyph>
<glyph name="apostrophemod" format="2">
  <advance width="606"/>
  <unicode hex="02BC"/>
  <outline>
    <contour>
      <point x="129.86666666666667" y="1038.8" type="curve"/>
      <point x="184.46666666666667" y="959.8333333333334" type="line"/>
      <point x="345.2443333333333" y="1033.31"/>
      <point x="492.45" y="1168.1563333333334"/>
      <point x="492.45" y="1355.6" type="curve" smooth="yes"/>
      <point x="492.45" y="1473.6763333333333"/>
      <point x="402.40633333333335" y="1553.25"/>
      <point x="308.45" y="1553.25" type="curve" smooth="yes"/>
      <point x="209.13366666666667" y="1553.25"/>
      <point x="137.86666666666667" y="1487.6470000000002"/>
      <point x="137.86666666666667" y="1398.9166666666667" type="curve" smooth="yes"/>
      <point x="137.86666666666667" y="1308.8463333333334"/>
      <point x="192.24766666666667" y="1245.5833333333333"/>
      <point x="293.21666666666664" y="1245.5833333333333" type="curve"/>
      <point x="273.1166666666666" y="1154.5079999999998"/>
      <point x="184.762" y="1077.7046666666665"/>
    </contour>
  </outline>
</glyph>
<glyph name="circumflex" format="2">
  <advance width="1024"/>
  <unicode hex="02C6"/>
  <outline>
    <contour>
      <point x="583.4666666666667" y="1570.1333333333334" type="line"/>
      <point x="439.56666666666666" y="1570.1333333333334" type="line"/>
      <point x="173.78333333333333" y="1203.0" type="line"/>
      <point x="386.2" y="1203.0" type="line"/>
      <point x="511.51666666666665" y="1360.55" type="line"/>
      <point x="638.3166666666667" y="1203.0" type="line"/>
      <point x="852.7333333333333" y="1203.0" type="line"/>
    </contour>
  </outline>
</glyph>
<glyph name="caron" format="2">
  <advance width="1024"/>
  <unicode hex="02C7"/>
  <outline>
    <contour>
      <point x="443.05" y="1183.0" type="line"/>
      <point x="586.95" y="1183.0" type="line"/>
      <point x="852.7333333333333" y="1550.1333333333334" type="line"/>
      <point x="640.3166666666667" y="1550.1333333333334" type="line"/>
      <point x="515.0" y="1392.5833333333333" type="line"/>
      <point x="388.2" y="1550.1333333333334" type="line"/>
      <point x="173.78333333333333" y="1550.1333333333334" type="line"/>
    </contour>
  </outline>
</glyph>
